<mxfile host="Electron" agent="Mozilla/5.0 (Windows NT 10.0; Win64; x64) AppleWebKit/537.36 (KHTML, like Gecko) draw.io/24.7.5 Chrome/126.0.6478.183 Electron/31.3.0 Safari/537.36" version="24.7.5">
  <diagram name="Page-1" id="7NCNmY8SKjR1gW7_eSqb">
    <mxGraphModel dx="1480" dy="1771" grid="1" gridSize="10" guides="1" tooltips="1" connect="1" arrows="1" fold="1" page="1" pageScale="1" pageWidth="850" pageHeight="1100" math="0" shadow="0">
      <root>
        <mxCell id="0" />
        <mxCell id="1" parent="0" />
        <mxCell id="U7OkQ9ro5yA8NuUNClQP-4" style="rounded=0;orthogonalLoop=1;jettySize=auto;html=1;exitX=1;exitY=0.5;exitDx=0;exitDy=0;entryX=0;entryY=0.5;entryDx=0;entryDy=0;endArrow=none;endFill=0;" edge="1" parent="1" source="U7OkQ9ro5yA8NuUNClQP-1" target="U7OkQ9ro5yA8NuUNClQP-3">
          <mxGeometry relative="1" as="geometry" />
        </mxCell>
        <mxCell id="U7OkQ9ro5yA8NuUNClQP-65" style="edgeStyle=orthogonalEdgeStyle;rounded=0;orthogonalLoop=1;jettySize=auto;html=1;exitX=0;exitY=0.5;exitDx=0;exitDy=0;startArrow=classic;startFill=1;endArrow=none;endFill=0;" edge="1" parent="1" source="U7OkQ9ro5yA8NuUNClQP-1">
          <mxGeometry relative="1" as="geometry">
            <mxPoint x="240" y="289.91" as="targetPoint" />
          </mxGeometry>
        </mxCell>
        <mxCell id="U7OkQ9ro5yA8NuUNClQP-1" value="&lt;b&gt;FETCH&lt;/b&gt;" style="ellipse;whiteSpace=wrap;html=1;" vertex="1" parent="1">
          <mxGeometry x="300" y="239.91" width="100" height="100" as="geometry" />
        </mxCell>
        <mxCell id="U7OkQ9ro5yA8NuUNClQP-14" style="rounded=0;orthogonalLoop=1;jettySize=auto;html=1;exitX=0;exitY=1;exitDx=0;exitDy=0;entryX=0.5;entryY=0;entryDx=0;entryDy=0;" edge="1" parent="1" source="U7OkQ9ro5yA8NuUNClQP-2" target="U7OkQ9ro5yA8NuUNClQP-8">
          <mxGeometry relative="1" as="geometry" />
        </mxCell>
        <mxCell id="U7OkQ9ro5yA8NuUNClQP-18" style="rounded=0;orthogonalLoop=1;jettySize=auto;html=1;exitX=1;exitY=1;exitDx=0;exitDy=0;entryX=0.5;entryY=0;entryDx=0;entryDy=0;" edge="1" parent="1" source="U7OkQ9ro5yA8NuUNClQP-2" target="U7OkQ9ro5yA8NuUNClQP-10">
          <mxGeometry relative="1" as="geometry" />
        </mxCell>
        <mxCell id="U7OkQ9ro5yA8NuUNClQP-19" style="rounded=0;orthogonalLoop=1;jettySize=auto;html=1;exitX=1;exitY=0.5;exitDx=0;exitDy=0;entryX=0.5;entryY=0;entryDx=0;entryDy=0;" edge="1" parent="1" source="U7OkQ9ro5yA8NuUNClQP-2" target="U7OkQ9ro5yA8NuUNClQP-11">
          <mxGeometry relative="1" as="geometry" />
        </mxCell>
        <mxCell id="U7OkQ9ro5yA8NuUNClQP-67" style="edgeStyle=orthogonalEdgeStyle;rounded=0;orthogonalLoop=1;jettySize=auto;html=1;exitX=0.5;exitY=1;exitDx=0;exitDy=0;entryX=0.5;entryY=0;entryDx=0;entryDy=0;" edge="1" parent="1" source="U7OkQ9ro5yA8NuUNClQP-2" target="U7OkQ9ro5yA8NuUNClQP-9">
          <mxGeometry relative="1" as="geometry" />
        </mxCell>
        <mxCell id="U7OkQ9ro5yA8NuUNClQP-2" value="&lt;b&gt;DECODE&lt;/b&gt;" style="ellipse;whiteSpace=wrap;html=1;" vertex="1" parent="1">
          <mxGeometry x="600" y="239.91" width="100" height="100" as="geometry" />
        </mxCell>
        <mxCell id="U7OkQ9ro5yA8NuUNClQP-7" style="edgeStyle=orthogonalEdgeStyle;rounded=0;orthogonalLoop=1;jettySize=auto;html=1;exitX=1;exitY=0.5;exitDx=0;exitDy=0;entryX=0;entryY=0.5;entryDx=0;entryDy=0;" edge="1" parent="1" source="U7OkQ9ro5yA8NuUNClQP-3" target="U7OkQ9ro5yA8NuUNClQP-2">
          <mxGeometry relative="1" as="geometry" />
        </mxCell>
        <mxCell id="U7OkQ9ro5yA8NuUNClQP-3" value="1/&lt;div&gt;pccen = 1&lt;/div&gt;&lt;div&gt;pcwrite = 1&lt;/div&gt;&lt;div&gt;irwrite = 1&lt;/div&gt;&lt;div&gt;pcsourse = PC_INC&lt;/div&gt;" style="rounded=0;whiteSpace=wrap;html=1;" vertex="1" parent="1">
          <mxGeometry x="445" y="243.66" width="110" height="92.5" as="geometry" />
        </mxCell>
        <mxCell id="U7OkQ9ro5yA8NuUNClQP-30" style="edgeStyle=orthogonalEdgeStyle;rounded=0;orthogonalLoop=1;jettySize=auto;html=1;exitX=0.5;exitY=1;exitDx=0;exitDy=0;entryX=0.5;entryY=0;entryDx=0;entryDy=0;" edge="1" parent="1" source="U7OkQ9ro5yA8NuUNClQP-8" target="U7OkQ9ro5yA8NuUNClQP-20">
          <mxGeometry relative="1" as="geometry" />
        </mxCell>
        <mxCell id="U7OkQ9ro5yA8NuUNClQP-31" style="rounded=0;orthogonalLoop=1;jettySize=auto;html=1;exitX=1;exitY=1;exitDx=0;exitDy=0;entryX=0.5;entryY=0;entryDx=0;entryDy=0;" edge="1" parent="1" source="U7OkQ9ro5yA8NuUNClQP-8" target="U7OkQ9ro5yA8NuUNClQP-21">
          <mxGeometry relative="1" as="geometry" />
        </mxCell>
        <mxCell id="U7OkQ9ro5yA8NuUNClQP-8" value="&lt;b&gt;LSW_ADDR&lt;/b&gt;" style="ellipse;whiteSpace=wrap;html=1;" vertex="1" parent="1">
          <mxGeometry x="300" y="489.91" width="100" height="100" as="geometry" />
        </mxCell>
        <mxCell id="U7OkQ9ro5yA8NuUNClQP-27" style="edgeStyle=orthogonalEdgeStyle;rounded=0;orthogonalLoop=1;jettySize=auto;html=1;exitX=0.5;exitY=1;exitDx=0;exitDy=0;entryX=0.5;entryY=0;entryDx=0;entryDy=0;" edge="1" parent="1" source="U7OkQ9ro5yA8NuUNClQP-9" target="U7OkQ9ro5yA8NuUNClQP-22">
          <mxGeometry relative="1" as="geometry" />
        </mxCell>
        <mxCell id="U7OkQ9ro5yA8NuUNClQP-28" style="rounded=0;orthogonalLoop=1;jettySize=auto;html=1;exitX=1;exitY=1;exitDx=0;exitDy=0;entryX=0.5;entryY=0;entryDx=0;entryDy=0;" edge="1" parent="1" source="U7OkQ9ro5yA8NuUNClQP-9" target="U7OkQ9ro5yA8NuUNClQP-23">
          <mxGeometry relative="1" as="geometry" />
        </mxCell>
        <mxCell id="U7OkQ9ro5yA8NuUNClQP-9" value="&lt;b&gt;IRTYPE_ALU&lt;/b&gt;" style="ellipse;whiteSpace=wrap;html=1;" vertex="1" parent="1">
          <mxGeometry x="600" y="489.91" width="100" height="100" as="geometry" />
        </mxCell>
        <mxCell id="U7OkQ9ro5yA8NuUNClQP-36" style="edgeStyle=orthogonalEdgeStyle;rounded=0;orthogonalLoop=1;jettySize=auto;html=1;exitX=0.5;exitY=1;exitDx=0;exitDy=0;" edge="1" parent="1" source="U7OkQ9ro5yA8NuUNClQP-10">
          <mxGeometry relative="1" as="geometry">
            <mxPoint x="950" y="1079.91" as="targetPoint" />
          </mxGeometry>
        </mxCell>
        <mxCell id="U7OkQ9ro5yA8NuUNClQP-10" value="&lt;b&gt;BEQ_EXEC&lt;/b&gt;" style="ellipse;whiteSpace=wrap;html=1;" vertex="1" parent="1">
          <mxGeometry x="900" y="489.91" width="100" height="100" as="geometry" />
        </mxCell>
        <mxCell id="U7OkQ9ro5yA8NuUNClQP-37" style="edgeStyle=orthogonalEdgeStyle;rounded=0;orthogonalLoop=1;jettySize=auto;html=1;exitX=0.5;exitY=1;exitDx=0;exitDy=0;" edge="1" parent="1" source="U7OkQ9ro5yA8NuUNClQP-11">
          <mxGeometry relative="1" as="geometry">
            <mxPoint x="1100" y="1079.91" as="targetPoint" />
          </mxGeometry>
        </mxCell>
        <mxCell id="U7OkQ9ro5yA8NuUNClQP-11" value="&lt;b&gt;JAL_EXEC&lt;/b&gt;" style="ellipse;whiteSpace=wrap;html=1;" vertex="1" parent="1">
          <mxGeometry x="1045" y="489.91" width="100" height="100" as="geometry" />
        </mxCell>
        <mxCell id="U7OkQ9ro5yA8NuUNClQP-32" style="edgeStyle=orthogonalEdgeStyle;rounded=0;orthogonalLoop=1;jettySize=auto;html=1;exitX=0.5;exitY=1;exitDx=0;exitDy=0;entryX=0.5;entryY=0;entryDx=0;entryDy=0;" edge="1" parent="1" source="U7OkQ9ro5yA8NuUNClQP-20" target="U7OkQ9ro5yA8NuUNClQP-24">
          <mxGeometry relative="1" as="geometry" />
        </mxCell>
        <mxCell id="U7OkQ9ro5yA8NuUNClQP-20" value="&lt;b&gt;LW_MEM&lt;/b&gt;" style="ellipse;whiteSpace=wrap;html=1;" vertex="1" parent="1">
          <mxGeometry x="300" y="699.91" width="100" height="100" as="geometry" />
        </mxCell>
        <mxCell id="U7OkQ9ro5yA8NuUNClQP-34" style="edgeStyle=orthogonalEdgeStyle;rounded=0;orthogonalLoop=1;jettySize=auto;html=1;exitX=0.5;exitY=1;exitDx=0;exitDy=0;" edge="1" parent="1" source="U7OkQ9ro5yA8NuUNClQP-21">
          <mxGeometry relative="1" as="geometry">
            <mxPoint x="490" y="1079.91" as="targetPoint" />
          </mxGeometry>
        </mxCell>
        <mxCell id="U7OkQ9ro5yA8NuUNClQP-21" value="&lt;b&gt;SW_MEM&lt;/b&gt;" style="ellipse;whiteSpace=wrap;html=1;" vertex="1" parent="1">
          <mxGeometry x="440" y="699.91" width="100" height="100" as="geometry" />
        </mxCell>
        <mxCell id="U7OkQ9ro5yA8NuUNClQP-35" style="edgeStyle=orthogonalEdgeStyle;rounded=0;orthogonalLoop=1;jettySize=auto;html=1;exitX=0.5;exitY=1;exitDx=0;exitDy=0;" edge="1" parent="1" source="U7OkQ9ro5yA8NuUNClQP-22">
          <mxGeometry relative="1" as="geometry">
            <mxPoint x="650" y="1079.91" as="targetPoint" />
          </mxGeometry>
        </mxCell>
        <mxCell id="U7OkQ9ro5yA8NuUNClQP-22" value="&lt;b&gt;IRTYPE_WB&lt;/b&gt;" style="ellipse;whiteSpace=wrap;html=1;" vertex="1" parent="1">
          <mxGeometry x="600" y="899.91" width="100" height="100" as="geometry" />
        </mxCell>
        <mxCell id="U7OkQ9ro5yA8NuUNClQP-29" style="rounded=0;orthogonalLoop=1;jettySize=auto;html=1;exitX=0.5;exitY=1;exitDx=0;exitDy=0;entryX=1;entryY=0;entryDx=0;entryDy=0;" edge="1" parent="1" source="U7OkQ9ro5yA8NuUNClQP-23" target="U7OkQ9ro5yA8NuUNClQP-22">
          <mxGeometry relative="1" as="geometry" />
        </mxCell>
        <mxCell id="U7OkQ9ro5yA8NuUNClQP-23" value="&lt;b&gt;ITYPE_ALU&lt;/b&gt;" style="ellipse;whiteSpace=wrap;html=1;fillColor=#fff2cc;strokeColor=#d6b656;" vertex="1" parent="1">
          <mxGeometry x="770" y="699.91" width="100" height="100" as="geometry" />
        </mxCell>
        <mxCell id="U7OkQ9ro5yA8NuUNClQP-33" style="edgeStyle=orthogonalEdgeStyle;rounded=0;orthogonalLoop=1;jettySize=auto;html=1;exitX=1;exitY=0.5;exitDx=0;exitDy=0;entryX=0.5;entryY=0;entryDx=0;entryDy=0;" edge="1" parent="1" source="U7OkQ9ro5yA8NuUNClQP-24" target="U7OkQ9ro5yA8NuUNClQP-1">
          <mxGeometry relative="1" as="geometry">
            <Array as="points">
              <mxPoint x="1220" y="1079.91" />
              <mxPoint x="1220" y="219.91" />
              <mxPoint x="350" y="219.91" />
            </Array>
          </mxGeometry>
        </mxCell>
        <mxCell id="U7OkQ9ro5yA8NuUNClQP-24" value="&lt;b&gt;LSW_ADDR&lt;/b&gt;" style="ellipse;whiteSpace=wrap;html=1;" vertex="1" parent="1">
          <mxGeometry x="300" y="1029.91" width="100" height="100" as="geometry" />
        </mxCell>
        <mxCell id="U7OkQ9ro5yA8NuUNClQP-41" value="opcode_funct3 == LW || opcode_funct3 == SW /&lt;div&gt;immsel = IMM_B&lt;/div&gt;&lt;div&gt;asel = ALUA_PCC&lt;/div&gt;&lt;div&gt;bsel = ALUB_IMM&lt;/div&gt;&lt;div&gt;alusel = ALU_ADD&lt;/div&gt;" style="rounded=0;whiteSpace=wrap;html=1;" vertex="1" parent="1">
          <mxGeometry x="340" y="359.91" width="150" height="92.5" as="geometry" />
        </mxCell>
        <mxCell id="U7OkQ9ro5yA8NuUNClQP-42" value="opcode_funct3 == LW /&lt;div&gt;immsel = IMM_L&lt;/div&gt;&lt;div&gt;asel = ALUA_REG&lt;/div&gt;&lt;div&gt;bsel = ALUB_IMM&lt;/div&gt;&lt;div&gt;alusel = ALU_ADD&lt;/div&gt;" style="rounded=0;whiteSpace=wrap;html=1;" vertex="1" parent="1">
          <mxGeometry x="250" y="599.91" width="130" height="80" as="geometry" />
        </mxCell>
        <mxCell id="U7OkQ9ro5yA8NuUNClQP-45" value="opcode_funct3 == SW /&lt;div&gt;immsel = IMM_S&lt;/div&gt;&lt;div&gt;asel = ALUA_REG&lt;/div&gt;&lt;div&gt;bsel = ALUB_IMM&lt;/div&gt;&lt;div&gt;alusel = ALU_ADD&lt;/div&gt;" style="rounded=0;whiteSpace=wrap;html=1;" vertex="1" parent="1">
          <mxGeometry x="420" y="599.91" width="130" height="80" as="geometry" />
        </mxCell>
        <mxCell id="U7OkQ9ro5yA8NuUNClQP-46" value="1 / mdrwrite = 1" style="rounded=0;whiteSpace=wrap;html=1;" vertex="1" parent="1">
          <mxGeometry x="302.5" y="899.91" width="95" height="20" as="geometry" />
        </mxCell>
        <mxCell id="U7OkQ9ro5yA8NuUNClQP-48" value="1 / memrw = 1" style="rounded=0;whiteSpace=wrap;html=1;" vertex="1" parent="1">
          <mxGeometry x="437.5" y="899.91" width="95" height="20" as="geometry" />
        </mxCell>
        <mxCell id="U7OkQ9ro5yA8NuUNClQP-54" value="1 /&amp;nbsp;&lt;div&gt;wbsel = WB_ALUOUT&lt;/div&gt;&lt;div&gt;regwen = 1&lt;/div&gt;" style="rounded=0;whiteSpace=wrap;html=1;" vertex="1" parent="1">
          <mxGeometry x="587.5" y="1009.91" width="125" height="50" as="geometry" />
        </mxCell>
        <mxCell id="U7OkQ9ro5yA8NuUNClQP-55" value="1 /&amp;nbsp;&lt;div&gt;wbsel = WB_MDR&lt;/div&gt;&lt;div&gt;regwen = 1&lt;/div&gt;" style="rounded=0;whiteSpace=wrap;html=1;" vertex="1" parent="1">
          <mxGeometry x="365" y="1089.91" width="125" height="50" as="geometry" />
        </mxCell>
        <mxCell id="U7OkQ9ro5yA8NuUNClQP-56" value="opcode_funct3 == JAL /&lt;div&gt;immsel = IMM_B&lt;/div&gt;&lt;div&gt;asel = ALUA_PCC&lt;/div&gt;&lt;div&gt;bsel = ALUB_IMM&lt;/div&gt;&lt;div&gt;alusel = ALU_ADD&lt;/div&gt;" style="rounded=0;whiteSpace=wrap;html=1;" vertex="1" parent="1">
          <mxGeometry x="930" y="369.91" width="140" height="92.5" as="geometry" />
        </mxCell>
        <mxCell id="U7OkQ9ro5yA8NuUNClQP-57" value="opcode_funct3 == BEQ /&lt;div&gt;immsel = IMM_B&lt;/div&gt;&lt;div&gt;asel = ALUA_PCC&lt;/div&gt;&lt;div&gt;bsel = ALUB_IMM&lt;/div&gt;&lt;div&gt;alusel = ALU_ADD&lt;/div&gt;" style="rounded=0;whiteSpace=wrap;html=1;" vertex="1" parent="1">
          <mxGeometry x="707" y="369.91" width="140" height="92.5" as="geometry" />
        </mxCell>
        <mxCell id="U7OkQ9ro5yA8NuUNClQP-60" value="1 /&lt;div&gt;asel = ALUA_REG&lt;/div&gt;&lt;div&gt;bsel = ALUB_REG&lt;/div&gt;&lt;div&gt;alusel = ALU_SUB&lt;/div&gt;&lt;div&gt;pcsourse = PC_ALU&lt;/div&gt;&lt;div&gt;pcwrite = zero&lt;/div&gt;" style="rounded=0;whiteSpace=wrap;html=1;" vertex="1" parent="1">
          <mxGeometry x="885" y="769.91" width="130" height="100" as="geometry" />
        </mxCell>
        <mxCell id="U7OkQ9ro5yA8NuUNClQP-61" value="1 /&lt;div&gt;immsel = IMM_J&lt;/div&gt;&lt;div&gt;asel = ALUA_PCC&lt;/div&gt;&lt;div&gt;bsel = ALUB_IMM&lt;/div&gt;&lt;div&gt;alusel = ALU_ADD&lt;/div&gt;&lt;div&gt;pcsourse = PC_ALU&lt;/div&gt;&lt;div&gt;pcwrite = 1&lt;/div&gt;&lt;div&gt;regwen = 1&lt;/div&gt;&lt;div&gt;wbsel = WB_PC&lt;/div&gt;" style="rounded=0;whiteSpace=wrap;html=1;" vertex="1" parent="1">
          <mxGeometry x="1030" y="769.91" width="130" height="140" as="geometry" />
        </mxCell>
        <mxCell id="U7OkQ9ro5yA8NuUNClQP-63" value="rst" style="text;html=1;align=center;verticalAlign=middle;resizable=0;points=[];autosize=1;strokeColor=none;fillColor=none;" vertex="1" parent="1">
          <mxGeometry x="241" y="266.91" width="40" height="30" as="geometry" />
        </mxCell>
        <mxCell id="U7OkQ9ro5yA8NuUNClQP-68" value="opcode_funct3 == ALU ||&lt;div&gt;&lt;span style=&quot;background-color: rgb(255, 229, 153);&quot;&gt;opcode_funct3 == ADDI&lt;/span&gt; /&lt;div&gt;immsel = IMM_B&lt;/div&gt;&lt;div&gt;asel = ALUA_PCC&lt;/div&gt;&lt;div&gt;bsel = ALUB_IMM&lt;/div&gt;&lt;div&gt;alusel = ALU_ADD&lt;/div&gt;&lt;/div&gt;" style="rounded=0;whiteSpace=wrap;html=1;" vertex="1" parent="1">
          <mxGeometry x="555" y="369.91" width="140" height="92.5" as="geometry" />
        </mxCell>
        <mxCell id="U7OkQ9ro5yA8NuUNClQP-69" value="1 /&lt;div&gt;asel = ALUA_ALUOUT&lt;/div&gt;&lt;div&gt;bsel = ALUB_MASK&lt;/div&gt;&lt;div&gt;aluesel = ALU_XOR&lt;/div&gt;" style="rounded=0;whiteSpace=wrap;html=1;fillColor=#fff2cc;strokeColor=#d6b656;" vertex="1" parent="1">
          <mxGeometry x="707" y="819.91" width="140" height="70" as="geometry" />
        </mxCell>
        <mxCell id="U7OkQ9ro5yA8NuUNClQP-70" value="&lt;span style=&quot;background-color: rgb(255, 229, 153);&quot;&gt;opcode_funct3 == ALU&lt;/span&gt; /&lt;div&gt;asel = ALUA_REG&lt;/div&gt;&lt;div&gt;bsel = ALUB_REG&lt;/div&gt;&lt;div&gt;alusel = {instr[14:12], instr[30]}&lt;/div&gt;" style="rounded=0;whiteSpace=wrap;html=1;" vertex="1" parent="1">
          <mxGeometry x="565" y="716.78" width="170" height="66.25" as="geometry" />
        </mxCell>
        <mxCell id="U7OkQ9ro5yA8NuUNClQP-72" value="opcode_funct3 == ADDI /&lt;div&gt;immsel = IMM_I&lt;/div&gt;&lt;div&gt;asel = ALUA_REG&lt;/div&gt;&lt;div&gt;bsel = ALUB_IMM&lt;/div&gt;&lt;div&gt;alusel = ALU_ADD&lt;/div&gt;" style="rounded=0;whiteSpace=wrap;html=1;fillColor=#fff2cc;strokeColor=#d6b656;perimeterSpacing=0;" vertex="1" parent="1">
          <mxGeometry x="692" y="601.79" width="170" height="76.25" as="geometry" />
        </mxCell>
        <mxCell id="U7OkQ9ro5yA8NuUNClQP-76" value="" style="shape=image;imageAspect=0;aspect=fixed;verticalLabelPosition=bottom;verticalAlign=top;image=data:image/png,iVBORw0KGgoAAAANSUhEUgAAATYAAAHuCAYAAAAV0SDrAAAAAXNSR0IArs4c6QAAAARnQU1BAACxjwv8YQUAAAAJcEhZcwAADsMAAA7DAcdvqGQAANaDSURBVHhe7J0FXFXnG8e/NwiRtsBuMVAELELF7i7sbuec2/7TpbM7Np2uNztR7AAlBBQT7BZUUFEERKl77//cy1URQXQzkL3fz9557nuCU+/vPM/zvuc8Mo0EAoFAkIeQ6/8VCASCPIMQNoFAkOcQwiYQCPIcQtgEAkGeQwibQCDIc2TZKxoXF8fmzZtJS0vT1wgEAkHuw9jYmC5dumBkZKSv0aMVtsz06dNHK3aiiCKKKLm+LFu2TK9cz8jSYuvUqRNeXl549uxD+YoV9bUCgUCQe9iwbg1nz5xm6tSpTJw4UV+bzkuF7eChY1SoWElfKxAIBLmH9WtXM2r44CyFTXQeCASCPIcQNoFAkOcQwiYQCPIcQtgEAkGeQwibQCDIcwhhEwgEeQ4hbAKBIM8hhE0gEOQ5hLAJBII8hxA2gUCQ5xDCJhAI8hxC2AQCQZ5DCJtAIMhzCGET5EhKzDmCdm5i4wYv9gWdISblhQ/CCAS5CiFsguxRRbN7cgecqznToWcfRgzpTc/WtXD1XMYt9fsUNxVX131M89rVcKxuT4M2E/GLVevnCQRC2HIlSdf28vPMyUyfMolpT8rU75kxfRrzF/7I32u8CT4TRbJ++beDigu/jWHk/L1EJz8vYgk3rnM3Vf/jvaDiVvhhwi5e5UbkFc4eCuHiA5V+nkAghC0XksTeWR/z9YwZzJ87iwVPypyZzJs1lenf/Y9PR3jS3rUilas3YswsLy49fAvWU9op1q0IIOHJpo1K03TYF3w2dgBtmjhga6Cvz5WouXdkFbO++oT/ffY505f5EKUS7vN/CSFsuQ41jxOTdR9zfzlqHkYeYu303jRvNJB1Zx7q698MqtgwTl5O1P+SUaLjVH6e8TWfffcjP0/tTmG5TD8vN5LKkRWzmLd4GX/8upj53y4m6KlCC/4LCGHL7SjK0Xv2Cv5Yvprf/viN+dO/YlC7WhQ2fCYsCRfXMa7HaLZGvrmsYuqYO9xPeyIGCoqUKoWx/pdAkNsRwpbbkVlQ3q01rdu0o22HHvQaPoHpfx0g2OcnOpQ31S8k2SiRG/l20ibuZRvUV5EQcZzAPVvYvNGL3f5HiYzLXgg1aWk81TUJA0NDyW7LnrQH1wkP8mHX5nV4bdmG/5Hz3MsUm8utqB7eICxgJ1s3bWTHHj/CrsdKZ0vwISOE7QPFrFofFv7xJc5mTy6hmhvbfmLjpcxR/RQifOYxuFFlqjq40al7T4YO7k2f9vVxtrOjw0fLOHH/WTNOObWITjUrUavLIi6lPhGmNI4ubEvNqhVwqNGMRaGP9fVJXPX5kXGdnKlcoQqNW7ej74ABDOvfnS5NHbGv6ECf7724nlng0k6xtF9D6taww8mpDr3nHpScx+dJOvYDnvVr4FS9CvUa9uDPsFfpKkkhdHZ7alWrxrgNV6UzoifZjy9dKlFDu//V6zM78FF6fVwYyz9rg3OlyjRp14VBg/rSv3srmjiUoUaDwaw7l5K+XAZiQxYxUDq2WjWdaDdsMeFvI74p+NcIYfuAyVdtACPblX1mSSWfYO/eiGcNWmro55YPoZ3nN3gfv0lSpjaoSYoiaPkndO74FSH64RLJV05z8toNou48eE5sUuJvE3XrFrcijnL6qnaOigu/9qVZ1/+xcv9ZsjL+0uIvsXv+APpM3Elcxqhh2k3CDp3kSkQkkVdOcfjYVUk6nyf1ehjB4ZeIjLzO5bAgwiNepRs2jSvhp7h+8xYxiRm3mMT9qFvp+x8ZzqlLD6UDOsuSfp359Nf93HyUeahIKnfCNrDpwK0M51LLIw78uoRtkjV6/do5QtbP5M8DT+KQgtyEELYPGjPqujqQT/9L2yDPnwx7Kkgpp5YwduImbuktL6WVPW2HfM6nn42mvXMxnnRsJoQtYcLcQN3wEaOSFalctDAFLPOjTJ+tQ2lqTYECBSloUw270to1U7l88hzx2k3L8lHCqTW9Rn7O5xMmMKy7G7ZPY4CpnFuzmG0334Vzp6RU5fIUKVgQc+OMt7YhZtYF0/e/iB125Uy5v2sRi/xv6eXWiNJuffjof18xfvQAWjqVJJ929zM9CLRinvg4g+WoSeRhonBacyNC2D5wTMuUoojyiYhoSJAskzhdnC2OnUt+48TDdJtDZu7GJG8ffpv1LZ9PnMkv27fztYet3tpL48zGlQQlajB0GM+201c56T2eCgZPtquk1rhdnL50nTNn/RhXWyulBlR2aYhb209Y6nOaw/vWMX/qt3z6+VdMXrqdVV/Ul+REz+NTHD+RpP/xNjGk7oTdhF+8wOLu5Z7d3EYezDp6lbPa/T8XzAR3JReOhROnFy65bXfmrPmJr76YwP8m/8hf+8I5tHctn7QulqmB5KNK9fKSDOoxrYlz9WePFUHuQQjbB47c1DTdutCjSnlMklbLEoPY6RupNzpkFG81kp7V8ut+6TCsQPee9XlSo4k5xtHzL8aUskdBac9FbPx7Mp1qFpF+ZURJ2To1sX0iuJp47t1/F8L2qshRGiifuvDqe4fZ438jQ4eBEhun5tQumXmwnhLHzzZwYOcm/lyxkV0HvRhS+al8C3IRQtg+cNSJiTzO4DIpDI0xkK5qytVwzt1/EmeSY5J2lW1rVrEuQ9lxPg6jJ61bdYfoqFeJY2WNKiGKs4f3s2frRjatW83mwCskaZ7tmCrtn2/7zaOkYq2aFHiixinn+Ll3Lep3GsUPXkeJydgdnBm5BeXqNqdV6xY4ljTTVwpyG0LYPnASr17jdoaGmK9AISzkMtKib2cY+qHi/IYvGTNiCKMzlHFzdnHv6apppL12uCiJy7vmMrptTSqWLU+D5m3o3bcvw4cNZux0b27n4vCTeeOx/K9NWUni9KgTuLj/TyYPbECdOh2YtukMT/p+BR8eQtg+aBIICjieoQEqKVWpoi4GpJFUSpWxS08ul/7LpiiUGNvUo3bVp9GjVyCZsKW9adPrG9YFXiAhYyekbrsZ/OPciKI0vZdt5bcvOlHRImM3iYaEK/tYMLQtH6+8nKlXVPChIITtAyb1wgp+2X71WeedvBh13ex08S65WX7yK56IixLXrw9z614C0VmVmDgizmygZ7lXfwFUdduLWbP2SlZh+u98ZdvyzQo/jl27r9vmtd2fU+5pp0ZmZMgyzFKrUl8Y7vFOMCpNy/8tx+9ECH9NH03jStbPGoQqmi0zF3Aoo58v+GAQwvaBknR9GxOHTCMk7plNYVilK511PZbSdKkyFH0qLCqunzv/Rl2rpOPBHHuglyOZFe2++onRrZ0pbmGU800lM8bI6NlSSTcjiHw6GFhCHcW+fcff3NdLNI95/Dh720thWZmWw2ey2t+f2W3LPN1/ddQJTrwwfk7NoztXOH/+KvcyDwwU5BqEsOV2NA+5dnQ/fgd8ObBvB96rfmLG2I40aNCTv8Lu6xeSUJSg5/9GUEXfG6CwqUOdik9eudJwc+dilocl6H8/T9r9i5yLyHpedqiTkzIM+FWjSstgc6nvEuTtT1R2QXhFYWysn/UmppxdzbItV9PH3z08z7pPujFu9dkMvZSviwyT/MZPez1JPUvIwbvpbmVyIo9VKi6s+ZZJfx0iNuMraIYlqeNcKkOjkCzL51xqFed/8cSxij3udatR3bEnGyPei60pyAEhbLkd1QX+HN2Jrh3b0q1rVwaP+pR5f+/halyGZi+zwHX8L3zVxubZBVVWoVsv12fDOeKDmNS+CYO/nM2fq1azftXvLJs9kY+616dmVUc6TPRG/6LRK2FUrhwln4xz08SxZVI/vl3yJ2v+nMv/ujSm3w/B2W9PWRonxwxjxFSRrB5WB6daTjhXr8fov47x6F8ZQ0pKlir6bAiK5i7rRtXBxdWJGhUrMd7rLuf9N7Dk46bUc+vCxNlLWb12Bb/PHM2oRYFP3WJ50ZrULJEx/vaYY/5HePIGWmqUDz6HX+esCd4VQthyIRnjTzlhWKQOg3/YyYoJ7pjr69JRUL7/FCY0e2aBqB6cwnvJd3w+ajCjRo3h62kLWbPnKLeT1Kg16mexulfAsHI3ejd4MsBXauQ3/fjpy1F8NO4b/th/mWTDYpQtYaKfmxljXPv3xsE0w+2nfkT0pXNExGodUCWlW42mc+Xs1s8JOcWatsTJPMP2U+5x5cw5ouITSXyYiqlpPmnfVdw/u4tfp41n7PBhfDHjb07ee+JeF6Tlx6OpZZzxYshQPGfBKVA8P4BPkEsQwpbrMKRyHQcKZDQU9MjkSvKZF6ZkJSc8Og5l4uJtBB3xYVqvGk8ts+cwtGPoH5v56aOWlDbLrgUqMC9Tn7493DO8miXdGGY2FC9oorN6FCaFKGbzvGxqexUH/PgrHzcq82wkvh6jYg0Y/+d2prWtgPbNJpmhNQWtnh/IalxtNIsXDqGaZaYDNbShwdi/2fDzSJxLF8RAUnmlWTFsng4606LAulhxrHRxOiX5bUpS2OT5p4GyTF+mfd+FUhlHL2tRFKNcuYK4DP4cz1rFn70dkQGjIrXoN38jiwZUyNRA8uHSuT1VCxgjVxhj49SXLvX/qfgK3iYyjYR++imdOnXCy8uLg4eOUUEy3QUfPqq46xwNCubMlRvce5iC3NiCwsXKULG6s+SeFc6ygb8ayUQd92X/oTPceWxAwXK1aNysLrbPWTrZk3b/DAd2+3PmRjyGhcrj3KQFzsXfnFgkRhzGZ/9hrtxJRGlelMouTalvb6N/TzaFO6cDCTxyjpt3E9CYFKBEJWdc3WpQ+OnIZUFuZf3a1YwaPpipU6cyceJEfW06QtgEAsEHiRC2D4j4uDgePxYB6Q8NM3MLTEyEW/ouEcL2AaG9UNoLJviwmDxtJsNGjNb/ErwLhLB9QEz+7mt27tim/yX4UBg77lO6e/bS/xK8C4SwCQSCPMfLhE0M9xAIBHkOIWwCgSDPIYRNIBDkOYSwCQSCPIcQNoFAkOcQwiYQCPIcQtgEAkGeQwibQCDIcwhhEwgEeQ4hbAKBIM8hXqkS5B1UURxcuZKAyESepDKQyRQoDfNhVbQc9rXdca5QQPfxzFch8XoAXqvXscP3EJdu3CY2SYlVkWKUq1GfZp16062ZXdYf+Hwt1Nw/vomVu8+jLlafnr3cKJQpz8Kt4NWs23+FJIUl1Vr2pFX1gtlbJHFhbPxzG1cpT+uBXalsls135R5dx3/TKjZt28ux85HciU3C0LIwxco74Na8M549WlI2u3VzCeJdUcF/gqSjU2jcYgYXs83kno8yHkP5ZsZEWj9NdJMF6hgO/vgx42Zu5lq2yRcMKdnoUxb//D/qZPW541cmhcAv69N1STjqgj1YFfYrjTN+9TflGN95tGTJmYe6nzKL+szavYV+lbL+NGjSke/xaDmLy1Thi30BfFIj8/eN1dwJ/pHxo6ex+0r2CXyMijfi8yW/Mcq9cK5168S7ooL/BinJ6ZmuMKJCQ096ePamR49utGnegKq2psh4zNX9CxnSoT9rLqbolnwBdSx+k3vQ+zsvnagZ2tajz1c/sXpHAAcCAti86ie+6N+E0qZpRPjOZv76G/oV3xYpJKc8Sx2oiQtg7uQ13MmYXeuVUXMvcKpkjX2VLmoGNrj0/pof1+5hX2AIe7ZtYP6Xg3Eva07KDV/mzVrL7X/0d94/QtgEeQ+ZKXUHLWDRkmUs+ukPfl+zg/0nTrD8kwaYS8ZQWtQupn6/lpgXGq2a27u+5eMfQ0jUyLB0HMva/TuZO74vjes5UqWaIy4t+/LJ/C34BaxjTMMKmJv8G2vtdVBQonw5SbI1RO+axY9+cfr6V0cVs5tvRy8gPF6FzNyR8esC2PTDF5JL7Ur1qvY4uLak16cL2XgwmN8/aUZxCxPe1dG9afKMsKkTIjjmtx1vr60EhN14pVRyyXfPEbLXG+/NW9kfcoo7L02AqyYh4jj+O7zY4r2dg8evkaDK4WmWfIdzIXvYtmkdXlu2ExQeSeK7fAI+vM7hXV5s2xPMtbis8l/+g2NKvElY4C62btrA9r3BXL7/xtIav10MbWk2cTHj3ApJPzTcPrAZv9hMx5pykmXT13FTcmVlFo357rdJuBbJOjt+vtIt+dorlJ/7FtfXvG1kFG8/gvYlJddSdZUVU5dwLmOS6RxJ4diymWy6nqT1Z2nxzR981rBo1gJgXJrWX3sRsGJQpnjfh8MHKGwqrqwYiluN6nSZcZDUtJvsndUbN3t7WnToxuCBPejcoCrODYezNixev87zpEbuY3Y/F6pVcaJdN08GD+hB95Z1cKjkQN/vN3Et+fkbJjliF5O7OWHv4EaXXr0Z0q8bHRtVpWq1RnzrfU2Sh0w8PM+mST1wsatI/ZYdGThoAMP6d6ND/SrSNloy8a9Q4rIUuDROL+uDa40qNBz4CxFZxYrUN1k9yg3n6g70XnhEXymhimD5MBeca7oxwy+R+ONL6FHPmTaSOzawexOaDv6DexkS7L32McWdYvWE9jjZVaZJ284MGtSPAd2aUK9yZVqP+onjT5Jt5mYUJWlQv2K6FZIUwdXrz2d5Twhcycaz2riTgip9PqNL6axF7X2hNnJh9IiGug6Lh8d+Yu7aiBevU3Y8OsjKdeG6nKnK8n0Y26tcnnbXPsBj0xB34xJXIq5w4UwAS/s2p990Ly49NqV01RpUtDWTDiqNmJPLGddjOJsjnr950yI2MrpDT2Z7nyQuTYlFiSpUd7CntLUxqvhL7Jo/lElro57dMInBTO01iB/2XiC1YHVa9BzCkCH9aONmh1FMKBu9j+rjOnriDjGjeytGLNjKpQepGJgXw66GE9UrFSW/Qs3DyAB+HdeWXlP9eFF2VcRcO8/liOtcPHuNB1lphTqByLOXiYi8xLlLt/WVEpo4Is5dJeLaGS4cXcXoPl/ie1ODTUV7KtiaSutlEMnXPaYHwUzzbM/HS/cRmVYIp1Z9GDB0MF2bO1JIc4fQVZ/RvesUjsZnJdZZkxodRsC+3fjszbn4+p3gbrYdAq+HodGToLt0hZ/bZArH9wVwR3vOlRVp3aHWv8jc9XZQS+5x+b6f08tOup6a+2yfM4vAB68mbY+P7+PgrfScrVXbdKLGK2YR+1D5gEVbcie2T2XKzkhsGn3BukMXORwYRGB4OBsmNMVKF0vZysy5e0nUr4E6itVffsnmK1JNPjv6LQviZFgo+/aHcPj8efb8/CnuJY1RZ3DHYrb/zMpTD5CZezBzlx9/L17A1FlL+H3rUY4Fb2HGgLr6VG5a4tk7ZSyLgqLRyAvSYPwaQs6ex/+AP/tCLhLm/xs9qllJu57A4UUfMd8/a4vy35GC/6Jv2BNTkt5LAgg9FMLBM9c58nsfCujTG7/eMcWxZ/JH/BAcjbyQB1O2hrJz5VJmzlzI4jV++G+ZSE1zOQ+OLeCbJUclaX4VktjxXQ+6dO2EZ7ecS49O3VgY8Fi/7r/hEWdPX0vfR8PilCyRYeCH+jbh4bd082TWjjhVyW2yJqGRXGST2oz6vIPkIkr39/U1zF52/PmHUJaoiQ4/zS3tw0FmRU3nqq885OVD5YO2RjXSw6pYqzlsWPUVDUvrMwQpCuE2fj5jXAtKP9Rc2bGOwPj0p1rKuZX8seeGJImGOI1eytRuVXmaV0hZkBpdJ7Hx0Hl+6vsk9pDG9UtX0TYpowquuJR83jUxK9+YNq7Fnp5EVcR6flp7WlpLTunuC1g2sQ0lMiTyNavSg7m/f0VdbYbytCus+3kL9994zE1DfFwKzmN/ZmqPyvpkxsZYWDxJh/y6x7SBpevPoZKZ0+yLHxjsbK2fo0VOgXrj+aavvdRQJItnwzpOZnLjs0ZJ8Sr22FWoQLnyOZfyVZ2xs/33YexH4b/z887rOkPNwqkpLtYZmnfaDSKjk3SThrYlKJYbo+a6kVlybNt9xkjXItJ0EoeXTcUrIqv4aUbSuBEZne6FKIpRolTucrHfBh+0sMms2/L9okGUzZzcVlGK9u2dda6EJvYEx89pTXAVEZLldD5FujkMneja0yFrV8M4PyaKJ9uTSYJgrrNzki8eYP/F9Bs/a6Snos9uQhOk20dZBc/hrbDOIvBqUMGTPo2KStvUEBPiy9E3YYhkwrDiQL4dU/u5zO7PeL1juu27lyPaYzJ1pX2HUlncMEY4uNXGWtpgWuQJwm+/is2mxOmjtfgdPkFwaM4lyH8Vve1ex4LSSA+9VFJSUqTyiAc3wtn7y3i6df2OUO1DzrAS/T7rTXFlhusjufgPH6YLhMLUHNPcbNIoytPvy/5UNJDuoti9LJi7O4uwRkbUJMQ/Shc2eX7MzPK6vfahC1s+a6zzvyge2sMqWMUOW+2Nq7rJtWvaMUupXDh7TXp2Sc2qqD32r2QBKCjdrBVOkoWliQ/k63Yt+PSnnVxNyKrxpnLq5AWdWyAv7IxzxewaoikOThV1roAm7hIXI3N2JF4POcVdm1LDNKvzouX1juns6YuSLSatZaLi6s7VrFuz6oXifSIKufZOUsVw+/abPp5/gOY+K/oVp3gRK6kUoqJ9XXp9vpTDt6UjyVeOHnP+5jN3S/3Cz3hqa0quwLvsvP4nmNYayfjO2g4ANZfWTuPPsByekE/G4X8Ax/Ym+KCF7WUoCxTCUnd0qdKTWBtlS+X+vQTdzassUJgCr/jQUlYYzPx5g6hkJict5gh/T+yCSzUnen+xlJAbGa2dFO7ejdM9FQ0K2VAk2+0rKFykYHrPnCaO2NhXsXDeLK9+TCru3Uk/JtXtPcwcPZTRI4a8UMbO2Eq6oaZCpTMLchlyI6xKOtCs33es2B/Aoj7V9C56BuRmmOZPf9ilxT0gLjceR0bkBWn72WjqWko3WvJJfpmxmii9Yr34SJNjZm6S3tg18Tz4EHqw/yV5Vthkkhv45ODSL3QaqiedAnLFaxy4knKdF7ArwJtJAxtT2lyBKv4ie5aNp4N7C2bt18cutI36Sc+dTM7Lhv/IZDL9PknLvZcr8KrHJDkx+ie93MqRLsNGMmR4dmUUY7+dSs+axrrlX46aO4dXMH/GFGZOz7nMkiys46/zAJBZ0W3pOc5cjODcFclij7rH+ZMHWbHgM5pVstAvlAllMUrapu97yo1LXH/pmMbcgbJsHyYMdMRAelzf3jOXJbpBu1ndeEqKlbRNv+fTIrl85S3EP3IZeVbY0mJiiNW1TmPMLbXvBRpJT+R09zAtLjbroRQvIX8pD0bM9SYk7BC/f9WV8pK1o34Qyrwx3+Gv63I3xMw03Q5QPZD+drbbV0uWY6zOJUZmTaHCGV1iSfD0oqdRq56Ky9si52NKf9LrmoqpA32/m8XU6bOzKbP4ckwbShm+RNGfkkTgsslMnzmdubNyLnOmT2Jt6MtigZmRY5TfioIFC2BtZYnJq+yT3AZ7+6K6EAEJhwgIedqXnosxptaoz2lfXDto9xqrZ/3CFfWzB/oz5NjaV6WoLqb4kFD/IF3nUV7mwxY2dRpZD75WExV2Kr17W1mK8uW1gqOkeKkiuhs37eYZzr+usumRW1Smzfjf2biwF4Wls6eO8mXfcW2jM6RkWVudi5kWdZrT0dltP5GTJy7qhE1uU4UqmWJ9Rsbp4qh+mEBCVsemSuRh0j/b9+zI/pgMKFO2mO6cqe9e5vIbc5uNqNmhL57de9ClW86la6/BtLR/wXl8wxhSs1l9bLQdR+podq/ezr0PIBglt27O+LFN0H6II/7wT/zoG8vTvq8M5KvZFHetAEpt4/quVfjcyakn9cPmgxY2ddRGZs70I+5Z2DedtIts2hSqC3rLbWtTRxfIN6RybUdd7512gOqWzVmMrpdIOLMTn9M5vZAlp7BTTUobSKdP85jHidotKalcz5lCWhVIDmXDmjBdR0JmVJFbWLMnUtpjOSU9WuHw3EBJJUVtC+kuivpOGKeuZd5CHAEz/8ffZ9+GNZHVMSko61aXktonfVIo3l6X35AVqaBM2y9ZuPQ3lizLuSxeNIEGb2C4R06YufWlW3Wtq6rhxtapzNpx8yXHq+ZBuDfbj97X/35fKCjX5wv62Uv7rb7Nll836l4JewETN/p6OulGAmjubGXG5O3cfYlwq+PC2ep9OIfe1tzLBy1s2gGXRxb1ou8327jxZPyU+gEh8z/lp9BY6YcS+y69qKUXD/MGXWldVjtyLRHfOWNZdvhehhs3nlPrPqNT614s2KFvwOoo1k0YzEyvcBKeuwlSuLhjL2e1X10wKI9d5XRrIr9bb7pW1TaMFA4vGs43XhfI+CZl6i1fpg7/Ft/70tMyvxMDhjV+No5Oh5wizk6UNZD2N+0Ev01fzXXt8BQtKTfZ870nAxcEk/RvAnOveUzGTp70qFVAmnrEgdkjme9/K4vGnkz0sW1sCXyNV3xyI0p7hn83gPLa4UNpV/hzZGc++z2Ee5mEIjUmjI1TPWnaoi9zNp/V175HjBwZ+UVXbKWHauq9u2T9AogSh2Ff0dvOTJpO48LKofQc8wsnYjI9PNNiOLlpCj09mjJ8ykYuv9K4xNzHBy1scvNyVLB9TPAPntSv5U73Xl3pWN+JztN8dRfXuEJ/vhrt/GwUvYkLH3/nSUlJONQxB/i2dQ3qt+rMgD5daFunOs2GLeFkXH5KltIO7pVQ3+NS8HbmDnTDuU5Lhoz9lO+++oTRXd1o+9VOyVVUUrbzGDqV0VsThg58NGMMNcylO+zRaX4b5EKd+q3o268nfdq741y7Az9q30pQFKHF14sYVPVF98qwek/6NbBF2kMivEfTpG4TevXuRKs6tek73x+Z40eM65jVeLJX5HWPSVGJwdM+oY61As2DEGZ2qkXDjv35bMJEJn01nnGDO9O8ZjkcG3fni58PPifkHyJW9b/i5xmdKWYoQ5NwiuXjG1OzijPtOndlYN/udGvhTA17V0bM2cb1ZGuqVi+tX/P9UrCZdC2aFc/QdfBs6ikW9fnmt5m0KJlPMtsecnLVOJpVq0D9lu3o21e67zo3wbWKHc0GTcf36iNsqjlQ/AMdy/thW2xm7kzZ+BdD6hYlKfI4+3fs4ODpaMkFVGJbZzhL186kgXVGF0ZO0TazWLV0NM5FJFFJi+VC8C62b9vJoQt3kRdypO+cjUzrYpN+YpR2dB3liUNhBbGXAtjy908sWbyMdftOE6d9NaXnPP6Y1ZECGbpAzev9j9XrZtHRvjBKyaW7Fe7HLu8t7PY/RpTk3pmUaMiYZdtYNqy6zi14AUVpBvywmBF1i0lHoSbuagh7t+/myPUUyrebwpp13+JewhoDuZG+U0SPzARLy3wotEMbrLXfHsuGf3BMpg5jWb7xBzxrFcdA9YBzB9bz19KFLF68lJUbd3H8WhzGJd3o1qH2i8Mo3iFyUyusTJTIjQtSwEIbE/gnGFOt/+/s2DSLLk7FdNcoSfsVGN8dbNu6jQOHzhKTbETxOj35fp0v87sWS1/tHyPH1MoSY4WcfNYFdLGy55Dnx9rKBLnChALW+bO/roqS9J4+ne72haT7RoaxrT2VbV48ByZV+vH77s1861mHQtpOleS7nAvxYdfWLez0Debi3STyFatDr+834r20xwf7dY8P8Au6aRyf0YzWMw+hLjaATUd+wMUwnov+OzlwMpJko4KUc2pMo1olX97IkqI5ccCHIxdvSY6pGTblHGnYqBZFsno5WFo2zN+PY5ciiX0kx8ymHA7uHjiXMtcvkAXqRCKO+nHw+DmiY5ORmxWmdNW61HetglXGEe/ZoYqVBGQnAeERPDIsgp1LC5o42OoC+W+Ef3JMWpcz3J/A0HPciElApTTB2qYMdg61caxi+15F7e2Qwt1zIQSFnuJ69ANS5fmwLloB+3puOJa2/MCtAunoYs5xKPAQZ69FEZ8ix8S6KOXs6+HiXBazrHogchl57NPgWQhbHv9SgUAgeBHxaXCBQPCfQgibQPCPUXM3fC9bt2zCe/PrFC+2HThF/AcwTu5DRbiiAsE/RX2TpR3r8o3/PxjLlq8Vv15YSztTYVv8U/Jc+r3YI3+zZGM4lG7F0CENP9ieG8GHTjInV89g7fEHr/nFDBkKaxeGfNaZ0q/SkSTIEpFXVCAQ5DlE54FAIPhPIYRNIBDkOYSwCQSCPIcQNoFAkOcQwiYQCPIcQtgEAkGeQwibQCDIcwhhEwgEeQ4hbAKBIM8hhE0gEOQ5hLAJ3iiPQ2fTtlpxyldyZfLe953o5N2QGh3Cn9/2p4NbVaqVtqVcmXLUadCaMVNXEPYfSE6cGxHCJniDqLlzPJhjN2OJv3OKkKMR+vpnqG75svjLT5j4/R+EZZ115ANCzb2g2XRp0IrPF60n6PQ17sTFk/AgmqthB1g7ZxitPXqz9lzeT1Cc2xDCJniDyCni2oZWtapRuWYL2jUqp69/RtLpbSz5aRm//vAr/je0CRI/XFQ3NjB+8DSC7ySjLFyPYXPWsiPgML471zNtWEMKKSE5wpsJI2YT/gFkls9LCGETvFGMqw7klz2H8PNdy7Da2lRveZVHBPw4l91Rkjjnq8lnKzYyeVAbnKtJ7mjdVgyesY7fx9XT5YF4ePJXlm27m76a4J0ghO29oSYh4hj+2zfhvd2X07ce6utfRjJ3zgXjs20TW7fv4fCZqPec7u4h1w7vxNt7J0euxEpH9BZIvElY4C62btrA9r3BXL6fSxL8PfRj7ZYLqKQmVKrj/xhaS5tPNiP5cR4yDA9tljTNfQ5s8yVBP0fw9hHC9i5QXefvIfVwdmrGgpDHpN7wYVafujg4utOldx8G926LR43KtBjzG2cTsnJZ0ojYN5v+bhVxqNcEzz59GNS7I21cK2FfqxMzvS/ost6TdopF3ZxwrO5Ar/mhWWSiVxPlPZ7GNStTt/GnHHiQhRRJ+7p8mBu1qtvTc8FRfaUWFVdXDcOtRjXafOtDUsJxfvSsh1vzLgzu14VWbv3ZcEdNWsRqhrlVw6l2J34LfyJCKi7/0Y861SrgMmIl97WHmHaahZ2qUaNqBalUpG6X+VxMzXDscadYPaE9TnaVadK2M4MG9WNAtybUq1yZ1qN+4vh7Dso/OunP4bvSGZZZ4d6iviRjL6IoUJ/6DpbSlIb74Uc4/4EmH/4QEcL2LtDEE3nhGhFXT3MmcBn9WnRjzrbTpJiVoop9ZYqYKqSGfp9jK8bRe8xKbqkyNgBJUDaMoXPvSew4HUOa0pwSVWpSo1o5rIzUPLi0m7kj/8eWO2mgtKGAUTw3Ii9yYK0XZ15oSAkEeG3j1LUIrhxfj3dAvL7+GaooHzZuP8n1yNsYW9voa7VoeBBxkSsRV7l48QgrR/Vhyq6rGNhUpFqlopjI1DqLTR0fyTnpWCMvh3M15on4aEi4c4vIm7eIuvdQOiItqcTdln7f0pabRETc5uETnX0QzDTP9ny8dB+RaYVwatWHAUMH07W5I4U0dwhd9Rndu07h6Gt0PqRGhxGwbzc+e3Muvn4nuJsp+/vzqLl3+jzR2uukKEflqs/n83+K3Ao7u/SUiWm3I7glhO2dIYTtXaKJw3v6V+y7bUnT/60n6OxpDvgf4fixXYyvXxSZ1OQjt07mB584/QqS0Nxax9cTVnFdahT57frwS8AFjh4MZG9AGKdOBfHj2GYUU6r0n6a2xqOxM/mkqdTLBzhwMVNw/tFhAkLvSjIjIblHB32CM7myau767edEoqQwJrVp0qSIvv554g4uYur2W1TssRSf48fwDbnIuTMr6Fg4u9tJicP4TZwIP0fQst4U1H4NW1mNT7ac4ljYOamc58TeSdQ00s6IY8/kj/ghOBp5IQ+mbA1l58qlzJy5kMVr/PDfMpGa5nIeHFvAN0uO6kUyJ5LY8V0PunTthGe3nEuPTt1YGPCynkzJgo6MTne9jQtjWzi7bK8KbIoWTk9ynBzNrWjp4SN4Jwhhe6dopMZQmHaztvLnF60ooU9Coyzkwvj546mVX7oc6pvs3OBDom5OGmdW/oFvjNQgDKvz0ZJ5tLd7FpA3KFidbt95EXx6NV2LaDPeyynSuAkO2u2kneHAvivpjU9PUlgAh29LYieTSY1NTWTAPsKfsyISCPQJRdukTR2bUb9I1g1WHf8Aqo/lhzm9KKs/BmMLi5cnTFaaUbh4CWytnmQzV2JasCjFS5SQSnEKW6SvrYrYwNL151DJzGn2xQ8MdrbW1acjp0C98XzT116SjBSOb1jHyVeygpQUr2KPXYUKlCufcylf1Rk7W+35zA7JUo5N0J1bWX4L8mebXFiBpaWZvpEl8+ixsNjeFULY3ikybNpOZc6Ayhjoa56gLN2ets5W0pSGOydCuahtsKobHDhwRpI3yO/cjS72WlvsRYzz5396IRVFG9O4hjauk8pJn31EP80yksYF/xDJtZNRsmlrqkvWUVqEP35nMlh1icH4Bt+W9sCAmk2bUzS7BqusyKDJ46iRP7sG/U9Rc9t3L0cSJMkwdaV9h1JZ3KBGOLjVxlr602mRJwi//So2mxKnj9bid/gEwaE5lyD/VfS2M9SvmxVqUpJTdZavTGHAy/KxGBgYpAu5JonkxxkfM4K3iRC2d4oME+sCmOhtlueQF6BKFX08JuoqN7SB9NQLnL+itd0UFLevic2rZDRSlKBx4ypSU4aHJ3wIuKNv+OooAgPPkSZZQnW7jMWjsmT5pV3Az+eizvLQknjElyBtQFxyExs3LZPtzSEv4oqH89sYypHK2dMXdR0hChMVV3euZt2aVS8U7xNRyLU7p4rh9u0Xu0jePnIUSrnuKmrUKp4LiWZCOz99tjx9nwXvBHGqcw0KChSySpe8lIckPJLkJjWWe/FaYZJhXaiQTvRyRkGFZo2paCBt6eEhfA+kv9akuX+Qg2GSC5nPCTf3mjR0LystmUb4gX36zooUTuwL5LY0bVi5KR7lM9uU7wIV9+7E6YRWdXsPM0cPZfSIIS+UsTO2SvuZvrzqvRhBMoyNDdOFLTkpvUc6G5KS9XNlJuTXdhIJ3glC2HIRctmTy6G3zNLSJGtA/7xXvPqlMqzYhAbltT11CYT4+OvidfEhARyVRNK4iit1ChpTo5EL2ph34glfAu9KKpF2jv3+VyWpUFK5SYt0YXwPqJ8cr5UjXYaNZMjw7Mooxn47lZ41jXXLvxw1dw6vYP6MKcycnnOZNedvjse+zMVVYFXAIr3xPLpH7MPsTDYVsffj0y1iZUEK6+KggneBELZcg4qYu7Hpbks+CyzzS6pjZIqprqdQQ1xsrLTEK2JYjaYeWotMw+2D+whNTOKY/2EeaBSUd6lPccmlze/sQd0CklWWGMp+yapLvbIf/3MJUpstRcOm1V/ROnzTyDEz1zvqpg70/W4WU6fPzqbM4ssxbShl+CoCnETgsslMnzmdubNyLnOmT2JtaJJ+3ayQU7y4TXrjUd0iMiI7dziVa1du6q6bvHBpSr3xmKQgO4SwvWNUqelB5xdQ3yY8PL0RGJaoIDVYaUJZghK2WotExY0zp4l75XTjhjg2q08RhUzarB/7Dx0nICgStbwQddyqp3dcmNajYZ3C0kQCh3z9ueh7gLMpGhTFPWjySlbQP0PbtGX69v1iqm4DypQtphNV9d3LXH6p1fQ6GFGzQ188u/egS7ecS9deg2lp/7I+XjmWFctjq415pl3l2NHbT+OUz5FyhpCj0brrbW3vjN3bO62CTAhhe6eoue41jQUBMfrfz0i5sInNR2KlKTklartQXusKGlaitqONTgwehGxiR0RW46AecnrnTs5nGkpg4twENxtJHdU38f37J/wvPgSz2rjWetKzakH9RjUx1lp1gev5YcdRkqW/XcqjFQ76IRxvBSMDDLTKpkkgPj6zHCgo61aXklrBSArF2+ty1oLx2igo0/ZLFi79jSXLci6LF02gwUuHe0hGdY0G1CmsfUQkE7JxDVczvjWhJ9Z/FVsvPJKU3BzXlo0wexJiELx1hLC9axJPMK9vF6btuPI06Kx+EMqCzxZxQjscQFmJzp7uks2lJT8NerSmlLahPwxgzrj5z8d+4s6w5rP2tO8/lX3XMrlD+evR1M1Wakoqzm/14pRkjZnXrE9t8yeNS06RBg2wN5KjitqB18F7UgMsRP2mdV8+Hu1fYlDEloJak0wVQZDfuRde+zJ28qRHrQLS1CMOzB7JfP9bWYhbMtHHtrElMOINCd8/IH99PDvpe59DF/D5HH/uZ7CoH55fw/+++IsbKg0GZbszsF1R0djeIeJcv1NkWJSzo0jiERb0roNLo7b07dkajzrNmROodVkMqdJ/MoMdn/kspi4f82V3O6kBaYg+MIk2Tk606+HJgB7NcXF04aNfQ0gwLUnJgpkvpRluTethptUxtfZ1JyWVXd0pKH9mNShLNMCtsqk0Jc2XFEJWoD5N3N7uFzkMytTHrYL2b6YSOrcjLbt0p28HN2q6/4+j2rF7ikoMnvYJdawVaB6EMLNTLRp27M9nEyYy6avxjBvcmeY1y+HYuDtf/Hww05sT7xJj6o79lh7aY9HEETCrLXVrNcKzd0/6tHelbsPBbL4sWWsm1Rg55yvq6C6E4F0hhO2dIqOA+/es+/1jahVKI+K4L7t2HuDsHal5KgvjMvwX/p7aAssM4oO8CO3nrGHRMDcKSe5pauxFQnZ7s313IJfuQxHHPsxd9wOttR//yoS1RwdalraQHDEZSgsnWjSt8PwFl6zD5q0dsTCQauXGVGjdmXrm2d0SMvJbWGKskJPPyhqTbNqp3Ngcy/xK5EYFpH+zWMjQgRHfD8feQjLb0u4S5rONXX7HuUs+8un/tKnDWJZv/AHPWsUxUD3g3IH1/LV0IYsXL2Xlxl0cvxaHcUk3unWo/Vaty5xQFGzG9HW/Mdy9pLQfKh5cOYzP9i3s9j/BnSQwL9eab1ZtYkLDgqKhvWNkGgn99FM6deqEl5cXBw8do0LFSvpawT8mLZypjZuxMOwhZQdsxH9eM5RxF/Hf6UP4rUfkKyRZIB5NcSyezcvUeh5Hn8Df9xCXouORmdlQ3tGDBk7F32vj/qck3z7BPkmcL955LB1/BWo3bU7NopnfrJBcznB/AkPPcSMmAZXSBGubMtg51Maxim0uOu4kok4cwF/az1v3HyM3K0wZexfqu9hhme3rVoJ/y/q1qxk1fDBTp05l4sSJ+tp0hLC9C7IQtpe9sCMQCHLmZcImLGSBQJDnEMImEAjyHELYBAJBnkMI27tAWZKmg0cwdPhYhnasphv7JBAI3h5C2N4JFtTu8w1Tpk9hoLsYqCkQvG1EGxMIBHkOIWwCgSDPIYRNIBDkOYSwCQSCPIcQNoFAkOcQwiYQCPIcQtgEAkGeQwibQCDIcwhhEwgEeQ4hbALBS0kjKvgvvhvUmgY1ylGhlC2VKlejSYdBzFpzhNhXTrAjeJcIYRMIskMdS+CsLjRuN5Ilmw5wNiKauPh4YqOvEua3hjkjmtJywO9cThLiltsQwiYQZImaiPXjGTZzLzFpCmzrDWX2ah/2HwzGe+VCBrqVQEkKV7w/Z+yC0Jdmgxe8e4SwCQRZ8SiIH2dv5a4aTGuO56+18+jXoi5Vq1SnbqvBzFizghEOltKCSYT+uoi9999bvixBFghhy/WoSYg4hv/2TXhv9+X0rYf6+peRzJ1zwfhs28TW7Xs4fCYq52xOyXc5F7yH7Zs3scsniPO3H+tnvIxEboQHsNd7A1u27iL0QswL6fReijqOq6F72ea1mX0h53mQlntcurgDa9l25ZHUQmzo8ulYHDJnmcrvyJDhTdFmM9Tc92WHrzYnrCC3IIQtN6G6zt9D6uHs1IwFIY9JveHDrD51cXB0p0vvPgzu3RaPGpVpMeY3ziZkJQJpROybTX+3ijjUa4Jnnz4M6t2RNq6VsK/ViZneF150mdJusHd2X+pXrkD9Vh0ZMKAPfbs0xb1qWdx6fM3Oy1kJXDxha76gk0MFnOu3oFe/fgzp25nWdSrg1GQofx2OeSHfZ1rEKoa6VKN2o4mEJKURfXCR5M7Z49KsAwMH9qJnSyccpX1ceCCrPKLvmmRO+B/ivnSKZdYNaFrfQl+fETmFGnpQQ5taS/OQ8GOnX0/UBW8VIWy5CU08kReuEXH1NGcCl0muTzfmbDtNilkpqthXpoipNmXdfY6tGEfvMSu5pcoobiqubhhD596T2HE6hjSlOSWq1KRGtXJYGal5cGk3c0f+jy13MmSTV0WwbnQHBkzbyLnYVAzMi1O5Rk2qlCmIkTqeC7vn8fHEVdx7rufvAYEzPOk88gcCrydj49ianoOG079HK6rZyIg+upLPu3ZkYfAD/fLpqONvcP7SNa6dPc/xzePo0GUi284nUbBCdaqWKYABGh5e28O0/kNZefnVJSI1OoyAfbvx2Ztz8fU7wd1XsQrV9zl7NkonsMblqlDpWZrX51BYVaJiUe1MFXciIkScLRchhC03oonDe/pX7LttSdP/rSfo7GkO+B/h+LFdjK9fVJfdPXLrZH7widOvIDWtW+v4esIqridryG/Xh18CLnD0YCB7A8I4dSqIH8c2o5hSxTONUnNj7Vd8ve6s1CCNqdb7F/zOnMPvQCAHjl3m2IE/GelRFrlKLUnOM+7vm8LHc/2IkxWi2aQd+PusY8Gcucz6aT37grYzpnZByaA7xoIJiziTmoWIJB9gxrg/iC7WgZnbT3LycDD7j51lz8Ku2Eq6rYnz5+dfAvUL50QSO77rQZeunfDslnPp0akbCwNewcVOiyQyOt15NylUlILaTPxZobDBtnB6EsBHt29yJxe50v91hLDlSjSS7BSm3ayt/PlFK0oYpzcsZSEXxs8fT6380mVT32TnBh8SdXPSOLPyD3xjJGvMsDofLZlHe7tnGd0NClan23deBJ9eTdci+g+Tp51n5a97iZXaorH9GBbN9qT80wTHSgpV78p3m0I58teAZ9nj1ZGsX7KRCOnPFJBcylmja2OePkeH3Koen07qTxlJCB6f2sDmo0n6ORnQJKEu1pulW/5gQF1b/Q2Yn6q9vme4qySKkmhfCw7Q1eaMkuJV7LGrUIFy5XMu5as6Y2f7Ch9mV8fyIE5rNcowMTdD0tusUVhiaZa+PXXSIx4LXcs1CGHLlciwaTuVOQMqSy7a8yhLt6ets5U0peHOiVAuShYaqhscOHBGkjdJIpy70cU+c+LhdIzz5396wdNuHMD/jLYjwpA63XtTRS+ez2NM/vzPhEB1dz/7QmOkKRPcOnSgaMaM9XryObjiXEjaa8nNPXk8Wl+bAVlhuk+aQYtimY5MUZQ6dcvq8kGkREWm1+WIEqeP1uJ3+ATBoTmXIP9V9LZ7hYyu6lSSU7SOqAylgVL6f3YYYKDNoi+hTkoiSXSM5hqEsOVKJEvBuoAkH1k0KXkBqlSx1VkRaVFXuaF191IvcP6K1nZTUNy+JjbZuU4ZSD53nqvaxisJSrUaxV7pRkg+d4qLWrNEbkpyxE7WrVn1Ytl0jPu6jamJuZ2VsCkxNslKXORYWVnojliTlG6HvjfkChS6DO4aVCrVc67486hRPfHt5XLRmHIR4lp8cCgoUMgqXfJSHpLwSBKn1FjuxaukChnWhQpl7zplIPXBPeK1bVJmTeFCr7KGJKR3Y4jVdliob7Nr1khGjxjyYhk1mX0308PoatXrmTBKhX4/NO/Z9JEZYWyc3jRSkl/WJZAszU/fV4VJfvK/2mkUvAOEsH2AyGVPLpveMktLQ6VJtxzkile7pKlpWiHUIlkaWbiUWSL9DV0zllnh3GU4Q4aPzKaMYtjHk/hqgJNutbeHmjuHVzB/xhRmTs+5zJrzN8djnxz3S1BYU8BCa1VqSLx3j8TsbDZVLLHx6T24RgWLUOgVwneCd4MQtg8OFTF3Y9ObWj4LLLVmgpEppkbprlNcbKy0RM5o4226dqiJ50FshiEgL0Fhao6p9s/ITHHuPZmp02dnU2Yx+dtxNC6bzTiJN0YSgcsmM33mdObOyrnMmT6JtaFZdGhkRl6MYjbpvZ3Jt65zM7vRJ6lXuXpD28sqp0iZslmHDgTvBSFsuRRVamrWdoLkBoaH39SJl2GJCpTSGhbKEpSwTR9PdePMaeJe4YsTBiVLUlQbi1NFcubM/XRLLAcMy5amuIG0jvoOly/ee6V13i5G1OzQF8/uPejSLefStddgWtqnC9ZLkVtQsaKNzqVPuXaUE3eyflQknT7Esbta1ctPtZr2vEK3hOAdIYQtV6Lmutc0FgRoeyCfJ+XCJjYf0b6+I6dEbRfKa4XGsBK1HW109sKDkE3s0I7HeIGHnN65k/P6MQnGdrWpqe295DHBXpu5mdUYrIdn2bU77OnrWAZl3KhTxkSaSubw5k1EvvdxWwrKtP2ShUt/Y8mynMviRRNo8CrDPSSJqlG/HtbaE5p0GK/157KwguPxX7mFK9I5kFm40ayRtb5ekBsQwpZbSTzBvL5dmLbjytMR7eoHoSz4bBEnHku2krISnT3d9VZCfhr0aE0prQX2MIA54+Y/H0uKO8Oaz9rTvv9U9l3T+1X53enarpLOKnkQMIsvfgx5ztKLO72Oz9q3ZOjMrc8EzNCRnj1rox1MEhc0i3Gz9hPz3NsP6SRFH2P7Rn+ispj3oWDe0JMOFU2lqSQOLhjLwsDoDBZqIudWf8ZXK89JdUrsug+nxZPxgYJcgRC2XIkMi3J2FEk8woLedXBp1Ja+PVvjUac5c6QGppHkrEr/yQx2fBbDMnX5mC+720nNTEP0gUm0cXKiXQ9PBvRojoujCx/9GkKCaUlKFnxyyU1wH/c1nbUWmCaGvZNaULduU3r18aRna2dqNxzAX8disCxZBuund4mCKoOnMNbdFpnmAYGzO+Dm2pYR4z5j0jcTmPjRAHo0qU5Ve3cGfLyEY68Qzsq1GNdi7Pd9KWMkQxMXwowONXFt3oH+fbvRqb4DTUeu4FqKBtNqw5j+hYf0aBHkJoSw5UpkFHD/nnW/f0ytQmlEHPdl184DnL0jOYXKwrgM/4W/p7bAMmNvprwI7eesYdEwNwpJ7mlq7EVCdnuzfXcgl+5DEcc+zF33A60zdN0pirRm9tplDKxTDAPSuHcxmL3bvNkXdJZYWSGce89lxfzukrBl+DsmDnyyfCOz+rpIf0fN/fP72fjnEhb/sIhfl6/D9+hlEo1L4t6zE9UzhLPkxuZY5lciNyog/Zthe0+RY2huialSjoFlAX3d+0RO4WZTWf3reOoVlcRfFc/lw3vZsXU7geG3SJaZUqH116xYPw0XKzHOI7ch00jop5/SqVMnvLy8OHjoGBUqVtLXCt46aeFMbdyMhWEPKTtgI/7zmqGMu4j/Th/Cbz0iX6FyOHo0xbG4Ns6VPY+jT+Dve4hL0fHIzGwo7+hBA6fiZB82TyL6xAH2Hz7H7YeSG2ZTHseGjXEomvUbDE9Iig4jMCCUi5F3SExTkt/ahlJ2NXF2rkrhLN9k+EBJiuaE336Ono8gNkmOWeEy2Ls0pG7FgsIyeI+sX7uaUcMHM3XqVCZOnKivTUcIW24iC2ETPW0CQda8TNjEA0cgEOQ5hLAJBII8hxA2gUCQ5xDClptQlqTp4BEMHT6WoR2rpb/yJBAIXhshbLkKC2r3+YYp06cw0L2ouDgCwT9EtB2BQJDnEMImEAjyHELYBAJBnkMIm0AgyHMIYRMIBHkOIWwCgSDPIYRNIBDkOYSwCQSCPIcQNoFAkOcQwiYQCPIcQtjeG8mEzGpL9VJFsW/4OX4P3n/Op9ci+Qgz21ahfKmytPxyJwn66jxNWjRBf33D4LZ1ca5UnHKlilO9pgvdhn/HxmN3c0HWLsEThLC9L9QxnDh4guj4OG6fPsjJG9klr8ydqO6eIOhIJPHxtzl1MJRbqZm+V6qOYt/iiXzx+TesPRqnr/xwUccGM7NzA7p8PBfvwHAi7sSSEB9L9LWTHFg7mxEt6zPq79NPE+8I3i9C2N4X8kK4tGuBY5WqODbvSP0yH9a3chWF69GmdR0qV3GkeaemlNSmAcxIymm2LPmJ339ZyN8+118piXOuRX2TteOGMN//BmmKwrgOncfK3cH4+e/jr9mjqKNNrpwSwcYvhrLk2CP9SoL3iRC294Yh1Qf9wq6Dh9m14lMcskxwkosxrMqQX/fhdzCAXz+qp0vJl1d5GPQj87Zfk1xNY+qMX82KmcNoWrs6le3r0XLwLFYt/4yq2hwPj0/y54/exGWd6lrwDhHC9gGRcP0we7ZsxufQJeLfdc7Oh9c5vMuLbXuCuRaXVULmf0siN8ID2Ou9gS1bdxF6IYbc4Zw/ZP/qbUSkaZDbdmbcqNovpNozcxzM0KbFkEmCFrXfm8AHQtjeN0LY3hsqrq0eTv0alXHrsYBzmWJUaRGrGOpSjdqNJhLyOJ4jSzxxq92I3v174dmiDiNmTKFbrco41WoruT+P9WtlQH0Hr08aUbu6PW0mbCNeX52RtOurGOZuj6NjG5aefJLvXUIVwfJhLjjXdGOGXyLxx5fQo54zbTx7M7B7E5oO/oN7qkhWDHfDuXpN+i858dTVTLv2F32dK1HDaRDbbmsjTmmcXNwBx6oVqCEVh5rt+e1Mhr8l7VnYmi/o5FAB5/ot6NWvH0P6dqZ1nQo4NRnKX4dj3m9QPvkkAcFRkmTJsK3fkrrmWTQZeQHqe9TQJd7RJIRz/LnjE7wPhLC9NzTEXr/ApYgILp26xP1MQSh1/A3OX7rGtbPnCV01igHfeBOtLEzFanYUkdxWhZk1hvduEnnJj43eJ160bhIC8d58lGuRVwjduIlDCZnlQc3NvRvZceoKN2IMKWCTITemJo6Ic1eJuHaGC0dXMbrPl/je1GBT0Z4KtqbSqpIIqx9w/exlIiIvce7SnafCpn54m8jIm0TdiiFRX5kSf1v6fUtXbkVe5+7TfXlA4AxPOo/8gcDrydg4tqbnoOH079GKajYyoo+u5POuHVkY/EC//CuQFk2Y/x589u7Ouezbz+nol4f7VffOcj5KK1QKylapKjmjWSGngF0lbLWZ+FVRREZ8yJmi8wZC2HI7yUEs+n4L8WV6sHT/KQIDjhJ+6RKLB3eikXNBaQEVF/bv5Uomiy/hUAChepdRcy+A/YcyWXXqe/j7nkTbZC2cm9GgUFZJf1PwX/QNe2JK0nuJtL1DIRw8c50jv/ehQDYhQcNqn7A1/BzHjv1BexsDqUZJzY+2ciRMqpPKidP7GV8nPSJ3f98UPp7rR5ysEM0m7cDfZx0L5sxl1k/r2Re0nTG1peOLP8aCCYs4k7nXNRsSd31P5w4d8ezWKefStR2DZh3Qr5k1qZGRREtuqDYmWsimSLYNRmlrSyFdYulUbkdFpVcK3htC2HI7mnjiUu35+KcFdKyoT5RsbImZSREaNXXQJUFOPuvDgWsZ414pnPQ/xD3JMJLJpMamvk2gz5HnrbqEg5LYxUgTRjg1bUrBjNnen6IhPi4F57E/M7VHZX3CZWMsLF7WVaDEtHBxittaY6zfpjJ/QYqVKEFxqRQtYoVW7lBHsn7JRiKk3S4guduzRtfGXLd0OnKrenw6qT9lJCvo8akNbD76alaQQfHKOFapRLnyFXIuFapRs2ox/ZpZo7r/ID2eKTPF3Cz7jO9KS0tM9bOTHome0feNELZcj5JqA6YyzNlM//sJcoo3aUJ1Y+kSpoaz3+fGs1hU2iUCg66iktvQtJWzJCQqrvj7cCGD1RN/0JeQWEnqDGrQuFnJbG8Ew4oD+XZM7Tfe66m6u599oVphNcGtQweKZiGs+RxccS4kyaAqgpPHo/W1L8fQYQxrA48RHHoi53I4mJ8GVdWvmTXq1CRStKdNpkBp8JLmYmCAoe4YNCQnCVf0fSOELbcjL4xLk9pS838RZcnGeFTVCl4yx333SRZaunCpbgUSdPYhMot6dB3dgoqGMlIu7Mfv8hObLYlQ34PclxY3qtYUj1LZ5cOSxNO1KTVMs7Lm/h3J505x8bG0A3JTkiN2sm7NqhfLpmPc192hamJuv5qwvWnkCiUKnV6pUaW9pBtDLc3XPzdkctGs3jfiCnzIKMrRuGllXZq+2MN7CdIPM4g5GEhYkhoLx/q4ODTCtYwki2mnOOAbmW7VpYThG6CdlqzBpi107t67Ju1uDLFaJZDc5F2zRjJ6xJAXy6jJ7LuZHtxXq14iKm8RmXE+jHStJJnkl/QzaKSZKRrt+Zdhkt80vVLw3hDC9kGjpHKThpTWClN8ML7+2leXHhLif5TH0rwqrm4UMK5OQ9fi0oVO4YSvr86qSzm/n8Crj6TVK0huaFWyjxy9RSQR0EmVzArnLsMZMnxkNmUUwz6exFcDnHSr5YQq5jAr50xl5vQpOZcZM1kXek+/ZtYora2x1LqYmkfcv5f9G7Fp9+/pxxYqKFC4SHql4L0hhO0Dx9i+KQ1K55Ma3gOCfA7yOPk4ASHRaBRlqedWRrrAxtRqVA9LqW0+OKK16lK57HOAi6kalKU88Kj2fl7lUpiao/NwZaY4957M1OmzsymzmPztOBqXzXqgRWYeBf7K11OnMXfW9JzLzCnMWX5Iv2bWKIoXp4jOolVzKzLi6bCWzKRcvcZNbQxTXoQyZTPHQwXvGiFsHzqGNWnSQBv8V3PDfw+HT/hx6Gay1L7qUa9auhhYuDSktqVkl8WHsN//Avt9T5MmrVG2UUvsjbSN9i2gE630Sa11lhnDsqUprn2/VH2HyxfvpVtvb4B8NdsyqJcnXbr1yLl070ufttX1a2aNwqIC5Ypqz2MaV48eIUYfx3yeFE6FHNXFLDGzx0F/3gXvDyFsHzxG1Gpan4LSlVTdPMDyn/ei7SMo4OyOQz69sli408CxgCQwsQRumMeeE7HSlbehQYs6utHybwcjDHW9iBoexse/IFwGZdyoo439kczhzZuI1I0V+/coS7Xlyx9/Zcmy33IuSxczpmlx/ZrZYFidBvWK6jQ64fB6vC5kEWiLC2C11xnJmpNRyLUVblrzWPBeEcKWBzB3aYJLQe2wiMts23xMsi2MqOnuxtMQtrwQ9T3sMZDkJWLnekIS1MgKe9C4dlZ9rW8IZRGKFtSOfFNx9eB+LidnEi5DR3r2TB9GEhc0i3Gz9hOTxfuvSdHH2L7Rn6gs5r0b8tOwVwfKaK3LpCMs/GQGh+9mGDOYeIGVn/+P9deTpGMuS7ehHbMZEyh4lwhhywuYudLU1UZnVajVkm2krIyLW8ZR8gpKNXDXDfvQDkuQZA1b9xbUeQvDOJ6iKI17/fK6Htukk3Pp2rQD/Xu1pVH1ukwL1r4FoaDK4CmMdbdFpnlA4OwOuLm2ZcS4z5j0zQQmfjSAHk2qU9XenQEfL+HYexwaZlJ7DN/1rSZZtxruBc+ig3NN2nTtzsBebfBwdmXcurOkShJdc9g8PnbPOMxY8L4QwvbekJHfwhJjhZx8VtaYZNIYubE5lvmVyI0KSP/mJECWNOzYghLS8siUWDu1omE53fj+pxjaNaOVYxG03qHcuBQtOzR84SsVT5GZYGmZD4XcCCtrU51gvkCOyxjiNOI7BtUsJM1L43b4Pnbs8OVUFOTLr7/tTBz4ZPlGZvV1oZCBmvvn97PxzyUs/mERvy5fh+/RyyQal8S9Zyeqp7/28H6QF6TFtDUsHtOYIkbS0cRf4fC+bWzboX3X9BFys3K0+2otK75vjIWw1nIFMo2EfvopnTp1wsvLi4OHjlGhYiV9rUDwD0i5zYm9Owk5f5tk44JUqN2cJs7FX4jtJUWHERgQysXIOySmKclvbUMpu5o4O1elsPZbZ7mEx1EnCPA7zIUbMSTLTSlcpjouDd0oZ5XdIGfB22L92tWMGj6YqVOnMnHiRH1tOkLYBALBB8nLhE24ogKBIM8hhE0gEOQ5hLAJBII8hxA2gUCQ5xDCJhAI8hxC2AQCQZ5DCJtAIMhzCGETCAR5DiFsAoEgzyGETSAQ5DmEsAkEgjyHEDaBQJDnEMImEAjyHELY3igqrq0YSK0KpajZdjqnMyQozm2kRaxkgGNZKldrwZKTyfpagSBvID5b9EZJI2xWK1pMP4i62AA2HfkBl1z0LbGMpJyeTYtGkziVZsvQDSeZ4vEWPxP+Eh4cW8nSTeEk569Cx1F9qG6e3flScd3nZ1bsv46mQD16j25Hae3nurNEzf2jq/hl8ynSCrvz5ZjW6dUpV9i57C8O3nrEk5teJj3b5Qb5MLO2pbyDKw3dqmL1VvKspnHN91dW7btC4tMmJ0NhmB9zaxvKVK2Nu5vDK3x77iEX9q5mndd29h86w82790lWWFC4eDmquzSnY59+tKhW8D9hsYjvsb0zhLC9LvfXSxbu0LUkyKzo8Xs4izpY6edkIu0U05o0ZcHJeMnPKMWozUf41j27fX7A2n51GON9A2XFj7h1aLquNil0Eh6tZnM528QxMkxLN+WjeT/ykUexNysOKUf5pmFLlp5N1Fe8iJFNLXpOnMdXfRzJKoGf6k4Ac0eN5AdJHLO1sZWFcRu9mGVft6RQHv+ar/gemyDXYuHeEEcz6TbUxHHYP5Tskq2rokI4dPFh+g/1TQ4eOJVtjk8ehRJw9I40Iaekq0d6nZa0NP06+ajcvD99+w/UlV6enWhYvRhG2oxa1/YwvX8ffg7T5mV4k6SSqg9N5K/QjN66vz0Az64d8KhVDjMFJEeH8sfY9gz98cQL50F9/wBfd+3JHJ2oGVHSfSCTft3K3uCThAT7s/7XmQxpbY+55g6BP85k0+UMCWf+gwhhE7xXFIUa0KCGpTSlJjLoAOcyZ7PS8yD4IKcePUnil8Y5//1EZGN5JYUHEno7VTLACuDWqI6+NgMyM+r0n8mc+T/oyvwly1nnd4Jd8ztTRBIYTfxhflm2j0f6xd8sMiyd+jNd97d/ZOHPK1m75zjBW6fgVthA+uP38Zn1NRsiMgiT+i5bv/6Y38PuS6ubU++TjezZvIgRnRtRw648Ze2caNB5NFNXBBKwZRotq9li/rbyxX4gCGF7B6hiLxC0fT1rV69nX+gVErNMupuZNO5fCmGP12rWrtuET/AZYrJp9E9QxV3l8N4tbFy9gk3bfDkdlb3bk2tQFKNhg8q6bFaplwM4eE0SpBdI4sjB4yRKomBmaZme+eq0H0G3s7LZVFwKCNblKZVZ1KOh26tmZTehau9P6V5Vm2VKw+0ToVx5Z50/CgrXG8v8L1qmp0xMOMiOPVG6OVqSTvzC3PWXdNnFCjWexI8TGmKdpZupxNZ1LH/tX4Nnyf92Dob/rLClnFpEp5oVqO7QlAUhWTybpaek18fu1KxSiSZjN3AvCzFSRa5leD07qts3YE7Qi66LJuUaO6Z2o469Ex1692fMyP70bOaAU8OhrA6L1y/1IslXt/FNBwccajWm98DBjBnWB89WtahRxYXP1mpv8OdRPzjJ8k9bUdOuOm269WTEyGEM79MWj+oVaTxwLodu52a3REl5j/qU0Qbs085wMOD2C8dHyhmCQm9J9fmpP2ww1bRpBB8fw99fsmAyo47mYOB56bEAVrUbUzfbzogsUJaiVNH0dFjqpESSXtiRt4mcYh7uVDbUNsk0Iq9cTa+W7MaAFRu4oBVZRXl6f9qbEm+lcyNv8Z8VNoOitpjG3Sb6+iG8vI/wgp2QEMTWreHcjLpB+JYNBMVlFjY1t303s/NcJNGxZhQt/Xy6O1Iu8tfAVgyes51ITWHsHGtRraSV1IxV3A9fxSfdh7DxehbWycNAJvUawlK/q6gLO9Cq9whGjBhIh4b2mCeEs33n0ecCx+oHQUzr3oFPf/MjmiLUatOPwSOG49m6luRWxRHu9Q2enScQFPtvW2kykaG72LHNm+05lq3sOXxNv17OGFfzwLWEsTSVxHE/fxKe9lmmk3YjiMOXpQeHNit7t3a4V9TaNQ8J9Q9+0V2MD+ZgWKw0YYSDR6NsLJtsSLvBjej0s5uvWBmKZbqkbxuZ0hBl5haZcoJ9/pE6sTes2Ja2jtoU04Kc+M8Km8yyAY3rFJKmVFz235f+RMxAYqg/oXHpwqORGsv+g5ktrDj8fI6itdNMazajgTY4kwH13UA2+0RRrPk3bAk9jb/PAXyPh7Hh62ZYS21NFb2DmbN3SY34ee5u+5U1Z+MlN6oxM3cd4M8f5jBp2g/87BXCsSO7mDfMVWqyT4hn3+SPWXz4DrJCHkzZFsr25UuYNm0uC1ccwH/rt9SyVPDw9M98vSA428D8K5G0j+979KB/H08G5Fh60KfPNP2Kr4BRTTzcikmOFsQc8ePYcx60mpiDwZxJUUsN25U6JapS362kdONquHXQh/Ck569bQkggRx9ILqqyKg08ir/GDa4meu+vbDolXRGZFR5d21DkHfcqPjx1isvScWqt2OJly+jqVNHhnL6hzRYtw8axNhWyHeIiyMh/Vti0SXAbNXVEayeknPfF71JG6ymFk/4hxEjtQ6a9uTX3CfI59HwXu2TR7T+k7XkzoGbT5tgqMt9wCkq0mcf6vz6nblHtX5GQW+Mydj4f1y8s/VBzfccaAh5ktKTSuH75mmS3SG29fD3qlXg+TpKvpBst6j1rrKrITfy84awkzWY0+3wRg52eHyphVWss3wxwkPYkjdNeaziWSQReC2UJ7OvYY2dXmUo5lirUqF1dv+KrYELdRnXQeo2au8EEnsiY9v0xh4NOSOdETsk6bpQzMMaxgQsFpGXVUUEEnM4o19J1CzzEfekwDe0a0aBsdiZXEtcPb2bThnW6snHVr8z/rAttB//C9bR8VO01j0k9S73bxpEUzm8/enNXezuY1KJpYxtddcqNCG6rtNdNQZESJXXxRUHO/HeFTTp028ZNqJFPOgVpp9nvG6Ez93WornLw4FVU8iK0aKe1kNREBOwlPEPwPvGQL8H3JDFUVpMEsswLJ1JWoD2TF/andObeKUVJ2nWso7O6NPEnOXI6o1zKsLK20FkuSRd82XvuZf1yau4e2EtovLTXpi6071g6i4tpiL1rbQpKxqQ66iQnIv9FrE1ZnY9WBeAffISAHEsoe5aP1q/4api7eVDLXNpRVQTBAef0wzIkUk5yMPQOGpk5Tq5OukTLZvXqU9tSauJpFwnwyxBzTLvMwaBr0roKyrk3zt660cSzf/4whg8ZoCsjRo1l+q+7uf5IQ75SbjSvX/6FzPxvEo0qhceJiSRKJf7uNU7sWson7Tsy++BtyQ6Vrln/L+haJl2U1fHScjphk2Fqbq67NwQ58x8WNqmtFm+Mh722FyyFEz4+xOg7CFRRgRw8J7kkZnXoMKYFVQxlpF2XGvW5J9ZBCsd8A3UWnaFdUzzKv2gZyIwtsMyydcixrmxHMW0AWBXF9WsZ/S4FpVq0o47kPmotwu/aNePjhd5c1LpWL5DK+dMXdVakPF8ql7YtZ9XKv18om0JvpjcGyeq8k4s7ERTW9WlQU2txpnE20J8oXWOWzvTFgxyOlBz+fI641tP3cJq5Ut+5gDQhWaJ+fpKV8+S6HSTo/EPphBTBtZGTZEtnhxGl67aiVeu26aVVC+rXrkIh6SH3+Poe5g1tRLM+P3Hu8bMH2ZtDcqHX96di8cKUkUr5ilVp5jmeFYejJEE2wa77An75uiH59UtnRK3OaN0LXsZ/WthQlKZJ4yo68z7u2D4CY9Nv5NiDgYQ9UmNesz6uVRrhVslUakPn8PPRWwdpZ9jvf11nGVRq3Oy14x7KggWx0sVvVCTEPx9lU5bpz9wFQ6hqoUAVe4JV33lSv3oNeny6mKCIjD2vKu7djdPtj/quL3M/HsnHo0e8UD6Z6U20Vhc1arJ4yST3ILehoUc1nRglnvQj5L52p9VEBYdwKUWDcWUXamtNTy3ygrg3SF82/uR+gh7or1vQQcKl6yYr4I5HnZcE2WUWNBz7B3+uWJNeVm5kw+5Qwk75M7N7NUn2Urm+42vGL8iiU+mNoyR/wbI4tRzEJMki3rm0H2UzvK0iN89Pfl2YQ0Nc7P1M3SqC7PhvC5t0U9k1a0Q5rTBpOwj8tL1piYQEHJH+r6SyqxsFjSvT0K2ULk4Vvt9HZ0mkXvTBTzsKXlGKhk0dXmIZZINcnsGlyHyrKijTfi47A7YzbVhLylkaoEq4iu9vn9PJvSlT9tx86no9eYLLrRzpNuIjyaXKpowey7jvZ9Gv9r/oUVPfJejv6UyfMolpOZbvmfNngH7FV0U67kYN0h8SiaEEBmnfMkjg0MFTklWqoGxd9wzDHBSUbOCWvmz8YQJ0HTuPOBxwVLpuULBOY2qbPTvDr4rCuiYDFvxIfzutvZTE0TUr/l1cMktk2Hb+jdPXbnLpWjTXou9x9WI4O1ctYkRLuxcsNcPiJSmiE7Y0bl26rIu/CnLmPy5s0o1TpQkNyphI+vKAIJ8gHiWfJCA4Co0kWvXcyksnyBCHhi4UkM7UwxO+HIxJJeKAP+clK0JetCFNnPQdA69BWkwMD3TukwJLy6zfjTQu4c7gGRs4GBbK8u96UNFcjjr+OD9+/C0+ug4HOabmJukCaVIdz2+mMWnK9KzL5GlMGNXmxXjf65AUzK/fzWD+3FksyLHMZPaUP/QrvjqGFRviqr8Wh/wPk5J0lINH7kpaUJDartWfe4AYVmyAi27Z+wQfCCUlJQz/Q9J1Ix/OkkCa/dNolHF1XGvb6hqG+vZlria8eRtJ+9K9uYWlVMwwMXp5d4DCxp6qxdPvsZjDBzjyUNhsr8J/Xti0Y6OaeGgD7xpuBuzhcJg/IZFJyArVo559+g1lVqchta2kZpV4iP0HLrLfJ4wUaY0SDVrgkN1L7uo0sh64rubeqdO6kfHajoRy5V8ujHKzCjQf+wsbfuyLjbYT4PZ+fA5rXVIDSpctJkmjVBdzhas61+0tYuRAp6H98PTsTY8cSx/6DeukX/E1kK6Fh5u211f7epU/YScPcjQ6RboATtSroxuT/wzDGjSoV1S3bMTB/YSd8+eQ1lU3rEnDRjb/4sZOIzk5Nd2OVhhh+Nrm+BvG0IFmDUvqjkcdvZO127UDlQU5IYQNI2o1rU9hrWjc8mPNr3u5JClSASd3HJ/4BWYuNKxVQLIOEgjZMpfdR+9JVkQB3Ju7SvZB1qijNjJjuq/eMsuAKoItm9KHjsgL16VelVex+OQUcnKkjIF0uTSPeawLaiso7VKXUlr3LDkUb6+Lb/eGl0S4zReLWLhkGYtyLEuZ9Vkb/YqvgzG1GrtgJR1SyiU/Nmzw56r0AMhv70Yti8wPEGPqeqQPEUm97Mem1fu5KFnRRlU9cC+mj8X9A9IitrB+/02dsOWr7EwN02weXO8ME9z796BKPmk/NDFsmfEde269rBMojvBtGzl6Nze/bfL2EcImkb9uU9wKG0qic5nNGw+TKolddXe3Z+6MXBKxhtWlWsmq272egAcqZFZuNHHT9qhmxyOO/tibXl966YYRpBPPkcWfsChQcq9QUqVLL+rmz9Bw1DdZN2EQMzaFEf+cIKZwecceTidL0qUsT2U77aAHqWk7dqd7bW3v4GP85oxm7oGbvGi3pRB9fBubtG8y6GtyMxYuHtTRDeUIY9UK7bVQUsnFLYtxgtpRLg1w0n4WIy2cFX9qByArsfNokv561ktRkxR/l9vRUU/LjYvH2LfiO3p3GMeeO5IoyG1oN7zPK2zr7WNYbRjfDqwp3X+SiF9bxajOg/kj6Famjg0V9095MdXTg9b9v2Lr0x78/yZC2LTkr0dTV1udjKlVWvGojIv0+9nJkVO8gTuVtO8oqtU6gShYrzkultnf9JZOrWlYLJnQpX1oUMuNbj270dndiQ7f7tYNIM1XsT/fjq2rG5f1FHUsl4J3MG+QO861WzDko0/57qvxjOnmLllL24jXSFZax4/oUkHvHykqMXjqp9S1VqB5EMLsLrVo2KEfn02YyPdffconQ7rQ0qk8jo2688Uyf91bErkec7d061hyCZOS0gWmtmtlncudGUUBd9x1XwZRSctKzVxRAncP+yyXfQ7J8lkzrBr2lcs/LY613ek5Zja+Vx9KXr4NTSb8weROb/ibbP8Ycxp89SuT21fU3S8J59bzv9baQdAedO/pycBeHWhTrxIO9XuzcNd5UqyqUbXUc3fWfw4hbDrMqd+xBaVMtYKhxKpGczwqPH9jGJRvRus6tmjfUZYZFaNZpybSWpmFTUY+czOMFEqs7fvzi9fvDKxtS/KtExzYuZ2AU7d0VoVt3REsXT2TBgUyBY6VdnQd5YmD5Bc/uBzIluU/sWTxUtbuPcUDmSUOnnP5c05nCmZ41cfUYQzLvRbTu05xDFVxnPfbwF9LF/Lj4p9YsWEnR6/EYlyiHl061HvObZabWGJhokRuZI1FRqvxfSMvRJOOTSieX7oWMiUWFdvQ3Ckbh19elKYd6lMknxKZ3JBCDl1p45y9a68sZkflIlltS4bS2AKbcs607Pc1v/scYsWn9bF8k69UyfNTwDo/CrkxlgXSB2G/FsaV6P/bLtZO74+jrfYYUom5eJj9O73ZtmMvh89FkWwsPQS6fcPqvX/T9T/+dQ/xBd23jTqOi/478QuL5LGBNWVqNqZR3dK89Hu1SdGEBfhx7NINYhNlmNmUpYabB06lLV7yJEomOjyAg0fOEnk3AZXSBCubMtjVqEXNqkWzjQUKPkDS7nM+xJ8jpy5zOy4FhYkVNmWrU9etNqUs/juCJj4NLhAI8hzi0+ACgeA/hbDYBIKcUMcQ7nOQq4mvOVZQJseygjtuVQoIC+ItIFxRgeBfoLrxK51qjSP4H3xS16LpQo6sG8Q/6C4Q5IAQNoHg35AUxoppv3MyQZX+RsKrIlls1nUG87/urzAERfDaCGETCAR5DtF5IBAI/lMIYRMIBHkOIWwCgSDPIYRNIBDkOYSwCQSCPIcQNoFAkOcQwiYQCPIcQtgEAkGeQwibQCDIcwhhEwgEeQ4hbALBvyUtmqC/vmFw27o4VypOuVLFqV7ThW7Dv2Pjsbsiq9R7QAibQPAvUMcGM7NzA7p8PBfvwHAi7sSSEB9L9LWTHFg7mxEt6zPq79P8t1OrvHuEsAkE/xT1TdaOG8J8/xukKQrjOnQeK3cH4+e/j79mj6KOjRGkRLDxi6EsOfZIv5LgXSCETSD4hzwM+pF5269JrqYxdcavZsXMYTStXZ3K9vVoOXgWq5Z/RlVtQu3HJ/nzR2/iXu+jR4J/gRC298ZDrh3eibf3To5ciX1JHCaRG+EB7PXewJatuwi9EJMpn2Q2JN3hdOBOtm7egu+hC8Sp3m+jengjjIO7N7N5k3Z/zhGb8or7o47jauhetnltZl/IeR5oM+jnCh6yf/U2IqT9kdt2Ztyo2jzJr/0EM8fBDG1aDJkkaFH7vQl8IITtXSGE7Z2g4uqqYbjVqEabb31ISjjOj571cGvehcH9utDKrT8b7mSWtnjC1nxBJ4cKONdvQa9+/RjStzOt61TAqclQ/jock7UYqu/gv3AADapUxKNtFwYN6EmPFo7YlytPjaoV9KUizi2+ZfWCrtStXhnXTjM5lfxio1Pd2conHtVxcnRn0q57+tqMqLiyajgNHOyo13GWvu554sLX8EWH6lSrUY+OPXoxdJB2f5yoXr0B438Jfi5TflrEKoa6VKN2o4mEJKURfXARA93scWnWgYEDe9GzpROOtTqx8MCt9x+QTz5JQHCUJFkybOu3pK55Fk1JXoD6HjV0uUA1CeEcP5OcXi946whheydoeBBxkSsRV7l48QgrR/Vhyq6rGNhUpFqlopjI0pMwP+MBgTM86TzyBwKvJ2Pj2Jqeg4bTv0crqtnIiD66ks+7dmRh8AP98k9IJHhmL/p+t46zDwwp596V/kOH0K1pNYwTo4m6dUtfbhJ5/TaGVkbciYzgov9adoQl6bfxjDj/zWw5eZnIq8fZvNlf2nom1NHsXbeTs9cjiTXSJjl+nvtBM/FsP5Tf/S6jKeJIq16DGSwJVJPqRVHfPsry/3Wk78yDT7erjr/B+UvXuHb2PMc3j6NDl4lsO59EwQrVqVqmAAbSeXx4bQ/T+g9l5eVXslslJIEM98Nn7+5XKHsICL+pX+/lqO6d5XyUVqgUlK1SVXJGs0JOAbtK2GqzyauiiIx48RwL3g5C2N4xcZIVMnX7LSr2WIrP8WP4hlzk3JkVdCz87FLc3zeFj+f6EScrRLNJO/D3WceCOXOZ9dN69gVtZ0ztgpJBd4wFExZxJjWDxXN9NbOWhvAIU1z/t5V93n8ya+YCflznz46FXdH+CVmhFsw9cJrw4AV0aN4MZzOF1Oguc8DnvGR/ZeQRhwOOkKjbvORKBe7j2OPnrTrVPT8OnIiVpoyp1bRZeuUT4nyYPHo2R2I12Hp8j3eQP3/+uJBpc39m1f7DrPvUXXLdEghZ8D9+PZnJkkk+wIxxfxBdrAMzt5/k5OFg9h87yx7pGGyl3dXE+fPzL4H6hXMgaQ/fdGyPZ7dOr1A60rXndP2KLyc1MpJonVtsSCGbItk2JKWtLYV0iZdTuR0VlV4peOsIYXvHqOMlK6v6WH6Y04uy2sCyhLGFBUa6KQl1JOuXbCQiDQpILtms0bUx18/SIreqx6eT+lNGsgIen9rA5qPPrIAYf1+OxKsl8WrFiBG1MsR8DCnfZRQdyudHc3c/24JUFLQ0RlG4EY1qWknz0zjtu4fIjPGrlHD8Q6IkS1KGTNpNdbQ/B449b3HEBfgSGi/JobEzTZrY6mu1qLm2bileVx8jM2/EFwvGUsMy/Vh1yK1w/XQSPStKeyj9Ha/1ofoZejRJqIv1ZumWPxhQ11Z/k+anaq/vGe4qibokwdeCA3S1OaIsRhWnypQvX4FyORbJgnaqpl/x5ajuPyBeG7eUmWKufThkg9LSElP97KRHomf0XSGE7V2jrMigyeOokT9DQ8+AShKefaEx0pQJbh06UFT3tH+efA6uOBcykBaO4OTxaH2tipjbMTqry7BoGUrly7SesijFimjlM42oiBvp1pnclsbN0mNAj8N98L/1zGZLuehPyLVHKGyb0aKmqe5vBew/lcGqSyTI9xAJUts2qdGUhsUyNG71XXz3HJFsPrB260Srklk0fKMauNW2kWRTEqkTx/SVemSF6T5pBi2KSceYEUVR6tQtizbXeUpUZHpdTihr8PHaYIJCTxCcYznOvj+H61d8OerUJHT9HzIFSoOXNCMDAwx111BDcpJwRd8VQtjeMfIirng4m+l/vUjyuVNc1Lp8clOSI3aybs2qF8umY9zXXTm1JGZPhE2GpZW57oKm3rvLvWcKlE7aDSKjtQ1LhpmVlf7CKyjd2AM7Q6nhJUlusW+0Ptan5mZgEBdSoGDdrgxvai+JSRpn9+/l2hOrLukovoG3pOaqxL5Jc0po40hPSD3P6Yvx0oQc47QIdqxZncVxbCA8RiXtjbR4zJNj0CNTYmyildvMyLGySk9kp0l6IeL3TpErlCh0O6JGlfaSrgy1NF9/ymRy0dzeFeJM5zLS7sYQq20J6tvsmjWS0SOGvFhGTWbfzfSx7GrVk0Ylp4iLG1XyyVHf2saf6y5nsK5UXN24FO/Lkg2lKIWLe4Wn6eAMyjehkZ1WaB8Ruu8ACZJUwX0OBoSTIjnIjm7uODRyo6QkXMmn9uN/M32rSSd9OHgzWbKIqkhWX8XnbyRVDDGx2uC+JJB7ZjA2q2MYMYw5O7VjwCRtUGVW4exRKvR7LgnK+0RmnA8j3UEnk/yS1wo00swUXSI4GSb5JctX8E4QwpbbkBqBrsnKrHDuMpwhw0dmU0Yx7ONJfDXASbeaFoNKPejVwEbSkztsHt+Eln0+4vvJX/O//o1p89E67qgVlGz3BQPrZOjDU1aicaPyOqGLCdlLcLzUCB8eIkDrDiurUs+tMPmqe1CvqHYU/XEOSFadRmu9+QboYnKGFRrTuHJm60qt1x0ZBR27MDjL/U8vQ4d/wjeTh+jWeiuoYwhZOZtZ06cwM8cylYWrQvQrvhyltTWWWhdT84j79xL0tS+Sdv9eeixOOsMFChdJrxS8dURe0XdCGsdnNKP1zEOoiw1g05EfcNF3HGQmcedYnHv9yj1ZCYZLLuf3DUz0c3ImIehbWnScy2WTUpQyuMXVuxlMCcMi1On5DXO+70cls+f/dlLw19RvN59r6sIMWHmSb/NPxa3jj0SXG8NO/2nUMErEe0Qdhqy5RsHWyzj4Zx1+a9WAmaEPqTxyO/umuvNcNCxpN6McerD+dhrlB3lxYE4TXRwvJ1JOzaJpo+85q7Jl6IaTTPHIfOxqIn/pSt3Pd5Fq2pY7kWv09S/hkTcDq/VhW2yavuLlyG37En3mJ/2v7FHd/ZvuNUbh/1hO9XF72P1NnadWcEYSd39Mbc9fuCsryUivo3xX/9Wvp+DliLyiHxCGZUtT3EASHsnqunzxXrr19ko8ZN9f67mUosB5xGoOnjiDj/d6fvrxJ5b8vQ3/sNNsnd//BVHTYuzYFLdikkWmvkugTzAn/YKJVskoXtcdOyPt8qa4NEwfWR9zaB9BF33wOyVZKfLieLRwel7UtBiUoUyJfNKEmtuXLhKXYRDuO8eoBu0H9aZrtx50ybF40mtgW/2KL0dhUYFyRbWWbxpXjx4hJstjTOFUyFHua2eZ2eNQLevRboI3jxC2XIZBGTfqlNE+1ZM5vHnT80MwXob6IXduP5TcRA3xt28Rb2yDvXsrOvfqS5e2HtgV0QpNNhg50bR+celmUHNt/1/8tv8saTJTnN1qPx2GYlW/IY6mcjT3A9iwYCthj9WSdeNBU+cstqsojUu9MjoLJuGIF9uuvpq19FZQlKL9l4tZvOw3luRYfmXup630K+aAYXUa1Cuq68hIOLweL21PS2biAljtdQZtF0kh11a4ZRzyInirCGHLbRg60rNnbbRyERc0i3Gz9hOTxXueSdHH2L7Rn6gn8+QFqedeBWOpGZ37vRu17Z1o0rQJHdq3p2cvT4YMG8HE7+exIfDKi28QSLaYSzNXtO0u9bI3205ISxg74upqqZ8v6UPhBtSvbiEJaDQ7NvjzSGqsxRq0oGbmYSU6DKnV05OakhCSGMSsMVMJvp3FmwLJ0Rzbtp6QG6/6FkFuIj8Ne3WgjNa6TjrCwk9mcPhuBgFPvMDKz//H+utJoCxLt6EdKZjF0B3B20EIW65DQZXBUxjrbotM84DA2R1wc23LiHGfMembCUz8aAA9mlSnqr07Az5ewrMxs0qqj/mRL5torQgV8bfOE3YkmCD/fezb4c2WdX/z6/yvGdnWmUY9FxKuHYCWAQu3prhYaZ1KtXaEAkZ2rtQtnCFqpChOgwaVdWPI1NoFZNa4N3cju4iRgd1AJo9vhIVMw73g2XSuW4fuQ0bz1Tdf8u3/RjG0W0NqVbSjRZ+R/BX8WL/Wh4VJ7TF817eaJOPaY5xFB+eatOnanYG92uDh7Mq4dWdJlR5RNYfN42P3jMOsBW8bIWzvBBn5LSwxVsjJZ2WNSU4PbhMHPlm+kVl9XShkoOb++f1s/HMJi39YxK/L1+F79DKJxiVx79mJ6k9fWVBxeeM0lvhFoTGuRJ95m9mydRur16zjjz/+4Ie53zOoRWXpbydzdee3fLbosLRGBiwb0K51eUwkLZMpLajVqjmlM45NkyStcvOW1LAykm4a6ThKtaVdfcmCyxYTnD5ezroFg3G0MSLtwXn2b/iDn39YwE8//8nmvaFcf2hIadfetKmV7s7Kjc2xzK9EblRA+jerkyTH0NwSU6UcA8sX301950hWcotpa1g8pjFFjGSkxV/h8L5tbNuxn9PRj5CblaPdV2tZ8X1jLIS19k4RvaK5nKToMAIDQrkYeYfENCX5rW0oZVcTZ+eqFM7Ysxq3neH1erMpSo7b1z6s/cThxaC+Ooo/e7rz+e4ojJ2+5sCu/1H2OfF6S0guZ1iAP8fOX+fewzSU+a2xKV0Zh1q1qPSy2N8HxOOoEwT4HebCjRiS5aYULlMdl4ZulLPS2riCt8HLekWFsOURng7ZoCbfBfgw0i6rARbJ7Bpbm35/X8Kw5pfs3zOB8u9C2ASCt4AY7vEfQG5knD5WTHWDUyfvZDlMJPnqRlbti0CDgtK16+neJhAI8iJC2PIIhlWb07SSGWjusGFsQzoMncii3/5mk9dGNq1axtz/edKsyUh23UpBWbQt40e4vdKgWYHgQ0QIW17ByJnPf/+BfnWLY5gcRcj6hUz5dATDB/Zl+KhPmPmzN2djlZSuP4plm5bRodQLETiBIM8ghC0Pka9iF2bvDOOIvxc/zPiOT8aMZvDQEQz76Au+mv07XsHnCN4yi7aVxMvYgryNELY8hxE29s3oPuwzvvh+JtNmzmHypK/5aHB3XCsVzPJ9RoEgryGETSAQ5DmEsAkEgjyHEDaBQJDnEMImEAjyHELYBAJBnkMIm0AgyHMIYRMIBHkOIWwCgSDPIYRN8CKqSP4e4ESV8hXpPu/o899tEwg+APLuZ4uSDjG1XW9+DkukXK+leM1tS3qqXUGOpJ1hRrPGzDv+kLIDNuI/r9n7e2FefZ+QVcvYcyGF4o0GMLBhSf0MPZII7132G/6Rj8DAjNIuXfDUflBTPztnEjm/4w82BkXwSKXEumZXhnWrqUtc8wwV132WstznOkkYYF6yHp37tKZcNtn8s+LhhR38vS6QW4lpGFg60HWEJ1XM39z9mHxlNz8v9+V2kpr0Bi1DJpNjkM8Ma9vyOLg2wqVyoTz15sl/8ntsqlu/0cnpY4KlC21Y7XP2+H5DFe336QU5k5uELSWECa5t+e3SY4r1WMnxn9rrZ6STdHQKjVvM4OKTpDeKkgxdE8KUJi/7uu8z4v0n0KTLD1xL1a+fvxW/nFlLe/MMzkzKMb7zaMmSMw/1FQoqDFjHnnktMglgNjz053OPLvx56Um2iXx0WHKRnz2t9L//LSkEf9uITouOZ29dy/JRrulYZi+cgJtN3vj45X/ye2yKwm506eqBk5M77Xu2SE+6Ich7pCSjSwUjNVxTU6nBShac1x9e2aTDy4Q6mi3LNnJd2oC5hd6eT0sl9YWP2aWQnKKtlGFiZirJmopLm35l1+1Xyb6l5taWX9h4ORG5uSXp2Q9VpKS+WQdflabfF5NKNO87kL79pdKvP907NKWarWS/ah5zec9MBg6Yx9nkVzg3Hzh5N8amrESfRd7s3LeLxSPq6LI+CfIwsoI0bqtNLqPh7v6VeF/LWXRSL65j5f4oNIpytO3o+OKn1F9Ahm2j9tQ2k6OJ28/ajVey/KDnc6gusWb5ARI0CuzadsTe+O02OZlZLQbNWMSc+T8wZ8FifvhjM75HApjRpozU2DU8OLSUP3zi9UvnXUTnQQa0+QV8Nq9mvdcuwm68mKSOtBjOBnizYfU6dgdfJP4VEwG/je2mxV4iZNdG1q9ew9Y9B7l492m6qqxRxXHl8B62rV/JmvVbCAi/yYeZGyo75BRt2YOGBSSr7fFh1q85mUOnRzKHV6zl5GM1JjU96W7/Sk4lysIt6dpImwksiaDVqzj3xIXNhsdHVrLuaCwYOtCtd81XEM+3gIkdvT/vQyWt16K5x4lj53M4Nx8+eVfY1DdYPrQODlWr0WvhsUwXUsW1FYOpW7UizSbsJDntJnumd6GekwueAwYzamBnmjja03XyTu7qREbNneCF9K1XA492nowcOYA+rRyp5TGCjecyysPb2m4GUq6y5ZsO1KrmQDvPvowaOYhB3ZvhWqUCzcasJCJzgmX1A46vGE/bGhWo17wjA4cO5aOhPelcvwo13XqzNCAqZ6vjA0Fu2YJurbSWSRon1y0n9PFLRCfOhxWbtMmMzWjYqyelFK8WqtDILGjRoyXazIQpZ9exLviRfk5WxLH3Ly+uStekQIM+dCr3/j7uaViyJLZKbXPXkJT4OM9c8+zIw8IWz81LEdy6dZ3L12MyCZuG+FsRRNy6ydXLJ1g3pj0DZu0kxrgsNZxrUMxMumtTb+M3fzCf/nGRiB2f0bHLl+y6pqFk9VrYl7ZGKd0asWHLGTfgW0IfPmlAb2u7T3iI3/d9GPXDXm6mFsKhVV+GjBpNn86NsbNK5IT3dk4l6xfVIolawIwedPloKYduqijq3Jbew0YzuHc7HIoacP+0F9/0aM+0AzH6Ff4tyUSG7mLHNm+251i2sufwNf16b4r8ePRoo8vlkBaxhTV77unrM6PmxuYV7L6VgkyywDw7pGd0f1XMPbrTuqyJ9ByLwHvFLrJz7FS3vFmx85okhoVp0bsThWWv81feLCmRN7it0sqZkmKlS+X57/L9513ROL/ZTFgbQeXeP7HvxEn27g3i8MGVdCunDbg+YM+sjnQc9jORhdsyc2cYIX4H8Dl6jJVj6mIsrZ90fgW/77ibvrEMvI3tau7v4NdVYaRIVkPLaXvYtfInpk6ZydxfvfEPO8GmJaNwyhBMjN0/hU/mB5JAIZpN2on/3jXMmzGTaT+sZk/QLsa7FkH26DRLv5jL8aSXWDevStI+vu/Rg/59PBmQY+lBnz7T9Cu+OfLV7k6HKtrcD3fZvWozd7Jy69MusHq5n/SYUFCpY18aWr5mL6FRLbp3ri5JhIYbu1ew61ZW8bw0zq5eQdADFcrSHfBsav1a4vlGUd9h7y/rOJeiQWblQadWxfN8w//PC5ukElQY8BtrFvahUnqXFQYlWvPFqEa6DgfVnWtEW3VgkddfDHAumH7C5IXwGD+W5oUl10KTwPGQE6Ro6zPyFrabGnGZ6w+lp66iHHXdSz1/8YxL4tbalSJPEvNKrvjGnzZxXXKDrD2+YOaoWpLTlQELZ8ZOGkgFybpJubgJr0NvIOKmLIF9HXvs7CpTKcdShRq1q+tXfIMoq9C1ey20eaTv+a1k8yVdn+lzPDq8gvUn46QLYk/X3i66ZV8PJfZdu1DTRLoC8X6s3XDhRdcuKZQVa49J18+Amt37SQ+cdyRrj68TsnkdmzZoy1rW/D6Hz7s1Y8Tfktud345+c+bQuUTez3X6nxc2mU1nvp7UhoLPZeqWU7iWM2UNtXUmtJ4wnw6lM43kMnOkpjYrlHRL34uKSh9ykIG3sV25lRVm2u1JFsf+XWclxy97VPcOsPew1sU0wbVjR4plEUMyruaCk43099XRhB27rq/9Fyir89GqAPyDjxCQYwllz/LR+hXfJArKduyGq6XkbCUfY/2azGO7HrD7r806wbd06UWnyv9shJ6ydEe61beRppI5tGYVpzN1Itzb8zfelx5J3rELPXpUe2eunyY+gHkjBzJ8yACpDOSj8d/yp89FkiT5LuvaGpdy/418F0LYFIYYZ/EAU1hbY64TJTkGRlnc/HJLLMzTV1QlJ0k3zvM39tvYrrJ4C9q5FJZcmocc+L417UfOYc+5ey9aCxLJF05z6ZE0R5afpKvbWLXy7xfLukPE6MZna7h/53b6inkAhW0bujUpIZ2nNE5t+JuQxGfnUBW5mZW7ItDICtC0d+csBf+VkNvQpnsjrKXVU86vZ03Ak8G7EpK17PX3buncyrBt2pe2pd5hRMuoJHVbtaVV6/TSopkHzna2GMuSubJnLkObujL05xMvfSjmBf7zwpYtMlkOMRE5zxljWalLVvyb7SpKM2j+PHrZF0CmjuXY6m/p7VpFssg+4ne/a8+5raq794hVSQ1ac5e98z7i49EjXiwfTWHvTe1aGtTqVz2ADwFLmvRoia0kWqobW1m960msUhK61asIjlchL96eXi0L6+v/GQWadqdFSWPpGt1k+4odxOkfQilnVrMq8I50KYvTrm9raW9efsXfJDLL+nzy62r+XLFGV/5eu40dwec5vm8JnSpKnkDqTby/HcVPx99A6CEXI4TtA0NZqj3z9gaxfs4oPCoWQKl+yOUDv/FFp3p0/GqHfhiJhCRUOqmSWeHcbRQjRn2UTRnLqPFTmDS0nm61f4X6LkF/T2f6lElMy7F8z5w/A/QrvnnM3XvQroK2o+Yee1d5EaU9L4+CdXGvVJTU6N6XOq/xrmeW5Heje4fKkpup4dbeFWyP1Dq9jzi4fD1nkjUYVu5OD7fc4PopKODYj3k/jKC8Nvt/UhjrVwe9GBfOQwhh+xAxKk79QbNYG3yaA2um0q6ylWTBxRP60xhm7rivW0RuZo6u3cryUbP7d0yaMj2bMo1vvxpL43Jv4N2MpGB+/W4G8+fOYkGOZSazp/yhX/EtYOhA184OugGxsYEr2Xw+hbu7lrP1qmSp5KtDd0+HNxD3MsSpW0eqGEkn+mEga9edJe3+blZs1nYmGOPasxeVc9GrfCY1XHEqog1/qIm+dJmHGcIceQ0hbB8ycjMqNv+YZVuW0qm4kXS/3sF/zyHdLKPSpSmubVTqGK5ezjoO98YxcqDT0H54evamR46lD/2GddKv+DZQUrlbN2qZSrd4ygnWr/Bm7fK93NfIKNyoD+1Lv5meQcNKXelat6A0lULo2r/Zvno5PndSJZewMZ5dyuauBpaWTHJy+p2gNDaUzlDuEd03jRC2PICigBM1ympfCdLw+HF67ERZyoU62kGk2ga3ZeOLbyS8DRQlafPFIhYuWcaiHMtSZn3WRr/i20FZvB1dG9pKzVfFmeVjmeevjXvZ0Lp3Owo8F8j8FyiK0757A93L7WmX/mb8rH2SMyqnVJu+NC38ZsTzzaDi6ua1BNzT9rMbYOfkTF7uHxXC9sGgJmLDBEZOXse5uOcHMCRf2YlPuHb8u5JyVezSKw1rSlZR+sv/cUGz+WSGD3ezELfk28fZts6XG+9C+N418sK06tGMglrDNSEO7RBAZfmueHqY6xd4E8ixbdWdZraSi6d5SHy8dG0U5encp/GrfdLoTaNKIv5OFLej9SUqkkvH97Li+550+2wT96TLrLBty5Cednm68Qth+2BQc/9yKJvnDaBR9Zp06j+SL7+ewISRnWnSfBx+sWkoi3VkWM8n389TUGXwFMa5SxaL5gGBczvh5tqG4eM+Y9K3E5g4diCezRyoVs2NgWMXv/y9yg8Yq8bdaVXmSfzQiLqSG1xdGxN7k1g0olubCk8bU34nT7o6at8fefdoYjYw2KEC9pXLpxfpQefSqAOfzN/GdekaG9o25Mtf5tHKNjdZk2+evCtsMhMsLUxQyI2wtDLNFE2QYWJhjrFCTj4rK0yyuM/lRmZYmhogN7TCyiyrm0COmZU5BnIl5lYW0r/ajbyt7WpRUrXzcLo7FUUWf5nALX/xy4+L+G31Ls7fB2t7T+asXEjLIhm2aVKDj5dvYs4ANwobqom9cIBNfy5h8aJF/Pr3WnxCL5JgVBwXz844ZhwZ/9Jz946R56dAgfy6fbGwftHSkptZYplPicKkAFamWXQHGNejV6+6WCjlGBVtQ7/ulbK86Y0srDCXljGwKoj2ld7nkPbByko6HwoTrK3Nsuh0MMa1d0+crAyl62tLm4E9Ka3tfcyEzMACKwtpGQMrCli8SWFRUKyyHQV1A78zIVNibG5DOeeW9PvqT/Yc9Ga0a6E83PDTybufBs+zJBEd5k/AkQtE3U9EblqEsg7uNKhdlvwviRsl3Q7nYEAoFyJuk5imJL+VDaUqO+DsWI3CWSmwQJDL+U9+GlwgEORt/pOfBhcIBP9dhMUmELxX1NwN9yHkSgIvtsSXIUNuUR73BtWweFNDVz4whCsqEORW1DdZ2rEu3/invzHyWhg3ZfHpTXS1/m86XkLYBIJcSxInV05l5dEHZPVNzOyRobCow+Ave1LhP5qBTQibQCDIc4jOA4FA8J9CCJtAIMhzCGETCAR5DiFsAoEgzyGETSAQ5DmEsAkEgjyHEDaBQJDnEMImEAjyHELYBAJBnkMI2/tCFcmK4W44V69Jv8UnMmUrFwgE/wbxStX7Ii2cqY2bsTDsIWUHbMR/XjOyyAv//ki6yPY/N3DqvgoDawc69G9NWePs30lUxx5nw187uaqypVGvPtSyyfkLsaqYI6xbvocblKBJb09qFnrZOmlc2fcbXqH3MKvRif6t7F56vh5f2MFfXsd4oFZQqGZH+rR4+fL/nDSuHfiLTQdvkqRvSjKZHLlcjpFpQUpUro2bmwNFXnLuSItg/9+rCYlKeskXPmQoC9ajz5AmukTQ2ZFwcR/r13jhc/AIF65HEZuYijyfJTalKmFfy50m7brSqk5JjPTLf8iId0VzI7la2NTcXjsQlxHrSdDeHTILOi05ztIeRdJnZ0FS8NfUbzefaypr+vx9hrltcs6B9Mjvc+p1XkyUphjDNp5gckNtVq3suM+f3Rz5fO9d8tX9noCtn1Ayi89v61DHsLq/Cx9vvanLnCmzbMPPR1bTvsBbcFBSjvJNg5YsPZeor3gRw4IOdB4/i++GumCVxSeGko58j0fLWVzOKaGOSRt+v7CGNlkleo4L4+9vxzNjZRAxafq6LDGmdONxLFjyBS65KovW6yPeFRW8Huo77NgUoBM1reWBJo4DXtueZZnP5ahu78TLP1oSNa3lJO3+gwNs3n7zLeVWTSVVL0gm5Tzops+b2q1LezxqlUeb1iIl5gSrJ3Zm4JxQ0pMjZiI1VR+KMKJCQ88MuVczlj70GtqRqlmYWqqo3XzRvg2f/aUVNTmWlZoz8KvFLPf2ZX9QKL57tvHLnIl4NqyEqTyJaz7zWLbjnn7tvIkQNsELqG5sZ0vQHVA60H9oA+kZL9lLgRvYeeNDiASqidi6mZA4FcY1BjDA1Vqqe0jgRm+i36owy7CqNYS5+rypP/6yirV7jnNkz3yaFNOm5kvg4OJpbLn5EnNKZkrdQQsy5V99UpYy/9selMlspSaf5sdhI/nj5D008oLUH78Ov8CNzBjfn+budahauQrVannQftCXLPQK5dCeJfSpUyabREJ5h/+AsKlJjD5LqP9Otm7awLZdfpyKTHilp7c6IZLjfjvw9trM3oCjRMa91MaXSORGeAB7vTewZesuQi/ESM/zDw0Vl7Z4ceShmnwObRk4sht1LRSS33gIb+8rb8nqeYOorrJl82GSMMCx3RCGd3ZD6+DGHdrEzms5Xb83jRyrmoOYPKp+epghPoSAkOxd1tdHxYU/vmZBgNY6NcZxzN/8/lVLbLNz0VFQyKkfc3cdZUHnAvq6vEneFTZ1DEdWfk2/hnZUruJM6/ZdGDSoHwM9W9GoRhnqtv+cHZezdAwk3yGCHVOkBl21Cs07dGXwwF70alcfp0oVaf/FJm6pMj/54wlb8wWdHCrgXL8Fvfr1Y0jfzrSuUwGnJkP563BM7heEJ6RdYLPXUVKkplirXUfKF2tBW1dtbC2Zw5vW5xwHes+knPfC+2gsGDrSpr0dxVu2w8VKEubko2zeePY9XAcFtlUqUVAX8E/iQeyrPVRfiaRD/PZbgPQ41SaC7s/kT+vzJlNBf8jkWWGL2zKB7mPmsfPkLShQgVoNW9KqVTNqVyqMgeYx1/wXM6LfFI4mZm6oiQRO68Owudu59rgA1Vv2ZuDwYXi2a0A5k/sEr9lMeIp+UR0PCJzhSeeRPxB4PRkbx9b0HDSc/j1aUc1GRvTRlXzetSMLgx/ol//npEaHEbBvNz57cy6+fieyzPyeEymnNrPtVAIY16JN27LI5YVp0d4Nc6ldJoV7s/X0cwefy0gjzGsb51I0mNVqT/NSShSFm9NOmzRasp2Pe2/kXOq7F+bku/dI0D4MZfkpWMj8jTW6R4e3sOeq9uFsQJ1eg3Ayzc5S+++Rdy02Y0vK1PHkm+VBhJ07znavDfy50ottIWFs/74FltI98PjM3/y9N5PgxO7k57+Pkywzp/m0PexetYwZ0+ex8K8dBIcdYfWiIdTMEMC9v28KH8/1I05WiGaTduDvs44Fc+Yy66f17AvazpjaBSWD7hgLJizizL9qVEns+K4HXbp2wrNbzqVHp24sDMjGIs2WFA5v2MolaT/Na7enWcn0OEyhZh1oUNBA0o2zbN14JPe61ylH2eR9RpI3Y+q0a0cxnUtmTdMODXTXO+XsFryPJaUv+654FM7vf/oiPSqQWbnTuN7Len5fhzQuHzrOba1gKivi7lEuDzfm1yfPnguLlrPZt/NXRrepjuVz437McBgykubFJHXSxHHqxDl9fTop1y9y7aHkLCjK41K/9PNZv03L07idO4WfdNmrI1m/ZCMRaZJR2Ggis0bXfs4VkFvV49NJ/XUB38enNrD56L9pVEqKV7HHrkIFypXPuZSv6oyd7WsGiJNC8Np+HhUmuLZvh82T47T0oF3jEpLVo+L81vUcS3r3Vs+rkBiyiV2XH0nXyZW2bUo8vbkLNGqPRxFJmFVX2L4pWJLvt0Nq3HXCjx/jhFSOhvji/fsUBrdsy+yDd6T7qQhtvvqW1i8bYqGJxWt8LZyqV85UqlC37RTCkjOe9zSuX7uZ3ptqXIaK5aTjew41cRGnOKnfn2flOKfO3yJZv1Re5b8p8gYlKFVE29enIf5+bHqdHrmlBWbaBq26iN/eCy9tBKq7+9kXGiNNmeDWoQNFsxijlM/BFedC2kYVId1k0fraf4ISp4/W4nf4BMGhOZcg/1X0tnu9kXFxfpvYEymJr7k7bVvZZrg5zGnYvjGFpIq0iG14+Wvtj9zGQ/w37NbFPwu4dqCJTYZHkkUD2jUpJR2Piovb1hPy8G0Is4Y7OyfQqpE7zaTSUhK0weOn4x12j/xlmzL+910sGVD5+QflC6h5eCeCyMjM5TpXzlzhznPBuTTi4h6nj9MztcIsc4eBZL3O7tqIpvr9eVbcaFTPla93xOsXzJv8N4Qt5QHXww/is90Lr3WrWb9uNxfitJKlQaN+PpSrLNGMVlr3UZOA73et6fTRIg5cissy4Jt87hQXH0u3ltyU5IidrFuz6sWy6Rj3dWdZTcztfyNsb5s4fDft445KRkG3DjQq/HwTtKjfjibFpYeBOpq9Xr66gHWuIm4/XnuuoZaZ496uJQWee8iY4t6hKUWkQ1JH7WLLgX8f78wKmZEFBQoUxNo8n/QY0mNQFLc+4xjSpkLOo/214Y9vpHt0685MZRdbN0+mfr6MxyTj6SGmpfFCf5bcnCLFC1JQ2h/tPumKlWn6fmkecPtu3rbZ8rSwJUXsY8GoljhXKEWt+s3w7N2bYcMGM2rkF2y+lE38SXJBhy6cS48qVshUMRxePoFude1o0O0T/gqMeC6+lHY3hljtHaW+za5ZIxk9YsiLZdRk9t1Mt/vUqjfWH/bG0cTsZfO+SDQyM1ybuaFIiJMsggfPSmpVmnporR4NN/as58D93HUst3dvwvdOqqQNrjRxNSIh475LRW3fhAbFJGHW3GXvxt2SjL9pq01G0Y4/ceLSdc5dv835o9583b4yRqk32Pm9JyOXhL9CbNKAwhVccHWrn6m4U8e+WKY3UxRYSkKl1TZNQjS3EzKNMVRWYszGM5yR9uesvoTtmkg1w0yWXR4lzwpb0rk/GNCyK9NW+RPxKD/l67aiS5/BDB4+kiHD+lG3aOaYxDMMynRi0d6DrJ4+FLeylshV8Zzfu4zP2tejy/d7uf9koKdGk27Jyaxw7jKcIdptZ1lGMezjSXw1wEm32j9DzZ3DK5g/Ywozp+dcZs35m+OxrzqgVk3Uzs3430+TjimeLR/bU6F0sUylLAP+Oq87Xs19XzbvjEo/9n+DTCY1TG1DU5GaU8eKOo00/YNBJpc/s1a0SFbkLq8A4qVNaOJ2MtqhxIv7X6kzayK0MU4N0fs3sO/22xxsrMCsbGPG/LyKCQ1skGni2D/7WzZpg7FvDAPKli+R7tqmnuXE8dftKMrb5E1hk2709VOn43srBZm1O99uPUngzvUsWbSQadNnM3XqJzQsnl+/cDaYlKLR8PlsCj2N74pJtKlkiUz9gOCFI5m5Jz0upzA1R9fDLjPFufdkpmq3nWWZxeRvx9G4rDau909JInDZZKbPnM7cWTmXOdMnsTb0FTsr1DfZuumgzr2UG5lhYWGZTbHAROfLxOPvtf1fv2IlN8mPifb8qeOJjclhX9X3uR+bbvMYmllinqFDSPumxObA29KUHCNpXtb7LhVzk3RXLM4f7+23/r0w54RhRfr/rxellTLpeeHLr3+8yR5lBaXq1aGUNramvoPv1gO6nldBOnlT2FKO4h90R3o2/7+9s4Cr8nrj+PfeS0mDgd0BBqGCAWK3YnfMmrnp8r+51jmdNXWbzjmXdoLYDWIgKAZ2iwFYiIgSN/7ve+/V0Threne+n8+R67n33PvGOb/zPCfeR4Vrj08YWrfw05+o0pGqbT/gl+DZBBSXnAFJNEO3HNC/ZVG+LCXlKNxSxTp/9vYLbiiWeHXsT68ePenaPf/Urc8QWtd4smc4qC+tJXi/PAliQ+spBzh96Rpnc0wXWTC0ht5KSNizio3PaIGYlylHSUtZoFI4Gnkw532URjR3DhJ1QZZeFaVcXSlgyJbQcGHtGv1OCeya8V3E5RyO25jOBNO/orzcIpndgUFcewmLja19BtKvrrzKX030st/Zfe/51RIrr460r2onvdJyOXA6C6KF1fYI0xQ2zUNS0+UKpMChoLPBXM/IgzjiE/7ZpL+qUC08y8tPrNCR8tBQgczL+VGnnNxQUokIWs2VF9pQVJRr/ymz5v7KnJ/zT7O/H0vDJ1ruoeZU4BoOP5SFwZfWLYrmUSks8Q5oaXiqRkoEa4LOPJOYqyRrumFNeS+nlgtBcwi6mJs9k8Lh3/9gT6LkPqrK0rSlp+SIGVGf1e+UkIfCneu1pVGWSY9MWNaifatK+vqQFLGKDeefn/2UK6oydO7dEDu5/4sLZlHwc9yMb1adge920E+K8CCSaSM+YtuVl3BOrwGmKWzmZSlTXHb71JzcuY3LGcZvtIlRzB46jL/OPjDmZETL1ZVjGTVhBaflRpSB1HMb2X4sUXplTgU3V0OmRU169/bRWw+Je6fw7pSd3Mo2PSU1y7go1q/aRWwO7/3rqI8TuOaI3kWShaFxXsIgYeXVnpZ6qyeNA0GrOJNtbEzLw6SbxMfFZk/xt3mY0X1VlabrsPbIKzN0Cdv4vN/bLD+axfJVx7Nv7nCGz9gniZcCl2aj6e/9t0ufdjyIdUfl+2JDvTatssyGZsWCWgGt9K4haYcJDjxuWAf2QlFSvE1vWhaX103eY/uCJVzKtQPM49rFxXEj4X4WUVRSLOArvuldTS/094//ysC2nZm0IorbWX9Dk8DJiGPcfm6q+mpjmsJm4Un3nrUNgrNnPN06j2TyrFnMGDeczv6tGR+ioE6dMtktOana3DofSeD0ATTxqEmXgaP49POxfDyyM01bfcjuuxrMS3VhaM8Kxs+rqDpkAmPkLTu6u+ye2hE/3/aMePdDxn0xlk9GD6RnM3eq1WjAwHfm8LIXvT8JKVGBrD95X3plQ93W+QmDhIU77Vq76q9d6vE1kqhksXx1CawcWZ0abhWzJ9cqDP/ruvGDMkpcWn/JtGF1sFbouHd8AW81qabf/ta3Xx8GdG9Fwxo16Dh2BZdTddhU6c9U6d6UfLxmSxLXVWsN4mpXn1Yt87I2DVh5SMJcWR5fVXNkzapn3A3yhDg0pleHKvprlnxwMctzW6id17Vzq0D1ql1YmNX9VxYlYNpSZr5RSz/em3plBzOGNsCjsgetAjoxoF93urdpQB23SjR/e7HBq1DYU6jgkw1TvK6YprBhRo235jBjcB0cVanE7P6L6V99wqSZCzhEfcYu3sCUjm5YqSywdcj4QEQzqnUZTo9axSVFPEdY0B/88uP3/LZkM2cSoKBHH75bOIOWGVePW3vy3oJVTOlfn8LmWu6c3smqP+Yw+4fvmb9gOTsOnifZqjQNenfGPWNdUljj6FgAldISJ2fDtP3LR8PVqKPESWaLZYk2dGmdvzDIVo9n5854OhgWHR+MvKK3IsxKVMG1yN8jXzljjqVFll9QFqbF16tYNWMoPiUkwdEkceXILrasC2LD1jBOxiWjsyxKvX7TWLX2e1qVyHDtNdc5fOQ6WoUlZVv1oGk+1qYeixp06lIbW+mj6VcOEJXXY4SeBKU1zs420n20wqmgQy730ZI6fftTt5CF9H4shw9eMuYbeLJrJ2FmgXlOp2hRnm4zN7F1yXi61CmNvNwtLeE8UWFb2LBuPSH7orh48yE6c2eq+Pdh7Pw1fNFGHpszXUz8Cbpa7p7dzfZdh7gieSsFK9ahRcs6uOgHrPMihdijoew+cIbrdx6gsnWhgpc//nXKS3ZN7qTEHWV3WCRnr9wgWW2GjXNRyrh6Ubt2NYrk9WhogQF1AucP7iUy+jzxCbKgOeBSrjo+fvWo4JT78hxBRrQkxRxmf+RRLl6N516qkgIOBSleoTqetb0o62g611E8GlwgEJgc4tHgAoHgP4Ww2AT/YbTcjN5O+IWkPKJD5YQCpWMl/P2rYZ/fZIvghSFcUYEgJ7TXmNupLl/sumPM+AcUaMP8M8sIsBVOz7+FEDaBIEdSObLkW5Yduss/2x2mQOVcnzc/7GJYEyf4VxDCJhAITA4xeSAQCP5TCGETCAQmhxA2gUBgcghhEwgEJocQNoFAYHIIYRMIBCaHEDaBQGByCGETCAQmh8kKmzpmEQNrlsetWivmHHp1Yyg+Ps7q0nEeMfX43ALBy8Fkdx6kHZ9KqybjOKYuxtCVR5jQWH6c9avHq36cySeC+Hl5OAnp5hT06sKbXT3zeCadllsRi/h1/Sl0xRvzxpCmFMsQTSozWuL2/cWfG8+iKNuCgQP8KZzXhnLNJTb99Cf7b1ng2WUUHWrYG9/IQNoFNv78J3uuP3gcNVQh9d1K8wLYORejoqcvjfyq4fRct0GlcW7TXJaGXsUQl11G+lWVJbYOBSnh6oN/ozqUtsv9IZipFzYzb8EO4lO0j78hOyqK+A7m7XaVcrdGNAlEb1zE8jVb2XfoBDFxt0lOV2Ht5ELpStWp5ducdt274l/ewVjg9eY/uaVKCNtzQHuTxQN8eXftNUODs2/B7PAVdMs1SEwauz/1p9ucaLSFerL46HyaZopenpFUtn9Qjz6/nobib7D84Gz883oY54OV9K00iC0PFPh8spvgD2tka+ApkeNo3GYq53ONKaDAtmxzRn/3I6Mbl3g+7kraAT5v2IafT+UeG19lX4V2o6cy8d0mOYh3Gvu+bELn7w/lG3/BvuWPHFo6kOzPvtVy+8DvfP7+1wQevZn395i74DtsFnPHtcPlNX8yidhSJXgqNPGbCNoVJ4maGWaylt0LI3BtjNSMXlHUamOjLoBbywH0HzBIn/r06kwj9xJYSmdy/9IWJg3ox7yjzytUnVr6WYOQ2lRqQV/jb/bt05PWDapTyEKB5t5p1kzoQb9xu3KM/amRjluPVSVa9DeUz5YGvsmwHvVysJa1XNnwPzp1GsNKWdRUTri3HcH4eWvYsCuKiEOH2LFxFbO+HEkr96KYp8ezZ96PbL724sPY/JsIYRPkgpaYtYGEJ2qw8hjCsEZFpLyHhAcFvuAwg88BhR11Bkxm2owf9GnGnAUsDz3Mphld9KHqdPci+OXnbeQUp+zpUeBYawCTjL/53Y+/8mfwfiJC59G+rBzP4CFRv3zDygu5h8dT2NZi4LffPz7uTOm7mXzYyTVbg31w9HuGjZrHqfs6VIX8+HhFOFsWTmN4t2bUrlGFsmUrU71uK3q9M5W/pGuw/c+PaexWHEdr0276/y1h0yRwZs96ApcsYs3m/VxJyrvXUiecI3zTKlYsWcraLXs4e/PJwkxpEi8SsXUNq5YsZPW6HRyPzd1NeWXRXGBNYAQpmFMzYABvdvbXx8a8fyCQdWdex9iV1lTr+wE9qsljczriD0dy4SVEqLJ17cn4MU0NAZ4fRrFn3119/nNBc5ZfP53JgbtSPS7gzpjfF/Ne45J5NGo7XAM+Z1nI7wQUFML2+qNL48LGb+he240G7bozbORQ3uzZhDrufrz3RxTZZCftImu+6Ih3dU8CevVn1MjBDO7RAt+qkqvw9iJicrFYtHePsOCDNni5utOue29GjBzG8H7taexemaaDprM//hkjIr1E0k4FERwlNUILL9p2cKV4q440LGgO6dGsDTz6EuJxvgDMylBGju8poU1JJuWl+NRKClapjIt+wkJN4t17z82Vv79Xsgr3yRH8Vbi9MZHRfnLEeYGM6QubLp2TiwfS8Y1JhFxWU9S1JrXcy2JnJlWzu0dZ+H5X3l90IUNlu0/o+H6M+mEr19IL49mmP2+Oeot+XZri6pTM4eD1HMthVYb27l4m9ujIB7+GEocL3u3eYMiI4fRq6y25P4lEB35Bry5j2ZvwrNU6lSuRm9iwLpj1+aa1bInIHOrtyVBzNGgdp9J02Hl3oGUZ6WI5NaF9k5KSwyW/t4Ijqa+4O5oT6qtcjTPcvAIlylHiJQVsSr1xgwR9sGwrChV2fE6NLpX9a7ZwVf5ec096DvCVbFLBI/4DwnaTsFVbuOPSgi/XHOHAvjA2hkazf90E6heSGqw2nqCJkwm5axAc3Z0NzF98lDSFA60nbmHTop/4ZsJkps8PZtfRw6yeM4pa2UJA3mPb1+8wO+IGisKNmbAukvUL5jBx4nRmLQxh19ov8XZUcf/4PD6fuY8sIYb/GSnbGN+zJwP69WJgvqkn/fpNNBb8B6QdZHXwCUnCrPBpH2AMUOxAkw5NKCS9VF9YS/D+5ztC9eLRErd1PquPJYHCicbdXtKs4INo5v+yhXuS/igc/GjW4DkttVCfJzIqVt8hW1RuTMPyIjxhRv4TrqhZsXbMCFrMqAYlMNx+JYXqjGb6B830vZw2dh2rtifo30mPOc/l+1J1UVWgboMymS+QVWn82vpmaxCaK6uZt/Kk5J7Z0eJ/3zOklpPxHQNO3mP4YqCn5DCoOR64lKiUZ7B2zEpRo04NXF3dqJJvqoqHj7ux4JOTHL6aTecl4bKtR7t2pR9fA4eGATQtKbly2itsWBn6nAffnycpXI4IYvXK5fq0avF8ZnzYlfZDfuGyugDV+nzHuN5Z7u1zIC3hAocjIzggpf27NxP0y3gGtWrP1D030KlcaPPZOAJyXSojd6prGOlVkequFTInt0q0HRdKppFN9WUuXTXM7NqVd6WseRaR1t7l4uFI/bFkSgcOcOJKTnOzpoXpC5uiIF0m/EC3ClbGjEeoKNupI9420iXQJRF94Jg+V+nkhJ0sXOoz7Nx0UjL480PLzZCtRN6TxNC2Ph06lc3holpQw9eHQipZRI9w+MozjLWZuTN6cRi79h0gLN8UyZYFbxkLPin32bVyM9clF8epXkdaFMuwsNTGj44ty0vnp+Xy5pXsNlq5rxy6e+ycMYzhbw7UpxGjxjBp/mYuP9BRoIwfLf0rYv3cjTUdNzd/RvsWjWkjpfbtOzP0f5NZF30b2woteP/XDcwdUs3YseaC9iEJ8XHcyJrirnPpUrzULWZAnUTSA/n6K7B1sCerXKYcnk2/5oZjyZSaN6Sx/3A2vKr37jnxHxA2SxycbI3/yYzK0ZUqJWW/UkPcpYv6PLOSrQioX0SqLvcJGd+WDiOnseXU7QxjcFlJ5/Txs3oBVBZI59y6BSxe9Fe2tDrymvSdEro7UmV9hScREncSuOWSdL52NOjQhoKZrFMr6nVqRWnJNdXd3MKarfLA9auIJWXrtqFN2/aG1KYV/j5VKVxAycPLW/huaBNa9PuJUw+f7zihsoATRVyKUkSqb48NKLMi1O4ygkHtq0hHlTcK+xZ8vWYLwRu2Zk4bt7NyYnvDzOojFApDfZJQq9WGBdQZMLMvSuni0rHIx2NMhe0NR6B7cJvbelE0XUxf2PJCVYhCToY+NC0pUf8XVVkGz/iOPjUKotAmELXkS/r6VsW302h+C72Uw/iYhts3E/XCp725g+nvjOSdt0ZkS+9NDiZOnkrUaclhs8crQ/zm1ey4ITk9dnVp5KPizq2b3MqQkss3wr+01MR0CewMXM+tfxbe6eWgcKDRmN/5Y+FSQ1q0ipWbIzl6bBeTe1SXBCadyxs+5/2ZBzK7d8+EgmIdZnPw1HmOXYjn9OHNfN29BgXUceyY2o+h0w/kb/1bOFPRuz5162VJdeviVizLwK7KEUd72ZrWkRgXS1KW+2BWcTCLj5zjmHw8+nSWtWP987YYTYj/trBJlTGn8WOzMh34buteVkwbRePKBTHT3ud8yK983LkenT7bwM0slUirNfR+SqeadB8xWnJ9cklvjeHd8VN4wyfb7MOTo73J3r8mMWnCOCbmm8Yz7Y8wY8EnQBvHpsAw/UA3SVt5z6c8VSuVzZzcOvDXBcPo2q2w1WyJffqFHwrJ6pDRadToJw3zIv3RrgKpTauertqqnL0YOPNHBrjK6/dTOLh04bONd+aBbWk/hs1ZyuctSqDQ3WfP95+zNI/Fuf8Y80pULGOYB00+FcVz20hhIvy3hU1zm1t3DZXN0sFZ//cxliXxHzyFZfuOE7L0GwLcnCQL7h6RP73N5A0ZA+wqsbW3NrgF1u70+mIi4yZMyjl9PZGxo9pR1jIHNX1SUvYx/6tvmTF9CjPzTZOZOuF3Y8H80VxdT+DueOmVigL2hShYMJfkbIeFXOD+XtYEX8zDTc8LBda2huumS7rFnXwERn37Fnf16wcV2Dk4GjKfBit3fH2K6Su+Nv48F5NejLDpkaz/Ph/2p5Lsl0rX6rdf9j7BmO0ToipOvXoVpDslXb8b21i34ymCPpsw/wFh05KelnPT09w5xokYuatTUaJiRUNmVpR2VG75Dj+vmUtn/YzgDXZt2W98U8acsuVL6CuY9tYFLt55wUtXLT3pPPQNevXqS898Uz/eGNbZWDA/NFxYu4aD8oywbWMmh5/n5LnLOaeT6xhYxWD17F+9iktPtcXKgnLlSxtco5QjRETc1+fmRkLkAc6kS8emKkllV+dnqLhqUlPTDWNSKkssXrBvVsCrP319C0uvNJxa9Rs7nnkd4yMs8OoSgJv84AB5ydLMOZx4Qdbn64jpC5vkXq2cOIF9d7IO2Gu4GBREZLJU0ZSF8fGtbszPGVXBWniUlxuzjocPM9r9KsrWr0sZea1XaiTBgWef0oJ5QlSlaffx98ya8zPf55vmMuXDdsaC+aA+S1DgQb1F4VS3HU3lTZW5YeFOu9ZV9GL+4HAwwSeebmVeQf9GeMmz0lLDXPvzQi7nJpCp0fz+63Zk40pVogktamad4X5y1DFrWLHT8LSSAm618bB9Buv5SZCEuFOfJjhKP6O7uZHFqy4/t/ph4TaAd7pU1Dfi+1EzefvjIK696vt4XxL/AYsNko7+yICuH7Ppwt9Wwd2oOXw4fQeyRJlX7EZ3f3nmVEvMyrGM/Ho5pxIzW16pFzayPfqe9MqMClVdDZlGrGr2oIePvJ3lIaHT3mJ6yLXH40F/k0bcoXWsDn1a1+3FknY8iHVH5QkUG+q1bZVlNjQrkrUQ0JqKsoulPsba1VHZB+G1Kdy7EUt8XNYUx42EZP01MCvTlaGd5eeL6bi180sGjvmN4wmZr5z6ZiRzRwzkh0jJ1VLY02TkSHxyfRTSI7Sk3LuZ6Xevno1i28Kv6NvxXbbckDo5ZVEChvej3HN9NltOKHFp1ZtWpWQxTiZ04QLJ8sxFfHK9ZlKKj+NucpbOWVmItl9MpncV+UFGKUT/OYgO3T5l9aH4bPVPk3CC8CPXXsm69yIwfWGzqUXrZqVJOvQT/f08ad6pK/071se39Vj23JIqimVlBn/9Hp76Z4FpuXM+kqDvBtLE3YvOA0by6edjGTuyC81avktoghqzEp0Y1jvLM+pUVRjyzQfUdVahuxvO1K7eNOr4Bh+O/YTxn33Ae292pXWtitRs0oOPf96lF9NXizQOrFpraHB29Wnd0jAGlRcWNdrS0lXuDDScDF7B4SxukO5OEMM8K1HDrWKWVIHq1bqx5LrcSJ1o/dUMhnoVQsEDji0eTXOPqjQP6MLAN3rSu109vLya8kWgvJ7Qkio9ZzB5cJX8K63uFkuHVc/0uzV9GtD77ansuCh1buZFaTb2d77u/JyeyZYftg3o06Wa3sJNObaMZeE5L23O/ZpJybUCXt2+z7ZPWVWkJZOXzeMNT/kaphETMovhTapQtVYDunTvycA+AbRv6EFV1zq8s/SEXvAUNoUoJJ7u8XqiLOCAfQEzzBxrMPiXNfw4zA/ntFiOhGxkU+gRbqbpMC9Sl1E/L+fzFkWMF8KMal2G06NWcRT3zrN7zZ/88uP3/LpkE6clg8G5Ri+mLZpFa5fsq8dtPd9mQeBs+tYpiYUmkdOhK/lz7ix+nP0TC1du5OCFBKxK1aNrx3qZ1iMprR1xsDZDaemMg82Lth5yQXOdw0euo1VYUrZVj7zd0EeYVaNjt7rID4bVxB3i4CXZZlNRws1V/wyyPDG3wtL4E0rnhny1OpipgxtRrIASddJVjoRtYn3wWrbtOUp8sgZLl1r0mRhE4A89jNu7csashCtuLjnNOCsws3KgaIXatH7jc37bvp+FH/jjmKdV+oQobSjobINKaYmjs71+MiQ7FtTqPYAGLlYodDc5EnnOmC/zhNdMwszcgpweSGxeJoCpG0NZ8GV/vEvZSnU5nYQLUYRtXcv6DdvZf/QcCWnS5xwq4NfjI+aunkFLR9MWNpN9gm52tCSe3cWmnYeIfWBOoXJeNG5WnxI5ikkKcUd3EXbgDLF3klHaulDeswENfcpjk29jSCUuOow9B05y5WYSGjNrnIqWw9XDG69qxTMvshRkQp14kag9ezl2SXK77quxsHehbHUf6vm4UfAJGr5AQnufK0fCORB9hqs3EiUbzhJbJ+k6unlRq5YbhZ5lRv4V4z/5aHCBQGDaiEeDCwSC/xTCYhP8d9HeInr7Hi4mZ5/DzhOFEsdKDfCrWlBYBv8iwhUVCHJAc3U+nb3fZd9TPErXofksDiwfjEMu0wWCF48QNoEgJ1KOsnDibxxJ0hh2IjwpksXmXGcIH/WooV/CIfh3EMImEAhMDjF5IBAI/lMIYRMIBCaHEDaBQGByCGETCAQmhxA2gUBgcghhEwgEJocQNoFAYHIIYRMIBCaHEDaBQGBy/OeFTR2zhGF+1anl05n50c8thtBLQsOlJcPx93DDr8cMTuX2yGmB4D/Gf35LVdqxKTRvMp6TmmIMXXmECY0NsRpfD9Qc+rYFbSfvR1tiIKsP/EB9/SPOXxFSzrL+j5Ucu6PB3NmTjgPaUj6v49MmcHDlH2w/n07phn3pXr94/j2v9hYRy/4i5LKGck3708XbJc8y6Ze28vvy/STZetBpULu8j+cZeHhmA38GRnFXq6KwVyf6tXI1hCzMhfSYEBYs20V8qs64b1WBQqnE3MIaxyIlKV/VG2+vstjl9AjdjKhj2PnXEsJjU3jUshUKJUozC2wdClOiQnVq+tSktEP2p0C/boi9onkghO1FoSV+2SDqj1ihjy4lR2fvPOcQc3u6GN7OibRwxvq259dzDynRcxHhP3XA0vhWrqTu4j2fTiyMSaPCoNWETm+ep4DcWNCLmqODSTOrw8SIzQwp9wLi70liu2RAfd5Za4iGpXBsx7wDS+hQMDfJTSP8qyZ0mnUohyBAj1BgVdSD1v3G8N6oblRxyPk+pxwYT+PWUzifR7QqhaULnq3e4K0PR9O+mpMx9/VD7BUVvHy0N9iwOkwvakrJ8kCXSEjgumxR9E0RTfxGAnfFSaImWUryqd8NIWh93hGi1OnGCFSWFWjc81Fc2J50bNcCn2olsFbqSIk7TODUgbRuNpDlJ3MOCEN6ulEcLanUqJfxe/rQtXMATerVwMVGhS41nkNrpjC4RSNGLzj2/II4v0IIYRO8EOSo8mv23gAzTwYMbYgcfO7O7pVsvPoPH+r42qElZm0Q4YkarDwGMtDXWcq7z+5VwcQ9gagr7LwZ+t1cY1zYX5m3IJB1u08RvX81n3SqjrVkqN0/t4J3e7/D5rgs4fgyorCl7uCZxu+Zx5xfl7B0QzhHTkWx4KvuVLSTmv6Dcyx9rwefS5alqYXlMzlh0ybHcTIihK3BKwkKXs/e6BiS/00rQZtEzKEQNq1ZxbpNIRyNuZtvJbp/9Sh7NgcRtHoNO/afIiHtdbNyNJxbE8iB+1oKeLZn0Mju1HVQSQ1pP8HBF0yuEWVCc5E1QRGkYE7NgDcZ3sUPeXAjURKmjZfyEKI8UWJXsSXvzN/EX2Pq6b8v/dISvpiwkcR/9iQ5lLYVaTnmV9Yu+R/usripL7Hgk/GEPLcI9a8GJiJsWm4eXMgX/fxxr1iJhi3b0ueNNxj6Rnc6+lelumdbxgee4YnjlatPMbdfHWp71GLkHzlHdtdcXc4oeTbVO4C5h3Iy5tO4tHEC3b2r4N2kLf0H9GdQr7Y08yiPV8v32BSTLcQwidFL+bijO9U96tGpZx+GDu5Nz1a1cHdvyPu/7OPu6+LGqc/oo8qnYYF3QCcqlmhFe195bC2ViNUr8hz/ed1JOx1I8MEEsKhJuw6ulGwdQH0nSdRTDxK06uSzibrSCf+xMxlZSx4X03Ix6CeCLz+NBaykoO9HTB9dXz+Gqbm6ml9XXDKpDsc0hO3+Wj7q9hZz1x3kps6ZSt6Nadm2HU3queFsriP5Sig/jujLzH1JxgL5oLnNxRPniYk5y5nLt3Mc0NUkXeHk2UtcOX+Mizeyi1TS3kn0H/wtIReSKVKjNb2HjGRw307Ur2TLzcglbMgihnf2TqZXh6H8FnoenUtN2vQZwpBBfWjmXhxt/EEWfNSJ/pP3kGz8/FOjjuPori1s37o5/7RtJ8fjnrg7eEzasSDWHZOutZU37dqXR6ksQqsOfthLblRKdDBrj//z73w9UHM0cB2nJAvbzrsDLcuY6QMaBzQohoJ0DgWvevYlORZV6TeoMXKoapL3s3V77FMKkgXV+w+ggSy6PCBi8zZum9D4p4lYbFY4lalN7y8WEXryPHu2rGPBwmUs3XCAiG2T8StoJvWYJ1j02+ZnF4YnIoH1cxdx6iEUbPwt67avYObUqUz6YSFBEScIXTmXvj7yqJORxO18/dZUDiToKNZ4PMF7d/HHj7OYOH0ei3dGsPyDBtiQRPjMj5h/5NmGepM3jadLx0706t45/9QtgMFTQowln5Q0Ilau5ZzUgO19OtCitGFZQeEWHWlYyFxq+ydZu+qA1MxNkLSDrA4+IcmbFXUCAiihD+7sTPOODXGUXqadXENwVIrhs0+NkiJ+DahmKTfdNE4djpZ+7+lQFfLDr7qD/nXSyUOcNKH+xjSEzbYl03duY+a7HXF1yrw+x959CMPalpNOVMet6CjOpb6EXkkdw9mL96QXKir7+lPKPOPUvC2VmnTAp9ij49RyaflcAi8+RGHfhI9njsFDbgWPkNwP3w/G0buyjVSPowlcEWl84+kwL+lGzapVqCC57PmmStXxqlbCWPIJSQkncP1pycq1xrdDAEUfBZh2bExA01KS5aLh9NoVRKWYnjuaHL6aTecfSLfYl/btSj1uXAWl+93YRRJ1zQXWr9735EMiuaAqUo6ycmct1Z07cbE8/IfjbI9RFqZ8OWd9OBrtnVhuPBQW22uEOaXKGBZtau4lkPgy7p3CAQd7ueJpOBWyhQt5NWLtTXZsOSA5A1Lf7teZNqVzCA9i6YGfT1G9KFw6HGXMfDosPN9m2e4o9kUezj9F7OOnwdWMJZ+MxNDVbLkiWSX2DWjfpliGCmZPow5NKSxlqGPWEbjrCYcFXhvus2vlZq5rdBT07Uizohnuo0NDApqVka6FhrPrVhB+/xkrodIWG2tDx6hJSSH1qQfHlNjYFjDcI10KDx+aziibCQpbGndjotm3bR3Bq5ayYtlSdp66o+/TdFotL2UYQVWKlu28JZtFR8LuL+nUfiTzt57OeXY2/TTHz8rWnRIrydLbsHQJy5cuzpJWEn1Lo+9Z02/F6Yu9miSyY/U2bmgUFPLrSJMimUXawT+AZiUlF1wbx9bAHS9pWOAlkbiTwC2X0CrsaRDQmoKPLFU9tjTo2BwX6XJoYzexJuSuMf8p0aWTlm4QIZWlBXqv9KnQkZaabrD3FJZYWpmOHJjOmaTGsHXWCNp7lcPNoy4duvVgyJDBjBo+lHErTkh95ctERZU3v2NqPy+sFRriD/zFJ9298arbmc/nhxKbcfmG5ha3EuQRJy3XtnzLmBFv8la2NIxpGw2zVjrNq7sOTHdrK0HbrqBT2OHbwg9VUiKJiXf/TunVaN5Ytlx0XN2ygpA7pmMhxG9ezY4b6SjsfWnma0lSxvOWkrZGMxqWkERdd5Otqzb/42UamUi7aawzCuwKu2Cl7/KehjRu3UjU1yuFXWEKFXja73n1MA1hSzvN/IGt6f/VX+y/dB/7CnVp3e0NBg4byZvDR9DD7+/xjpeGWTm6fb+Fnaum0a9hJWyUGu6e3cLPH7ajSbvP2XPz0ZCvVrIk5b+SlVOzK0OGy8eccxo6/D2++PpNfamnRXMrgkXTvmHypAn5p28nszzytrFkfmiJ3RjErjvSeenuseadGlQqWyJLKs/AP08bBPrODoI2Pu2MXkYUKIztUZ2e35SEFrXaGENU3j+Zyap6BiQLdFNgGPekL9YlbuQtz1LZz71KF5bGyBMHOuJ2rmRb/NN3UCknj3HmgXzlVJSrUoWn3hSWdopjZ2RvASzLV6HCC9hd9m9hAsKm5frKb/h20yU0CmeafLaB8Iht/DlvjtQwp/LNpMmMalb+n52o3FKMrUWreZamZ025xiOYHhTFod3L+aijvHJcy+3IWbw3fpPhI0o77Gxkl02Bo1c/vpokH3POacKkrxneqqKh3FPyYPd8Pv9mItOnTMo/TZ7AtAX7jSXzQXuNtasNy1GUlnY4ODjmkhwwDA/dY1fg+mffYqWwxsZavn5a7t+5nc/2IC13bt81CJuZvXQsz6f6y7ssgnbHS6+UWNrldM7GZG+N/tQTdxG8/vpTinoahzdu47K8FtCsEvX9yj51I045uokd8mSHdFRVfP0pqZ/FNQ1MQNjSiAiN1O9JNCvfgw/eqo/TM/fEVhTQD1zoSL6Xs9OgSU4m5YlrphJHt7a8/+tapneVRVbL5RCjsJmXo1ypAtILLfHnzpL4ggcBC3i1Z3CfXnTt3jP/1KM//dq7G0vmjfrSWoL335Je2dB6ygFOX7rG2RzTRRYMNURQT9izio0xT7tYwYhZacqXstG/TDi6n+jkPK6f9g5RBy/ol0eYl3al4nNxvTRcWLtGv8sCu2Z8F3E5h3M2pjPB9K8o7xtIZndgENeeYqGy+uJSZiw4qh9asfHsQgf3vLb854HmEounLeScfAyWHnTq6mlSUe1NQNg0pDxM04uPyqEg+vWGmXhAfFxCjuKUK2bFKFpIrjCSNRh9mCtZK2DiXqb87xdDpfgnKAtRs2YFfQXSPnxoyFOVpX69cvq8pAOBrLv4jA09H8zKtOfTH+cz5+df809zZ/N285LGknmh5lTgGg7Ls2p2vrRuUTSPimWJd0BLSsvWQUoEa4LOPKXlYkTpTIPGHvoV9NqrQcxbdj7X73tw9A/+CJUnX1RUataaqpbPQdjUZ/W7LGRL0bleWxplmTDJhGUt2reqZLjXEavYcP6freZLkTqPjwd8ys7bUh0xK0/f/w2lUqalRE9I6iWCPhrA+M1XpXYhWWt9xtK3ar7PUXmtMAFhM6dMuaL6ypJ6eiehFzJUFu1dIn8axlu/GHq4J0ZZmFre5fVuQ+rhX5m27NzjBaWpV7cxrldf5hy6q39yQ05orq9i7NCvWHc8IXMjSzvPpi3H9BaDdUU3Q5687ah3L7xspS9LlgTz7W/YF59DhU+NI0peKnD1nzWGl4L6OIFrjuivkdy4G+fVuCWsJKuxpd5ySeNA0CrO5LAaX5Nyj5txsVKnlCXFx3H3Qca7qaJs16G0Lyk1TF0CG7/szUcLo7JYvmriwucyatA0jj3UoXBuxog36z792FQG0o4Hse5oovTKhnptWmWZDc2KBbUCWlFWFvW0wwQHHs9eL7Up3Lvx6HyvE3P2KPs2LeL7/3WjcaPe/HX0juR+O9Hwo3l83LygsVBOaHmYdPPxdYuNOcOxfRtZMusDevr7MezXSKnLV1DI9yO+/7IV9sZSpoIJCJtUWbp3x0MvDHv4qksA70+czpzvvuTtjn50+XQztnXrGleBPylmePUdiK+82Fcby6rR/vi37sKA7k3x8+3M7PAH1HnrI9oVy9kN0Nw5z76gaQxqVI0G7fvy/thP+PJ/w+jRqBnjd8aiMytJ15F9jJ+WpNl1EF+/3wQHhY7b+6bSpW4derz5Fp998SlffjSKod0b4V3ZlVb9RvLnPqOl9wqREhXI+pP3pVc21G2dX+OWsHCnXWtXQ2d0fI0kDFmXrOqICxpOTbeK1MiaXCvg88Zvxs8ZUBVqxZczR1HNTonu/nH+fLsRtTyle9+rF4P7dibAzw2fNu+z/mKy5ItXYeCMWXQr81xkjQOr1hqE2a4+rVrmZakasPKQRF1ebC2J7ZE1qziRRdR1d4IY5lnJeL6VqO1Tjw69hjLhlw2cT9RiXtibwT+s548P6klXOw8kkV85svrj6+bh4UWTNl0Z89VP7DgjeTBmhak7cDaBS8biJe91MzFMQNikdlJtFHN+GIa7szkpV8NYMPULvvp6GssiNTT6aCkrZ/agjI0Zlnb22GQ5Y6WVPY7Se0rLgtLfv2+wWdn+fD/3PbyLSOKlvcf58E1s2BpOjKYsnSes5q/PWlDCoYBUzgEH28wWioVrF0b0qUMhxT3O7g5kwdxZ/PTLQnaevIXSyZP+05cyPqCY8dMy1tR6ZwHLZw6hZlFL1HdPs3Pl78z7YSY/zfuDoK2RXL5vQVnfvrTzlsfjHqHAxsERK5WSAk7O+kfavHw0XI06SpxkeliWaEOX1vk3brkz8uzcGU8HeTV+DAcjrxgsW1VxXN1cpHfzxswiq9ukxKXpOFYG/Uif+qUlt1TDvSuHCdsUzNr1mwk/fp0UnSXF6/RnauBGJgY8p1lyzXUOH7mOVmFJ2VY9aJqPparHogadutRGrjLpVw4QdU2231WUcHWloEWWG6hQYW7tiEvZ6pI12J/3pq8kLHI7k/p45CpqZiWq4FokYx2RUaAyt8bRpSzV67eh7/szWLb3EEHfvUEVO9MTNRmTeoKuNvEsu7eGEn05AVXBivi0aEXN4llv8j9Dk3CKkE0hHL+ahGVRV+q3bEWNIk/W2z+MPcLusAOcv3aLh0pbilaoiV+jupSyzaMySS7n0bBdRJ2+zO37asxsnCla1g1Pb2+quDzbufw3UJNw4SD7wo9yOf42DzQWOBQrT3VvP8nqLaS3EgWmgXg0uEAgMDnEo8EFAsF/CmGxCf7baG8RvX0PF5P/0by51HKUOFX2x9fNWVgH/xLCFRUIckFzdT6dvd9l35Ovtn6MY5ufObyoL69TXDNTQgibQJAbqdEsnvwn0UnGPaRPikJFofpDeK+jq7DY/iWEsAkEApNDTB4IBIL/FELYBAKBySGETSAQmBxC2AQCgckhhE0gEJgcQtgEAoHJIYRNIBCYHELYBAKBySGETSAQmBxC2F5jNLHLGepdkarVG/HdK/hkXYHg30II22uMNimWSzFx3Lp+lphb//DpFK8CKfv5pkUlyhQtTpP3g58tiPDrQuoVQub+j/4tvKhRphAlXQpTuaoXAf3/x4K91/5ZbA5BrghhE/xraO4cIyI6joepiZyJOMS1R3FqNNfYPH0Mo0e9x5/hd4yZrz+aW7sY37ERPcfOZlPkGeLvPSQt7QF3Y88QvnY273fwZ+DsA8iRPgXPhhA2wb+GqogfXbs1platBnTo3Ypyj0LJqc+w8c+FLF38K8t3XTUNK0YTw+J3hzM7PA6tmQsNR/3AytAo9kfsYfmP/6NhKSvpvOPYNG4YM/ckGQsJnhYhbIJ/D7Mq9Ps+mI3bNjF7RB1MOaLDvd0/MGNjjORsW1P/w2X8OWEQ/u5VKFfJk0Z9vuTPRZ9RU460ln6ahT+uePYI+f9xhLA9Z1LijrI9aAkrAjdx9GqyMTcD6lucDAtm5ZLlbN53lntPVIHTiD++i02rl7AqeDsn4lOM+U+KlsSzYQQvX8q60Ghupb3cRqMPsrNmqXTsOzh1Uw4t/ILQJHIhYgvrVixi6Yo1hEVf49WYUkli55KNXNPoUBbvwrsjamd7OKV1jUEMa1MGhSR9t/asJ/S2ELZnQQjbU6Ph0sIh1K1WmRZjN5KqvsaWSV2pV6s+vQYOYdSgLjSrWYNuX2809r5abuybRf96HjQO6MXIkQPp16Ym3o1HsOpU7s0vKXoBo5tVo5Zfa/oPHsKINwJo5FGNbp+t4nJ6zk99VccsYpB3FTz93mdX8l32z+qJX/3WDBk2mEEd/Xn7j6vypzg8qwveVSvi03Y8USnZG5LmZjBj/Nxwr+HDx0GxmYM/69FyeekIfKtXpGbzLwxZmiv8Ndgbj+o+jNuaxN0D39Ojfh06DxgsHXt72gyez41HYq69yoKhdfCsVp0+s6JIufAbvT0qUt2jP0HXZfGWjvHHADxcK1BdSjVqtGLO0RyEUXuXQwvfp71HJeq17MSgoUMZPbQ3Xfyr4uXXl7lhOR37SyT1MGH7YyXJUlCiYWu8cwx550CDRjUNVmtyNIeP/dPOS5ARIWxPjY5712OIuX6Ni+cPs/ztDgycspFbVuXxqO1BCTs5cGQ8oTOG8MHvZ4nZ8CGdun7Kpks6Srt7U6OsM2ZSc0s4uoB3B35J5P3swpJ+9k/e7PY2Sw9el2w2S4pU8qKWRwUctXGEzh5EtzGrJZEwfjgD2qTrXIq5xvVz54la9BaDxq+Xjqs4NWp5UsbBEkM8YzNKFLXjTmwsl/avZENU9oZ0b/da1p+IIe7qCdau3inZHVmOUXuDHas3c/ZaLPftShjydElcv3iV2GtnOX9oIW/3/5LQODNK1qhNdfmcpR9/3Ky197h2Lobr1y9z/vIt1A/uEBcfx434OzwK9p6edFP6v5wXR3zsNe7cz3LCkqiFfduTrqPnsv+ahuK129N32FsM6RuAZ3Fz7hwP5IueHZgYcstYIC9SuRK5iQ3rglmfb1rLlohLxnJ5o7l5ijNxclBoFeWqVsPKkJ0N+ypVKCkH9tbe4kqMGGd7FoSwPQcSQ6cydlkMbn1/YtvhI2zdupeIPYvoXkFyOHR32TKlE52GzeNKkfZM3niU8NAQth+MYtHbdfWVPOX0Qn7bcNPwZY+QxGv515PYGZ8OFhXo9/NeIiN2szHkKAfDFjG4tjPXpe+4rs4uiI9J28ePE9aQVK4Xc3ccYfu2PUSeu8D8N0rq33Zu3AxvB0mANZcJ23EsyyB9ChGhkRj0VnKPwrcRkbWtJYax84AsGJaSxdbckPeYdHbPHseW26Xo99MuwneFsuPQRQ4vHkzhXCLFW1R/l7UnzhF9ZDFdS8pBkc2o+c5GjpyU8vQpjI/qZx6JS9g5gfdm7JZEtzAtxm1k19alfPftZCb+sIQtezfxvq8LigfHmfvxdA7lYJVmImUb43v2ZEC/XgzMN/WkX7+JxoJ5k371CvH6+2RBYZfCuTY6VdGiFJSFTboTN2OvGzIFT4UQtudBmoJKA39l6ax+jyNrm5dqy8ejmuhdC82NS8Q5deT7wD8ZWLuQ4aIrC9P4/TG0lIMvS1bOofDDklX2N+rLQSzZdk2SFBVV+k1jfHfXx4PrdlU6MmnlUsb4FP7b+skJ3X3upbvzzk8z6FDJWNrMmgLGiOOqQk1pWtNZeqXmxI6tXMwokmnRhIVfl2xKhd7C090OIyQy80KExD07ibgryaG5B01blDLmPkLH/Xvp1B4zjwnSsRuiu5thbZ01intGVNg4F8XFxR4LhfEYCzhSpGgxXORU2JFMoaolV3bVT6u5LB23c+OPmTzKGzvjW3ocajNm3CAqSWKRdnY1gfvzGXEzK0WNOjVwdXWjSr6pKh4+7saCeaNJuMs9jXRtFbbYySHgc0Flb4etSj5vHQ+TxaKPZ0EI23NAUbQLn49rR6FMloiSIt61Ka8XEWvajp1Bx7KG5v0Yu5p4VZGbopbbkkv4aBmXzO09uzn6UHK7VJUI6NkAG2P+Yxzq8MG0Ebg+WiKRI2bUGDSR4d6ZmvvfKIvQpIWnZG9JTtjxHey6qjbkS6RfCGPfxQeSFdGKtvUcpUOMZ/e2gxmOMYXwbXu5K7VXy+rNaFzGzJj/NxZVBjFu9Iub7dTcDmFrhGwxWuPbqRMl9KKQGavq9alVVLrukgV8NOqyMTcXzNwZvTiMXfsOEJZvimTLgreMBfNGm5aKfr5GocLMPI8mpzTHXH8ZdaSlijG2Z0EI23NAobLAKnu7RuXsjL1e7JSYW2YRNRmlIw72hoIaqSKnSBXaQBrnz1wwiIhdNdzdch6VUVhaYZmXrknCVa+Zd7YZuL9RUaZpE6rK4pt2iJ3b44yD7Fquh+3hjGRCOvt0YmQzd0kiNZwP287ZdOMxSp/fsfua9EkzqjdvRTm9C5URJSXrN8fdNq8DfDZSzxzn3APpiBU2pFxcx+JFf2VPy/dzSx+vSMedG/GGgi8ZpZkZBkNMi0adw6DoI3QatPrxAMlKVoqm+SyIq/cikdypvJu10jiQb+RxndeScOee/r9mzoUpmINoPi/MyknWVlXZokvh4I4d3NOLayJ7w6JJlWw5rwb+VG3iTyXJMkw7tYPQCwabLe34TvbGSK6dqgKNm1WVJPLlo7l5mwTZxdPdZOt3o3nnrRHZ0+gJbL0mO/k6tNo8ROUForAqgKW+pUmdV16rXdJTSZHPR6o11ra2hjzBUyGE7RVF+7IWaJpVplmzKpLdJbm/4dvYJ/uWyfsJi7wpvedGfV8XCrg1om5pyaFUHyd0x1VJIjSc2R7Cecl6MyvTmCbuuc3zvWAkodJLlcKJ2t1HMWLU6FzSGEa9P4FxQ+vpi+WK9iZ7/5rEpAnjmJhvGs+0P8KMBfPGTLLcHfUDlQ+4fdvQYeWE+k4CSUaLzblIUX2e4OkQwvZKosDGtoDe2lMn3iXxhRoasivZiFKSK6lL2MPOvUk8OLyLiJvpkmjVp255c7DwoLFvcamypHJo5w5uq68SEnoStZRTplEr3PP0h18cSjt7bOSfVhTAq8dXjJswKZc0kS8/G0PTCvmM9qXsY/5X3zJj+hRm5psmM3XC78aCeaMqWRIXvauu5dqlS1lmn/8m7cJFrmqkm60sSJly8qSO4GkRwvZKYkaZsrKQSCSe4UxMxmmFv9E9GpR+Rqw8mhn2Kkou3e4d+zgWFs51qfUVr9sAN71oWVOnkQ/yhO/diG3sPredkMN3pdpTBP8WdY0zns8TpV7U9WSP5/0Yy7JlKSlPnmhvcfH87VwtoSfG0pPOQ9+gV6++9Mw39eONYZ2NBfNG5VCZSiVkq1bD5UMHctkupebE/oPcllXP2p1aHnnNHgvyQwjbK4mKEjU99VYU6mNsWnc6e6NNPsQPY3/m5KPB/GfBsjbNGpaSKoOWyyGL+W3nCamZ2VLLr+7jGU17v0bUslOhu7ePwBnBRN3XoijUkGb1X8RYkBkW+tleeclI7q6bbFHWKS9PjaQRuWYVMXmt6XsSVKVp9/H3zJrzM9/nm+Yy5cN2xoL5YOFOw/ol9I3tfuRK1pzOuLDHSNIelqw+Jl13cK7bBv9C/8aopekghO0VxapmR1pXlkUjjfDZHzD3oGQhGUmPDWFir15M2x2nH+p/dqyo26IBBSUtST8fyJoDSbIZh6+vk/F9qc0X9Kehh6OkNbfYvHI79yWbysW3JXVy3B70jJgVpWhh2WLRcGHPTs6l5nKWFl6S5WRYTpK4dyrvfbudmzmIW2r8IdYt38HVZxW+p8aahn27UFEW69QoZr33reTq/720hgdnWfrRhyy9IE/GlKHL0C64ZJpVEvxThLC9qlh4MvSjzhTXj33t5qu2NWnasRtvdGtCvToBzAyLpVTrN2lX8fkM3NvXb0a9QvLyVy3yMI9lFV/qFM1gNSiL49/QTT/JYJhdtKNe80bY6998zqhK4edXUf9bqUem071ZBwb0DaCpuw/jwzIuslVRdcgE3m1QDIXuLrund8bPtx3D3/2QcV+O5ZMxg+jVwpPq1f0YNGY2kQ//LWGDArXe4otBHlhKXdGd8Cl0rO1J2649GNSnHU1q+zJ6yXHSpQ6mxqBpvN/07w5F8HQIYXtqFFg72GOlUlLAyQnrHDpYpaUdjrbmKC2ccLLLac2GEjsne8yVZtg7OUh/M36JkuIBU/hjcm8q2km3KTWe6NANbNy2n5i0IjR+ZwGrfhlG9cK2KM0dcZQ/Y0Rp7YiDtZn0+8446EfXnwAHfzq0qYyNfJhm9ni1akX5TIt/VVRq2ZZaBa2kI1NgWbI1HZoWNL6XAYU1jg7WqJSWODrZ/j1WlhO5ftaCmsO/ZHBNefuRmvhj29mwfjvRsVqsrbNUWWsP3lmwmmkD/ShioSXhTAir/5jD7O+/Z/5fy9geeZYky5LU79WFmgWe8Fq8CJROtJiwhJ/GNKOYpQL1vYtEbl/Hug07ORabjMKmHG0+WsKSSa1xFtbaM6PQSRhfP6Zz584EBgayZ38UlSpXMeYK/i1SbxwlZOtuTsU+wLpIRWo1a0nN4i9qPf8rRFo8h7duIvx0HKmWhajo05xm3qX1OyVyIiU+mj1hkZyJiSdZbYaNU1HKuHlSu2Z1iuTU8/xLyI+2CgsN58yV26QobShStgZ1G/lRyTnThjFBPqxYtoRRw4fwzTff8MknnxhzDQhhEwgEryV5CZtwRQUCgckhhE0gEJgcQtgEAoHJIYRNIBCYHELYBAKBySGETSAQmBxC2AQCgckhhE0gEJgcQtgEAoHJIYRNIBCYHELYBAKBySGETSAQmBxC2AQCgckhhE0gEJgcQtgEgueFOo69f37BkPZ1qV2lJBXKlMTdqz7dh3/Fqqibzx5sRvDECGETCJ4D2oR9TO7SkK7vTCd4dzQxNxJIupdA3KUjhCybyojW/oz66zg5hHERvACEsAkEz4r2GsvefZMZu66iVhXBd+h3LNq8j9Bd2/hz6ijqFLWEtBhWfTyUOVEPjIUELxIhbALBM3J/7498t/6S5GpaUef9JSycPIzmPu641ahH6yFTWLzgQ6pZKeDhEf74MZjE5xRbTJA7Qtj+DdS3OLVnI8FB6wk/dYPs4ZA1JJwLZ+uaVWwMiSLuwZM3hPtXj7JncxBBq9ewY/8pEv5RRGU1N0/tYfOa1WzZfYLbOZTV3D1H+OZAguXgKteTjblPyP3LRGwKZN2WfVxKzBB+7rXmPjuXrNPHNFUW68K7o3ywMb7zCLuaQxjavAQKSdBidwaz+64QtheNELYXjDpmMUPrV8enySeEp6i5HjqZXnVq0LBdV4YM7E5APTf8ekxivzHOpObOfn4YUJ/adZrSZ0B/3ujUgNo1m/P1uguS3OVOYvRSPu7oTnWPenTq2Yehg3vTs1Ut3N0b8v4v+7ibNfq4JoYFw6Tf8fLj29AHqGNDmdzLB+/6Leg3oB9923tTy7szP4bFGQa9tXfY++MAGnjWJKBnX4bI4fA8a9Dp06Cc43Vm+v5k7h2aQ896tWnXqy+DejSjxaAJfNutFjXdPekzIzIHcdcSG/w+Tb3cqNv0A0Lu5jD0rrks/YYf3u416D3zoDHzJZN6hLB9sZJkKSjm35q69jk0KWVB/Bt76CPm65KiOXQi1ZAveGEIYXvBaO9d5fS5S1w6eZqo1WPo1ONrtsdA6WqeVCxSQGoOKVzc8g3D3l3E1asb+bB9J75ecwqKuVHdtThytLm0+H38MHwAPx3JGFPzb+7slcSyw1B+Cz2PzqUmbfoMYcigPjRzL442/iALPupE/8l7yGRf6RKJOXWRmEsnOHN4Fe906M70TecxL1WNGpWLIntOD2K28PXg0QRevsK6DwPo+fkKLmldcK3hhouNCtLj2TPnTUbNOJhdmDJ+/8HFvNXvU3Zc01G0cg0qFZMDQdvhaJXI1StnCVkWyIlsQZGTCAtcx7FLMVw4tILgsHvG/L/RxG5n1fojXL4Sj5VzUWNubqiJiw5l+9bNT5C2EBZ9zVgubzS3T3I6VhYqFeWrVpOc0ZxQUtC1CsXkyP6aWK7EpBjzBS8KIWwvi9QQJr/3JzfL9eKH7cfZv3sPe49GMqtbZalJ6Li+aTzdOgxi0TlHOn2zkcgjkezYd5I9C4dTyVJqEMlR/D5vG9mGnhO38/VbUzmQoKNY4/EE793FHz/OYuL0eSzeGcHyDxpIrlES4TM/Yv6RnCyFNLZNHsOKayXpNyuEg4f2s33/CXbM7UtJOVjzzU2M79qWt34/Ton2k1h38AS7dh0gKmI5fd3spPIPCP9tHmH3c3Ov0tj1/RdsuVWavnPCiNwfzp4Tl4n8bTgBTb31UdzTz4cQcjbLfOGDCMIibxpGo3R32LN9H5mPXsvN0J0cTpYsOWsfmjVzMebnQsoWvujUgV7dOz9B6kS33pOMBfMm/coV4vQWqwWFi7rk2qDMihWjsD5eaDrxsbGGTMELQwjby0KXgq5Uf35e/RM93J0NF96yHN0+G4mPjfQ/TRznY+zpNmstc0bWx1klNwIzSrQey6jmxeUvIDYijFOZLBstl5bPJfDiQxT2Tfh45hg8HOVyRpRO+H4wjt6VbSR9iSZwRaTxjYzoSNGUYuDPa5ja3wt7feOzpGLXT3mzvhwQWUPsucu4dPyB5b+9Tc3ChtiX5sVb8dHolpLdJX3Dzf2EH8vNCtFxLzGN2mPm8U1PN2NMUCscHGxwadoMT/nc1ScI2XbB4PIaSTkaRkS8JHYKhWTVarkSto3oTOeexO7tkcg2rG3NFvi7ZIhanxNmJahay42KFStRId9Umeq1qhsL5o3mzl3uaaTjUthib5f7MZg5OmJrfDvlgZgZfdEIYXtZKFzo8dVEmhfLHBFeVdybWmUNw82FWn7OxJ4VJAsuI054epWXJE5q//FXJevAkKtHe5MdWw7orThnv860KZ1Dw7L0wM+nqCQOGi4djjJmZkRBqS5f83m7kpkrg7I4tb3L6n8Xh5Z88l1vSsmuVAacvTwpbyHlSe7VtWvZR8keYVF5EF++7aO3zjKiKt6Uph6O0qt0jmzfRtzjcUA1Z3aFc0WtoHTztrjLkdNjdhF6IoNVl7xPsmjjJdk0x6t5S4rrO4I8MPPgnWX72Bt5mH35pkNs+2O4sWDeaNNT0M+xKFSYmefRnMzNsdB3GjpSU4Qr+qIRwvaykCq+pbU8fJwFhSMO9rIgKVAVKJBDlHOFZN3YSv9KpKVI1lUGqyX9NMfPymNPSqzUMWxYuoTlSxdnSSuJvqXRl0+/FacvlhkF5lZWkjxkRYGjo73xZQGsZHc4C0oHyQoxulcpKblNbSgp6dscD9vs5VGVomnTqnrxvH94O2E3jN+hjWX37lOoFfbU7TqGxrLLqz5D6Pazj6265AM72HtTElOz6jRtXu5fq8hKlRl6TdVp0ahzmOB4hFZ633jrFErR7F404gq/AigkdysvFHrxyAHNLW4lyJaSlmtbvmXMiDd5K1saxrSN8horqe1p8ppXzU5+x4XUQPP5RD6oqNSiKZXNpW+5v58dIXf0ubo7e9hz9C4UqIVfAy8aNSgvfVJNdMg2ruvVIY3D23YTL722cGtO44rZZfllobCSOiN9K0olNY9tBTrpzTSd3rTD2kaePBG8SISwvdZoZUNBQkGhml0ZMnwkb+aShg5/jy++flNf6lXConIzGla0ll4lEb59l37m9l54GAfvabCq6kudQlZ4NKlPEcmoTT68g903JXFWn2LnrouSc22GW7NWBmHMD+0twhdNZcqkCUzON33DrMXhxoJ5Y+bsjKPc8egecOd2kjE3O+o7tw1jcZJEFyySz0SH4JkRwvY6o7TDTl52IbuNXv34atJUvsklTZj0NcNbVTSUe5WwqE7zxrJFpiN+zzYik1OI2hXBXZ2KivX99TOzNrUbU7egZJUlR7JTsurSL+xk1ylJRFRlaNTcPcuYZC6k7GXe5xOYNmUS0/NNE5k04U9jwbxRlSyJi37sUcv1KzG5rjVMu3iJa+mSsCldKFdennIRvEiEsL3OmJejXCl5SF5L/LmzJGZdhPtaYEHNFv64qBRo40PZuf8QYXuvoFUWpo6fu2Hsz7YejeoUkV4ksX/HLs7uCOFkmk4SlcY088p55Vg2LD3oMLgv3br3pGu+qRd9BrU3FswblUMlKhSXj0HNxYMHuJXjPUjjWPhB7shv2dXAs/oTHrPgqRHC9jqjKkv9euX0FkvSgUDWXXw9tylZ126GX1ELSZ+vseOvn9h19r4kAD74ej+aR3XAv4kXVrJVt3sFP2w4SKpUdcs0boOnvJL4SZCsuw6fzmb2z78yJ980n+kftDEWzAcLdxrWK64fa0yKWEHgmRwG2hLDWBJ4QrLmFBT2bYNfxiU5gheCELbXGgu8e/fCy1a6jcl7mfL2N+yLz2HZRWocUetWEH419yUZ/yo29WjuV0xq9hpOrw3kmGSN2Xv542P/SACUuDRsSA1LJZrYDQTuuS1534Xxb143h1nkl40Njfp0pJw8zpdygFnvfUuEcXucnuQzLPrfR6y4nAJm5ek+tBOFcpsMEjw3hLC95pi7DuLr95vgoNBxe99UutStQ4833+KzLz7ly49GMbR7I7wru9Kq30j+3Jfzlqx/Hzv8mtfDTm7vWq3kWJvh5tsgkwCYlWqIn5s8myi9r5V0raA/zfxejbEqa5+3+ap/dambke/BFDrW9qJdtx4M6tOOxrV9eXf5SdIpgNew73ingXEJjeCFIoTtBaO0ssfRxgylZUHpbw49tcIKBydrzBQWODk76F2azCixtHfG3kyBmVNB7LMtRLWm1jsLWD5zCDWLWqK+e5qdK39n3g8z+WneHwRtjeTyfQvK+val3WPXTkJhjaNjAVRKS+l3jevkMqGggL0D1tLvWjk58dh4yoDKwh5nBwsUZk7S3yxD+Pl+f2acG3ekdVkHya2WztOhFq2aV8pcOc2q0LJtTRzkRbBKKyq17UK9nDac/xsoC9Fq4lJmv90UF3kx8b0LRGxbx7oNOzke9wClXQUCPlvGwvFNcRDW2ktBoZMwvn5M586dCQwMZM/+KCpVrmLMFbzySC7n0bBdRJ2+zO37asxsnCla1g1Pb2+quGRd9y94ETyMPUxYaARnrt4iVWlLkXLu1G/kRwWnzDtOBM/OimVLGDV8CN988w2ffPKJMdeAEDaBQPBakpewCVdUIBCYHELYBAKBySGETSAQmBxC2AQCgckhhE0gEJgcQtgEAoHJIYRNIBCYHELYBAKBySGETSAQmBxC2AQCgckhhE0gEJgcQtgEAoHJIYRNIBCYHELYBAKBySGETSAQmBxC2AQCgcmR54Mmf57/BxUrVzbmCgQCwavDymVL+Wn29zk+aBJZ2LLSvXt3WexEEkkkkV759O233xqV629ytNgiIiKYOXMmGk1uca0FAoHg38fe3p4vvviCUqVKGXMM5ChsAoFA8DojJg8EAoHJIYRNIBCYGPB/TjKE8gYE6e4AAAAASUVORK5CYII=;" vertex="1" parent="1">
          <mxGeometry x="60.00000000000006" y="182.90999999999997" width="134.29" height="214" as="geometry" />
        </mxCell>
        <mxCell id="U7OkQ9ro5yA8NuUNClQP-77" value="" style="shape=image;imageAspect=0;aspect=fixed;verticalLabelPosition=bottom;verticalAlign=top;image=data:image/png,iVBORw0KGgoAAAANSUhEUgAAAhoAAABLCAYAAAA29C5dAAAAAXNSR0IArs4c6QAAAARnQU1BAACxjwv8YQUAAAAJcEhZcwAADsMAAA7DAcdvqGQAAC3qSURBVHhe7d0HXJNHH8DxX0IYDlScuOrEvVFw1rq17lHq3lv0dY9Wq9a9qnXvveveWxFU3HuCCwUElSEqK+N9niQqKigBQm17335Sw5MAD/fc+N89dxeFToIgCIIgCIIZKI3/CoIgCIIgJDkRaAiCIAiCYDYi0BAEQRAEwWzez9GIjIykadOm3Lp1S/+CIAiCIAiCqVKmTMnOnTtxcHDQf/0+0PD29n5/0NLSUv+vIAiCIAhCfEVHR+v/nTt3Ln369NE/fx9oeHl5UaBAAerUq8m6jUv1LwqCIAiCIMTXsiVrGDZ4FHPmzMHV1VV/TMzREARBEATBbESgIQiCIAiC2YhAQxAEQRAEsxGBhiAIgiAIZiMCDUEQBEEQzEYEGoIgCIIgmI0INARBEARBMBsRaAiCIAiCYDYi0BAEQRAEwWxEoCEIgiAIgtmIQEMQBEEQBLMRgYYgCIIgCGYjAg1BEARBEMxGBBqCIAiCIJiNCDQEQRAEQTAbEWgIgiAIgmA2ItAQBEEQBMFsRKAhCIIgCILZiEBDEARBEASzEYGGIAiCIAhmo9BJ5CdeXl4UKFCAOvVqsm7jUv2Lwn/LG/9beHrexv+NkvS5i1GxggPpLIwvCt+UV48u4nbaixBFZpzqVqWg3b/5QmnwO7ufwzdC0OhrKwUWqfJQ86eKZFfp3/CN0eJ3Zg+Hbr1CazxfVZp81GhanuyW+jcIcdBpAjm77Si3QzUYkk5B6oLf07xyTkRV9Kn45TNd2AOO7D1HgC4t+Zwr45zX1qwjDMuWrGHY4FHMmTMHV1dX/TERaCQ3bSDre7Zn/NFQ8neaya6R5Y0v/H102lA8Zg6m95Qj+Efqs4NERbF+6zgxztn4tfBt0PJkxxia91rDg7fytUqJy7KzzG9ha3j5X0gXeYGhFdqx4n648YjE0okZV9fT4ZuMNMJY6VKdwQefG7+WKDLQaeNJptVNZTwgxOaNx2SqNFqEjyGi1EtdZSSeO7tiLyKNT8Qvn73eOYzi7TdJ75ZYZaP59FXM7+BgtsAttkBD3DpJZjrdG/we+BP44hkPH780Hv17vXKbw/8mykGGgnQOFWjs0pBa5XKiCH9rfMe/lZqAi3uY3r8HdcuWJ1/WAmTPWpxijk3oMGQp7o9iNGzfCF3UDRZN3ioFGQqylGvG/0YMpZWzjeG1iEuMr1mBnJmL88PA/YToj/4L6CIID9dITywp2qQXg4f9j6EjO1Ipc+xVpe71Iw4sGE/HenUpmacY2TMWIFcuJ5yrtqXvpP08fh9Mx1+4zxnmD+tJnTLO5LUvQLasJSgupX/nX9Zw1j/a+K53UvJ9N1eGDP8fg4c0oWgKhXRSkYS/1RpfT7x/67XWhYcTIfd9LfPTdFA//bUe0r0KGb/QKupe32fn7GmMGvkHf118ZTwaX1peXNzNn+MmMerXyUxdeIQHEabnj08l5Jyin99gy4zfaFe3LiVyFyV75iI4FKpOw7a/seSoD5HG930Qv3xmI+XTUb/0oW2VHFhE+bFj8hI8whP/N5pCBBr/eRG4bznKE7UOVW4Xlh9ZL0Wkc9hw5DjHp1czvuefRoPPoYUM7DWYX5ecM0Tyn9K+4MCoNlSq5crkFQe54PWM0LdRRL4N45n3FfYuHs9PNToy95ypFZd5aZ5d48pDKQBSOdBpqlQ5Du9IlZyGcVJN0B3OXg8gPDIMr3M38ItO3srkneinblLwNph+Q1dxMSQpz8GCQj/2ZvgvAxja/0fyW0oV6ydCL6+n4/cNaTt8KXtO38E36DWR0VG8CQnk/hUPNkz/k213oozvjg8tAW5/0qRqO35beICL9wN4FR5F1NtX+N+7xK55o2hSrTNLLsXMZRbkrdWBYSMGSD27BuRPmfSjLt/GtY5HOUsoqzw0GjRAf637NCpI7CmoJfDcGrrVaE7XUfNYMGc+a0/4S2cVf5oXJxjVYTDjpi9iwdyFTP11Pkf91MZXEyIh56Tl6d5J1HFqSs/fV7P/zB38gt8QGfmWYP8HnNm9mhEtGtFm2nleG7/DIH75TJXNmc7DhjBtVmdKWinRBN7g8n1TykDiiUDjP06n8efO3SB0KMjsVAWndJ9X3v88au7s38ra9VtYtdYD/1gqYV3EBdavvECIpT2V2/Zn7tYdnL58jON7ZjGgbj6spfeoX5xl6pAl3P6bGuzYaJ6/IEgKClFlJXfej2/4W2R2poVLZRwdnWnSujq5Y2mIk0PUXTdWrt7C+mWbOeWXfBVa9MPt9Gkzlr33w7DM6kSPaStwv3eTgNAHPHnowaHNUxnctQElTBiDj368i4Hd5nIxSI2lvTOus1dx7IIbZ06uY+bAGmSzUhDt786YXrM49yb58sm3ca2/Xs7MRSf1zPdP7EbNBr+x406IYT6Hyd7iMWMm259EYp0qRaJvJST8nCI5uWEH14IsyFXFhZGLVnHk/AnOuK9nZv8fsJevrTaEE5OH8+eZhI8yq7LlIEdqqcnXBvM80JRwLPFEoPFfpwkj9LUcwSuwtUsr/f8/QpUNJ5eerHQ7wo55/WlZsxQF8ualeJUm/LJmIQOc0+vf9vbGCY56fzo0/vfRRkWhPxtLa2w+aVwUqnx0mLOag8c2Ma+3IymNx/8TtM/YMHI6B30jscrVgIX71zKhezUKZ0klNSBKUqTPQZk6Lgyf4kqNLPEdYQjHbfYCDgdIKZ6qFMM3LGVMh6qUcMiFQ8lKtBs9n1XDKpJCemfk3U0s3Oov9U2Tx3/5Wkc9OMjQek3oOOUofpr0lG9Zh0IJCLTeXlnJmJU3UFsXpmuvHzDcgEyYxJ2TBQ5V6jFo2Q7c9kylf8uqlCqQG4cSFWk3diHL+jui71KoH7Jt3Ski9N+TAEprrK2kJl8XRWQCbh8mxt8QaGgJe3qLk3t2sWHtFv7acZwL3sFSbBx/6uAHnD6wh00bdnHo3CNemVC6w5/dln73bjZt3MW+41d5Gva1yC7h5xsZeBf3fbvZvGkfJ68HxHKPLW46KQC4f86N3Zu3snHzAdyvPZPib3PQoNEngcL4X/JRBz3Afe8uNhrTJz4FyPTrFzuFVQlcZwyhQaHUxiMfKKzyUv/HwobhWm0AT598O4EGOp2hMVMoE1V4dZpQ7nocZsuG7ew+LvX643VfWs1L74sc2LZdumZ7OXzmHi+SqMLSacO4576fv6S84H7zOaaOg0Re/YslB/3QKTPRYuwoGuaxMr6ScLqw02za/UBKbyV5mvWhS5lPJ9xaU6prR+pkkZoB3WtO7XMjOHnr73hJSDnTqUO553mM7Zu2smXHMc7eeW5S/fUlmtCHuO/YwZadHtx+bupPVXNz81LWXHhO6kL1mbBzH9sn1cZeZVrNpdM8ZMVvq7jx1oLC7YbRo2hiJukm9pysKNdjDCNaFOLz2siGMj/Xo6iV/LO0vLh/nxcJHoyQ6gz9KUl1SHJFxEbJGmi8urWbX5vXpljxH2nWph99+wymV4dO1HV0pnT1ASw+FWCoRN/T8GD1AJwKV6Lh76elKMyXfRO6U754TRr97Eqfnv1oXasGjpX7seril6dDRfm4MaltXYoUqSf97r706dGP9k0aU0ZeOjV0K/def15DmH6+BrqwO6zs24KSRevStFVfenfvTbPKVXBq8Dv770d+cUhNp33FpTVjaFjcmfK1OtCp2yBcu/WkaZXKlKrYmwXuz2L9naZSP9tJ5zLlKVasM+sevJGOaPBa60rpAuUoWsAJx2aL8DIOhUbeXI1LmQoUL9OV1fdia3S1PN38C+WLOONYZ7rxWEwaHq4ZJF3HCtQcdpQIzXOOT+9DxZK1aNq6H67G9CnfYCJH4mjU43P9dBofFrWqLp1/ZfpslBsIiLixnEZFnaRj0t9VsCI/Tb9m+IFfpMDKynhbQmGNTYpvcOAvtjpM68/qbvUoUfh7Ws+89j4YjvbZRifHipSsOBq3cDW+bgtp61SVKvW70bPnADo1qY9j6ZZM3P9EulKxi3hwmJGNa1LSsTltOw2QrlkfWtWtTfFCPzJ440M5XOXeEin/FCyHU5eNPJd/kPouMxtWNqS9lKdKN5jDLX2e+jg/vAm9ykyX+nzfoBe9pLzQ9AdXNpp0nzyKyzuPcE/62ao8DWj/Y2aTKrZonz30rVaNkiXr4bry3vs0eHvZk/MvpPNQ2FGlrnMsjYD0UjonfiibQf885PpV7iRXTzHWa534cianpffuaTQpXZGKdTrTrfsgenboTH3nCpSsMpgdD6JNKmc6jR8rO9eleJE6jDkURvD5pbiUl+rFDv3p2b4tP3ZeS4BJDaeSTNLvcBk+n6Mn5tKjcpY45m98iRafzbOYfTIAZda6DB9amdSKrwUFUtpuHkX1UpUoW6UvG+7GTL+kOKe4qTLYYWdhOD+FUpmsncGkkmw1aJDnPH76sT+LjnjzRmtJhrxFKVfRkeJ57LCUMrf/xe380rwNow/GbLx1hPn74ePnx4O7nsxt05JOUw/xONoOh9KlKCF9r0rKAME3dzG05SA2SYUgNtFP9uPauBczdt8hTGP43U7lS1Ewmy2KN764LRrBmPUfD3sm7HylM1Y/ZHnXbgxdfYEXUTpsMuWhVNli5LYDX/fldG00jAP+sa9mkIOMk5N60LzvSjx9NWQrW5t2PTrTtV1dSmVTEXRzH6NcOjDheJDxOxJOFxFKgG8gAQHBvDHW6Zo3wdLXz6VHIH5PX/Ju8rI62A/vR8/wf3SfJ0GxNQA6Xvk+5pFvAD53HxuPxSS97vdUuo7+PLp/k82u7Wkzbi9PFFko7liKAvYppcITxVP3xfTouoi7n9zrje/10+kiCHr2Uv83BL811l7q17zQ/03S41kAAS/loOrLdNpgPM94GRqc1AUpWUSesRE/4U+ucnDPQfbs/vpj7/6LPDVxhrs2Wo08RUOhtMDik9Kr077mqbcvflJa3/cJet9gasMCeOTjj6/3Qy5vGUnTn6Zw8JGG7MVLUbqQPTZSzRXhd5Y/uvZnyc3Pe5i61+cZ23oQC088Qpu5KPXbdaJX7zY0rVaYNFJQvXf/Fam3q+Nt8HOePZPSOfit8XerCXthTHspT/n7vstTMfPDddb06cvkw0+xyVGYMiVzkcZaqkxNqE11mgA8PX2k36kge8UKFLM2rSqOvOLB3ssP8X10mwP7LxlHDrU8v31fagSlxLbIRZGi8g2S2KTCoVBW/f19zQtfnibTPI3Yr3Xiypks1H0W7brM55RPFPalatK2Z1d6dmrE90XSE3p9P4cuRUi/xoRyJq+ye+gnXfuH3L+8Bdd2U3F7piJniVJSXZoOlaGLbQIlOZoNZfaIeuSWV1kkgCbIjSkTD/CStNQbNpi68bqVpubKkRNcf+jLo2sHOXw+5tTXxJ/Tl0T5PiNQv9xXgW3WrFLQYTieEKaUq6SULIGGLuQUv/eZz8VgDRaZyvPLtmNcu7yX/fu3cvzKGdzX9qCUvDNUuDeLB07j+GfjjzoC985h0mF/stcayPYLHpw5sYOjl06ya0JtMkl/hSbwONOmHeazNQLa52wZOYntD6TqI0VBui4/wFXpd+87uAOPm56cWDeYWvlSS5fww+9M+Plq8f3rTyYdfCI9s6JQqxm4XT3GkaN7OH/jAAt7OWPz7CpXn8Y+MBx8bBYD//AkjAzU/n0DHkcXM3Pqb0yeu5DDZzYzqFImFG/vsmDYAi4lcgmWZe7WbLx9lus3VtIuv3yHV4lDh/lcuXuOG3fPc+3wIEqaWGHHR4jbXIZveEg+l7EcuOzO8WM7OCUV3Dk/O+h7AaHn1rD8eIy51aZcP1UBhuxxk87fg0Vt8ukzt3Xx7uy9dVY6Jv1d986yZ2wFw8+NUyTeW6YwY7+f9BNVFHZpQ80M8S0mkRwY50rbNj3o2Pbrjw6tujPruGk3xCL8AwmWKh1lWjvSmVp6Iz2ZNnATAd814I+DJ7josYPDZ904sdiFnPL95NeXWbbQ3fjmD57vWcuG26+k3ntlpkrpvmruaMZNmsCSHfu5fHETM3tK+VpKq5KDVkppfI4Lq9qQRa4MVYUYsu+0Ie2lPHX9xAjKfpKnXnkuY9KeZxRoNY1jF/dx6KQbd+8t5+esJvQJo+9zRz8qZ0Euh/yoIgK5cnAr8yZN4ddBvzJ0+BRmSfnmujzXIhYKu7Sk1Td4ClJLzw1jWWqe+Dw3dCJsMpIlU1znoySrfXpDRap+ib9fXCMFycvkcqYXwp5FO/CSYs1MNX9l39GlzJoykvGzZrPtjDtnds+iY4UUKBJUzqJxnzeDQy+z0W7hDjzdd0h16QWubmhryCvJ5i2nZsxkm08kaZ278UvbXPGeBJrOTq5nJIpU0vP4dz4SR4OP+3m8pU6rfKuupHPphM8lUVhjbS39tbpIIsJjdo/Nz9SqKgE0PNy0nK3eUkWgzEb72fPoXyOnfla/gQ35Gw5jydg6pJGuoubpPlZt9zO+9oFOpyRng7FsWdeXyjkNvQuF0han3mPoXy2L9JWWx/t24Rb8cQJGee1i+YGnUqNhRbm+k/m9eb73F0qhTEXhBq6sP3eG5V2yGxMj4eer0/iybe1J5BV9lnlbMGVqM/KlMlSsitR5aTF5KWuGVSC14dDHtP5sXbCHx1J3NUP1vkxzLUPMO8KKdCXoP64NDiqpT+K1l+2eid3jQYVt+kzYZ0lLCmMla2GTlsz2mbG3z0SmtGYqSFKM5dBxJlsWdqBkBkMRV1jnpMXYHlRJK32tfcmF0/f0x2WmXj9VqnT687eVesX691jYYJdZ/pukR5aMpPnk1v3rB+fYuWUXWzZvY/WCPxn0cxPq9NiMT7Q1Do1+ZcGYHz66Dl8mNXTFi1OssAMFC339UaikI0Vzxr9B1Ulpc+TgFcKla5WheEkKmhwIRqHM/TNLd8+kfdkMxvxuTf4Wg+lrLEO+587rj36g5rH3U/19fet85ajw3cfnmzKXE3UrZNP/LIVFCjJkyUwmW2tDhSylRwq7DIa0jyNPacPCUJTsxtwZzcgrD61ILFOmkK52/GleBRIQahhpe3Z8MrWLV6GmyyBGT17AoqXrWL5gAeMH9KRG2Xr0XXGDT8e0UlZyZcOWOcxftpwNUsfFuCsJocGv9YGGIqUtqeJsjZTYpk1tSEtdOG+ScK+MRDGxnMl0al+8H8o9dQscylf4ZNdVa3JXqYWT8aCp5UxOz9eh0ZT73zQmSMGOISeoSJky8XNpTBF+dTVjpDygtipEj3GdKRDvCZvWfD9iHhuXz2TxX+v4rV7ybLymi7jOqtXn9fNjFJmq07KJvbHcmk5hmYO8OeVOZQQ3L91I+KTSBEjoOcefXDkeuCpVjtKlKtKEjrWM0f9HlORu0YIameS+xFsuup0zHI5BkaEO42e3Iu+nlavSnoaNyugrB13YTS59NPSr4fERd25ESIXfsjjNWhaLtQJTqKRI711Fkojz1QVf4NSVUOmZBUUaNaOcHIl8xJaKQ0bTpXga49cfaF6ekXqX8gZeKajUtD7ZY6nYbIqVo6y9VES1gVy7+NR49J9FkaUBo8fX/awXY5G5NGUd5LvgGgJ9/Q0HE3L9TBLJ8WlD6NqlHz27DWTg8JmsOnCbV8p0lGk5iD8mt6JYrFFhXFSU6Tuf456HOXX26w8Pt8V0KhafgE5L4PUjLBzah992PEaXqghd+tYlnfHVeFNk5Oexv1Dr09ECZQacnPPoe7rRAZ8G+Qrs0tvqA4eIe6c4fCexAe4nVPnoOrEnpYwBeULoQsII0+/BrObe8UNcf21H2fouuI4YxtjxQ+jXoRp50yrRvvJmw+DejD/08a1HucNSqHoDXFpUo7CxUZYbxsioaOn/cv5S8aV5fUoLC0OvWJ7NnwSbPSUF08qZkSIddmnlOk3N7eOH8UriTZ2sCrZmTP+yf9sKGZ3mEStHr+D6GyWF2g6hp5NpZ2KRLi/VmzelWa0ipo8mJkgU1xbMYPVteeQpFVX7ulI3zpG1eJDaysadapJVpeXmUqneG7mCPZdin2eY1MyeXLroe1y/J0fJSrKWKRPrJjsyRcoilC5s6DuGPryv/zcmpU0a0sVaGSmxK5qfbHJNoAngsbyZ0XtSxXPbR/q/lEmyFaJ4PLYrTsz5Rj64z0O5UVSkpGjpgrH3yhTWpIilJxp59y5ecm9I+t6Ih4dZt/avzx7rN13guU7OFjqCAmNsO/sPolRZYR3LZVAo0pJeX8lJFfzbd7G26dfPNCqK1PyRRg1q82ODmtT8oSyFs6dBpQ7h0sYJNCxbm84zPflkkCz5aZ+xafhQRi3xJMy+MiM3LGeAc2xTE79CocLaJrY0lIOJNPpgQhf5aSBhQa66dXCWbxWGnWN0g5/oN3M/94LfzQBJHIss5ajmmIC/JQatOlpqNmUW5Gv0G/svu3Ng/VTGDO9Fn75ScDZ7BYe3D8UxjVTdqX3YsmAXz756+gpUFoaJdzqNxvgZK7HTabWG3y+vBDJ5zoF5mFbODBQW9tRr4qgfcQ0+9QdN6g5k3p67hCZJ/leSs1JVSpoUuCclLU+3/MmfJwKk9rY2w4ZV5fPu3rcl9PxiBkw/JXVlFWSo7Mr4nsaVcAkmzyX5nV2bBlHDPogDc8bSc+B67suTvszM/HFZVBDPg+WmQkkm+8yGyD82Ui8yUwbDoKX6lWm7MarSp8dOX8B1vP7oe9UEvXit75VY2mUgfZy/PIZEnK/mZQghco2kTE9GEyNP9fMg/b13dC85NOMX/tdnyOePvjM57CvP79ChNXxEzb+HUoWFcWa18eN3JAm4fiaRGqbmw1i2bjGr1y1l484tuN86y5nto6iXLxW89WHX2J70W/ZhJcLfQpmBCk3qUCGvLdF+p5gzcgEnAw23CpKGEpXKOJvd8OlMH7HM68Iff7anaFoLNME3WT+mF1WKV8Nl0DJOPU7iEY4EUKqkvGN4Ru6KdShjLzekH0vr2IZutbPr/8aQK5e4Fo+RB5sUVoY0iYqQ70TEKToySp9H5U5C6lTJ0tVNuFjL2TsW5O8yhhmdSkvBhpYXV7Yzuk09SktpN3yhu8kTl78luiB3/QTQF1J4UWfoEH60T+pOS9KK9tnP4G7zuPZai2WOekyZ35VCSTBnTqf24/iKLbg9fot11hLUb+REFhOXBieE+UuFWo3GWHkpvjbl9d3rpk6Nld7/4Ttifq8a9buuiLwsKD4/NjHnK31fgoN/qVek/16px1HWpRO9XLvG8ehGn8EjGNPdUf9t/24JuH6JloI81buwbMMwyqeViocuhEOzV3IuXpWslmenNzNl/HQmjPv6Y+KktZzVrwP9GmvKdpvEruPL6VYsNaHX1jJ2zsUvNn5Jy4K8TUZz4NR6JvWsQT47SzRhPhxbOo6mVVwYdyhpllwnlCJNalIaOxrhbwyB6edSUrBQdn1AogsLJODV19LdArsMafQVpO5NEC/j3K9FQ1BwmLHspiPzP/yTvxQW2Wk+cyMnd02kc60CpFFpefXgFEuHdaBavXEcf5aUAW5y0XBz5WK2PQpHlaMy32d9xLHDJzgc4+F+O9CYh1/j7XlSOubOxUefzuZJHpoXZxjd/he2PwyX+rOODF8xiSa5Pg+eTSfVT9vmMGnvI7SZajDzwFYWDayULCM75g80rFNhayP/Gi1BL4Pj7hlqX/HypWEozzJ9Rv2/8aV++ZIgfXBgQdr0aQ0H9axJndpwA0MdGkpovOr0hJ+vInVKUskVnjaUYBPH25VSZSnvDosiBWVaDmbchJFxPH5l7Khu1Mof13K7pKeUWnhDI5/cG70k4PolEauC9WnqZNgfQeN3i6tP4lPBRuGxdDbTps1l5vSvP/6YMp0NnvGfkqWQKp2u7cthJQVg946f5H4syxPNKUVOZ7pNWcbp64dYM7YpBdIopax+nbn9pnDkb9ypyiJNRjLpZ2tqCfD1l1IndirVuyBAJ/XmjU/jpCRHDuN+HBp/Hj2KazWJmof3DUvjlRm/I3fSD7v9Daz57vvWTN1ygCueK/m1RVFSKbQEX1rJ4DGHjO/5J4nm7s3H+sBc/WQfw1t1olWLjh89Okxx08/LQ32PZb26SMfa8fOQHfKRZKULvcr0Dv1ZcjkYUhfGdck8+jrFbNMS4w0n954lWKfEoWknGudOiuAlfswfaFjlJHcOuVHU4n/jBgFx1AK6tze5ctcwNyJz4UKGgzHoNGpir1e1PL96B1/5PpMUjefLH3NynZLvcmfS92LUvl7xu6+ciPO1ypWTbPKwpE6Kim8/jT1IkSeM6Zcqfcw6dy6yy0NY2iAeeofoK65vho21Yb6J9jVhsW7DquHNm/g3mPGXgOtn9GH0Q2pUjM9MY4ONjamNhiWOzX+mXZsWtGzd/KuPVh070aBMfCaDvqMkS77v9Ovoo/z9SNRnPyWChW0e6vWfwdZ5LfUf3a0JOMXR8zGW6caYp5Acd/gU1nlwyC1P7NPid/26oS74TDQPHhg+3EqRNhs5vroZgRK7QnmNc798uXrhXY/3Yzq1N2cvGCbUpSteiiL6HRz/LZSkcfiB/ktWM6ulvIxVy5MTx42vGSS+nCUHFbmKF6GQQ16pfYj9kTerYfRKLvdZ8krHHPJTvNh3+iPJRRdxj0XdXJnhEYDOJi9dFizm19oJX2XyKZ3ahzve8m1+SwqWKCKFk8nH7IGGvCd/BWfD8rc3F/ew9Vps+wZoebx9G0eeSTGnIj1V65YzHv9A+2wPk8a7E/JJaddpHrN92yX98h9l5jKUL/Ju8aPMisKVSpFJrlMiLrFru7ypz+de3T7KoWuGNeWJOV9VtuKUyi0HKWqu7j/Ag88qvHAuzJ7Ismufz0FR5XLEOa9cWUZxbuceHiXDBJ34ssyamYxyhasL4eblR5/1GEPPLWHEoitx9iQTzvTr946lcWdPdZgUHMXSQkS/8MU3LO401gWfxf2S1KuQKDLmp2CO+NzTtSBP/b7MnD+duQtmfPUxZ9b/qGniBFdlihTYSLW7LjqSqNhavmSjJFPZYuSxlEqKLpzwmMXE0lK6cnJ+eRNHYJrELHJS3smwvDn82hH2e30++qB5foJth+Vl0pDR2fmTPWKiCLhzAffTtwmMsbOnTcnylLeXQ+woPLfujHUE6ZXHdnbdMawKKF+vKulNrlG1BHlfwu3kZXy+kB//TgqlHY5lcusDfl3Ex3NyvlbOvg0qyvZfjMeFY5y9GPvjyKQ66MeIVUXov/WgFDweYfvoKvrvfkcX9ZLbZ05z5magvr1JSjr1E9b36c0YeQ8myxy0+nMpExrl1Kd5ktGEEBQqlQ2FDbbm2r4gDiYXC9NZU7ldYwrLBTv6Fn/2Hs0ur49XhvgcmUXP3/bp959IXaoVXWrFNlQUwcV5vWk9cj8+75ddhXF21ljmnJaXhaoo+lMLKnyyMsW2SmMa5Zdntb/l2LRfWeD5Qt/7MHjDzb8m0PzH3kzfed/YUCb8fBVWRWncoIB+ZvDbS8v59c9L7z/WV6cO5OiknrQf78arWOoThVUxWrV21Gf20NPzGDTxJLHN94sMuMGeTR48TcberEXmEjjKkyOlv/3CqplseZ8e8nbWc2nbehZXpD/UHJnJ9OsnU5Elq2FZsvrxOTzufjraoubKwn5UKt+KX5e44/PJbo7qF1eY12ccO3zl6kRFkaZNcTbDjn8J8u40dMnUg5RXvAwbwOQtNz9ZfRCF9143bkZKB1V5KVzYcItLZmUvBabyyJ7mKaePe+mHrM3LCuefapNPXiEWeY25QxZwKehDSKoJucHCfpPY4y+diUUOmnaqR8w92MLPz6Vx5Z9oWq8+DYefeN+IKFI60+Ynw0z/NxeXMHTqaV7GSIPXXrsZOniDfu8bVe6GdGn2bi+e+NMF7aZ3tZ9o3rAZTUccNh79e6if7mV41ynsvPHxiKouyof9h27py5dNvoKGg3pfK2fmodOGExwg70IbaHi8eM27QeLo8FACjccDnr9KwoAgijMTOlOtbmsaVm7E2KMfz99IzDnptKEcHeXK0C3eqBXpqDZ0CkN/SM2Ldz8r5iPgJfrPwEwInRa1Rr6yFlgkaQTzdeZoGz6TolQHJg4or1829fr2X3Su/D3VGnalU7vuNPn+eyq1mM0FqWKwyFhRapx7UTSW2bXKNLlxyBbNuXm9qOLYkJ9adaVJxRo0/f2EvsG3zteCUf3LfjYcpLAuyYBxLfQfo6x9eYYx9WtQqW5HOrTtSkOn76nZdQmXg634Lk+m94mR8PO1omzPXjT6zka6qKEc+70VFaq0lhrijtR1rEmryW6EZK1O5yYFYolULSjSbTgDv7dHoXuF+4zOVKrQmh79xzL6twmM6Pc/WtasTpEiDejYbznnkniN+5coVIVp26WSYYMy/yP8r3odGrh0p2Xt2lRuMh3PiIL0+aU52Y2z2ZNSQq6fnJa5K5czNDzqm0xp1hSXNt1pVrUKNYZ5SK8rSJXKhoinniwa3A6nQpWo2aAzHdr3pE3DhpQp2Zwxex9KFauCNKU6MWlo+f/Up2PGJFeC3p5Hmd6lMY5lXejSdyy//TqGPi0a02DYQSloltK6aRda5P9wv1f1XTkqOhgC03MzOlG3WXfaN2lEqQqjOWumzwJJUbotI1oXlJo+Hc/dZ9KgbG0aufSgg8vPVCrdjNH7HqPBhlLdxzKkxscdGY1fAAH60QotL3yfxQiMrHHqN4S2hWylhAjDfWp7nB2b8HObnrRt1BDnKv3Y6iU1ODb56T5tIFXSmZ7/1aEhhOonGuuI+GS5aXLTBD/mzM6FdJHKSaX6vRgwbAKjhg6mZdXm/HbYH52FPc1cfzK+W/a1cmYeARuGUrJAOYoVdNI/ipcbzWl5WwE5v01zobjxeNECNRh1MKkmdOp45vdSH2zJt7ef+X0cLiTqnN6eYuXaG4YARBfC8QltKG18/2ePAk7UG3la/20JknzNxkeSJdCQhxUrDlvAxikuFEsv9XwinnP95BF27zqEx1U/wqUKINf3HVm0ZwndSsZepStsyzNh+1x6VMxGpO8Nju87gsfNQKKlqsW+XDsWbh5D9feb7cSkJFOdEaxb1JWyWaQwRB2K15kT7N19hDN3X0LGorSZtJxprQ23SwwSfr6qLLWZtnYMTQqmk5qpKPyvnebA3hNcfBRBtqrdWb1nDu1LZ8FKaUnadB/vHyDvzdF/7Qqmd3Yms5WW4Hun2bpiBfP+XMKSVTs5cv4BYdbZqNS6AWX043xJQJkKO7sUWCitpfNJGUeGsCB/p3HM/V9FMkrdO80rHzwPHuLI2Yfoctdk/F8rGVYjF2mtlVjZxbaNlIKU6WyxsVCSQno9Zaz1sSVp7FKiUqhImz5muiTk+kl1f+l2jO5VDlvpYPTzOxzbc4iTV/xRpJATzoLCnUcxo7dhBYX6lR9X3I+xd+cBDp68jt9rDQqbLFTq9Dvbtw2n4rc0wU+emCv/G9uIhsKGdGnla2lFunSpDO+TKFOkIU1KFUrrdKSLYx8Da9s02KoUqNLZGY8YyLcSW/RpSqnMFoTcP8fO1SuYP3clmw7fJkSRhtKtxrDyj4aG21tG8sher3EdKJFOyizql1w7eoh9x68RqLPB8Pl08ckPJlJmpOHUBfzZrTyZpIYv6uV9Th88yN6DZ/EOikJlVwiX8SvYOLEGdp9kcuvCpXDOLqWbVQYcKxQ1DKEbWaSvxMTNs+hd9Tsp7NAQ8uAKR/cc4IDbdQLCwTZvdX5Zv5rRtU37ILf35D069E8syV8k5mjBV8R6rRNTzqRuUuEf6dWmLBkVr/Hy2M+ahUtYsGgLR2+9RGkndTamL2ZCU3vjuw2+XM4kceTJxLCwVBGvPo3CEqt4zpmxkPJ/WmsLVLbpsDXuUPsxFYWdSpJFeo91ptI4lfh4Z9BEnZNlWjKlj++tDAWWVqbdbv3g3SRohbyIL1kpdMbF1F5eXhQoUIA69WqybuNS/YvmoHvjxwW3M1y5509wpILUmXJSrEJFKhbOqB+i/Jiaq1PaUGfiWXTZW7Lt0iQqWkmF4OQx3K74EmGTnrxlKlHNKWe8epw6KWC4cuIkF70CeK1LRZZ8xaharQzZvlDTmXa+H+iiXnDt2AnO3HpGZIoM5C9blZrlsn024hKXiIA7eJy8xF2fF7xRW5DaLjO5ChejrGMhsiRJzZwQGl7eOc2hEzfwfWOJfcGy1KldkkzJNAHO9OsnBXqXT3Lk9D0Cwy3J5FCGmnWk98eoSHSRL7jleY5Ltx4T8Coaq9R2ZMlTGOcKJcktBSHfmvALM6lWZzbeltVZ5r2Uxsm0AZKc9lfdT3PZy48gqUNma5+bUpUrUzaPbZwNbGTATY5IDf29gLdYZ8yLc63qOOaIOYcqfnQRHvQt3ZmNfkqaLz7Pop+/vCn866dXcXO7wn2/UKJVqcnqUIIqP5QmZ+rEBIyR+F3zxN3zLk+DI7BInYHcxcpStVJB7L5QEegijtC1SC92vrSm5YozzG0W89zVXP+jA3XHniI6cx0Wu82jSbaENiJJJ/zZbdzdLkvpF0S4IiVZ8hajcjVHctnGlX5fL2fx9frwaJxcVhGYohYrvBbTMBE7xv6XfDmfGegijkrv6cnO4PR033KMiTXMs436siVrGDZ4FHPmzMHV1VV/LNkDDdN8HmhUSkDmFYR/i2iv5fxYcRyXtaWYcHYzPWLcsvi3MjXQ+JZ8qQHQhRynT+WebH6amiZzt7KorWHC5X+ZCDQSJj6BhvrZRpqX/IVTageGH97FYJNWvMVfbIFGMg+gCIKQGKqc+SmQUQou1Df5a/ZfUi/yFgH/4B0bTaMl6P5FPNw9OXXhEcmxoCWhXj28xikP6TxPexOsju1ENdxdt5rdT6LI/uNgxrQUQcZH5Fuknp54SGl46UHoR5NThQ++ns+kICTqOTfPePDXzC1cjtCisM1PkfwfJm8nBxFo/IOpX9zh8M597Ni+16THzp0nuRNjVr7wz6GwcaZdu1KkIIorq36hZT0Xft/78dLefx2FfE9ZrqqiOD6lI00atKRx3eHsjGuTm79dGDtGdKVx/ZY0aTqZk/JOc/LnoFh8qG51ERdZssyTqCw1GDmxBfFaPf0foJDSSb83R+Q5JjZrRRMpDZv130q8NtD9z/l6PpO9OTyLxvXa0nfhBd5iRYl2ran62Qd+mpe4dfKPpeXR4m5UGHKUuPYsjJsV9f88zaqOpu3AKnwbdNoQLm5ewxb3BwRrM9Ng0GAa/otvoei0rzi1aDprLgS9/ygWZcqS9JjSlTLf5NC6FASunMh89xfvJ99ZpC5Mu5E9qJTZMG6h077h6R0fNPZ5yR3viYD/fprgiywct5arIYZPzpXTzrZce8b3KvefXfkVt6/nM1n0o8NMm7aXJ6Qlb/kGdGhVjsxmDGz/gXM0IOj8JmZvvokudw1696z62cce/5e9ubqNKasu8vpd7RtPCmUaKnUdSLMiyTt8JgiCIPy7/SMDDUEQBEEQ/hnEZFBBEARBEJKVCDQEQRAEQTAbEWgIgiAIgmA2ItAQBEEQBMFsRKAhCIIgCILZiEBDEARBEASzEYGGIAiCIAhmIwINQRAEQRDMRgQagiAIgiCYjQg0BEEQBEEwGxFoCIIgCIJgNiLQEARBEATBbESgIQiCIAiC2YhAQxAEQRAEsxGBhiAIgiAIZiMCDUEQBEEQzEYEGoIgCIIgmI0INARBEARBMBsRaAiCIAiCYDYKnUR+4u3tjYODg/6gIAiCIAhCQs2dO5c+ffpIz+D/iMCOfH7RsbsAAAAASUVORK5CYII=;" vertex="1" parent="1">
          <mxGeometry x="27.509999999999998" y="402.36" width="199.26" height="27.59" as="geometry" />
        </mxCell>
      </root>
    </mxGraphModel>
  </diagram>
</mxfile>
